<?xml version="1.0" encoding="UTF-8" standalone="no"?>
<!-- Created with Inkscape (http://www.inkscape.org/) -->

<svg
   xmlns:osb="http://www.openswatchbook.org/uri/2009/osb"
   xmlns:dc="http://purl.org/dc/elements/1.1/"
   xmlns:cc="http://creativecommons.org/ns#"
   xmlns:rdf="http://www.w3.org/1999/02/22-rdf-syntax-ns#"
   xmlns:svg="http://www.w3.org/2000/svg"
   xmlns="http://www.w3.org/2000/svg"
   xmlns:xlink="http://www.w3.org/1999/xlink"
   xmlns:sodipodi="http://sodipodi.sourceforge.net/DTD/sodipodi-0.dtd"
   xmlns:inkscape="http://www.inkscape.org/namespaces/inkscape"
   width="2in"
   height="2in"
   viewBox="0 0 180 180"
   id="svg2"
   version="1.1"
   inkscape:version="0.91 r13725"
   sodipodi:docname="women-in-stem-not-just-a-phase.svg">
  <defs
     id="defs4">
    <linearGradient
       id="linearGradient17107"
       osb:paint="solid">
      <stop
         style="stop-color:#1e97a8;stop-opacity:1;"
         offset="0"
         id="stop17109" />
    </linearGradient>
  </defs>
  <sodipodi:namedview
     id="base"
     pagecolor="#ffffff"
     bordercolor="#666666"
     borderopacity="1.0"
     inkscape:pageopacity="0.0"
     inkscape:pageshadow="2"
     inkscape:zoom="2.8"
     inkscape:cx="-15.023827"
     inkscape:cy="89.298893"
     inkscape:document-units="px"
     inkscape:current-layer="layer1"
     showgrid="false"
     units="in"
     inkscape:window-width="1920"
     inkscape:window-height="1005"
     inkscape:window-x="1911"
     inkscape:window-y="-9"
     inkscape:window-maximized="1" />
  <metadata
     id="metadata7">
    <rdf:RDF>
      <cc:Work
         rdf:about="">
        <dc:format>image/svg+xml</dc:format>
        <dc:type
           rdf:resource="http://purl.org/dc/dcmitype/StillImage" />
        <dc:title />
      </cc:Work>
    </rdf:RDF>
  </metadata>
  <g
     inkscape:label="Layer 1"
     inkscape:groupmode="layer"
     id="layer1"
     transform="translate(0,-872.36215)"
     style="display:none"
     sodipodi:insensitive="true">
    <circle
       style="opacity:0.98000004;fill:#00746f;fill-opacity:1;stroke:none;stroke-width:22;stroke-linejoin:miter;stroke-miterlimit:4;stroke-dasharray:none"
       id="path4136"
       cx="90"
       cy="962.36212"
       r="67.5" />
  </g>
  <g
     inkscape:groupmode="layer"
     id="layer2"
     inkscape:label="Layer 2"
     style="display:inline">
    <path
       style="opacity:0.98000004;fill:#754a7e;fill-opacity:1;stroke:#1e97a8;stroke-width:4.82142878;stroke-linejoin:miter;stroke-miterlimit:4;stroke-dasharray:none;stroke-opacity:1"
       d="M 155.08929,90 A 65.089287,65.089287 0 0 0 90,24.910713 65.089287,65.089287 0 0 0 24.910713,90 65.089287,65.089287 0 0 0 90,155.08929 65.089287,65.089287 0 0 0 155.08929,90 Z"
       id="path4136-4"
       inkscape:connector-curvature="0" />
    <path
       style="display:inline;opacity:0.98000004;fill:#1e97a8;fill-opacity:1;stroke:#754a7e;stroke-width:3.85714293;stroke-linejoin:miter;stroke-miterlimit:4;stroke-dasharray:none"
       d="M 63.560864,43.958173 A 52.071429,52.071429 0 0 1 134.69176,63.017635 52.071429,52.071429 0 0 1 115.63229,134.14853 52.071429,52.071429 0 0 1 44.501402,115.08906 52.071429,52.071429 0 0 1 63.560864,43.958173 Z"
       id="path4136-4-7"
       inkscape:connector-curvature="0" />
    <text
       xml:space="preserve"
       style="font-style:normal;font-weight:normal;font-size:12.81313705px;line-height:125%;font-family:sans-serif;letter-spacing:0px;word-spacing:0px;fill:#ffffff;fill-opacity:1;stroke:none;stroke-width:1px;stroke-linecap:butt;stroke-linejoin:miter;stroke-opacity:1"
       id="text4222"
       sodipodi:linespacing="125%"
       transform="matrix(0.34202015,-0.93969262,0.93969262,0.34202015,-24.729704,143.25673)"><textPath
         xlink:href="#path4136-4-7"
         id="textPath17136"
         style="font-style:normal;font-variant:normal;font-weight:300;font-stretch:normal;font-family:'Source Sans Pro';-inkscape-font-specification:'Source Sans Pro Light'">Women in STEM, it's not just a phase</textPath></text>
    <path
       style="display:inline;opacity:0.98000004;fill:#1e97a8;fill-opacity:1;stroke:#ffffff;stroke-width:3.70000005;stroke-linejoin:miter;stroke-miterlimit:4;stroke-dasharray:none"
       d="M 65.584719,47.542712 A 48.214636,48.214636 0 0 1 131.44713,65.190491 48.214636,48.214636 0 0 1 113.79934,131.05291 48.214636,48.214636 0 0 1 47.936942,113.40512 48.214636,48.214636 0 0 1 65.584719,47.542712 Z"
       id="path4136-4-7-7"
       inkscape:connector-curvature="0" />
    <g
       id="g4301"
       transform="translate(11.706618,0.52780201)">
      <path
         sodipodi:nodetypes="ccc"
         inkscape:connector-curvature="0"
         id="path4254"
         d="m 89.903547,111.70195 c 6.221643,-0.0209 4.188789,-44.703891 12.081933,-45.090381 8.02673,0.258367 0.7631,46.118541 12.25041,45.719181"
         style="fill:#754a7e;fill-rule:evenodd;stroke:#ffffff;stroke-width:0.98306113px;stroke-linecap:butt;stroke-linejoin:miter;stroke-opacity:1" />
      <path
         sodipodi:nodetypes="ccccc"
         inkscape:connector-curvature="0"
         id="path4254-5"
         d="m 38.971648,111.70195 c 6.221643,-0.0209 4.188788,-44.70389 12.081929,-45.09038 8.026731,0.258367 0.763108,46.11854 12.250414,45.71918 9.810497,0.15754 6.389769,-45.495447 12.217857,-45.597656 6.232273,-0.108878 4.168523,45.570546 12.440805,45.446976"
         style="display:inline;fill:#754a7e;fill-rule:evenodd;stroke:#ffffff;stroke-width:0.98306108px;stroke-linecap:butt;stroke-linejoin:miter;stroke-opacity:1" />
      <path
         sodipodi:nodetypes="ccccc"
         inkscape:connector-curvature="0"
         id="path4254-2"
         d="m 42.254642,111.70195 c 6.22164,-0.0209 4.188788,-44.70389 12.081932,-45.090381 8.026722,0.258367 0.763101,46.118541 12.250413,45.719181 9.810497,0.15754 6.38977,-45.495448 12.217856,-45.597657 6.232272,-0.108878 4.168523,45.570547 12.440804,45.446977"
         style="display:inline;fill:#1e97a8;fill-opacity:0.50196078;fill-rule:evenodd;stroke:#ffffff;stroke-width:0.98306096px;stroke-linecap:butt;stroke-linejoin:miter;stroke-opacity:1" />
      <path
         sodipodi:nodetypes="ccc"
         inkscape:connector-curvature="0"
         id="path4254-2-6"
         d="m 93.267344,111.70196 c 6.221641,-0.0209 4.188789,-44.703907 12.081936,-45.090398 8.02672,0.258367 0.7631,46.118558 12.25041,45.719198"
         style="display:inline;fill:#1e97a8;fill-opacity:0.50196078;fill-rule:evenodd;stroke:#ffffff;stroke-width:0.98306113px;stroke-linecap:butt;stroke-linejoin:miter;stroke-opacity:1" />
    </g>
    <text
       xml:space="preserve"
       style="font-style:normal;font-weight:normal;font-size:40px;line-height:125%;font-family:sans-serif;letter-spacing:0px;word-spacing:0px;fill:#ffffff;fill-opacity:1;stroke:none;stroke-width:1px;stroke-linecap:butt;stroke-linejoin:miter;stroke-opacity:1"
       id="text17138"
       sodipodi:linespacing="125%"
       transform="matrix(-0.8180019,0.5,-0.47227361,-0.8660254,206.16099,119.08503)"><textPath
         xlink:href="#path4136-4"
         id="textPath17142"><tspan
   style="font-style:normal;font-variant:normal;font-weight:300;font-stretch:normal;font-size:15px;font-family:'Source Sans Pro';-inkscape-font-specification:'Source Sans Pro Light';fill:#ffffff"
   id="tspan17140">Pipeline at Tennessee </tspan></textPath></text>
  </g>
</svg>
