<?xml version="1.0" encoding="UTF-8" standalone="no"?>
<!-- Created with Inkscape (http://www.inkscape.org/) -->

<svg
   xmlns:osb="http://www.openswatchbook.org/uri/2009/osb"
   xmlns:dc="http://purl.org/dc/elements/1.1/"
   xmlns:cc="http://creativecommons.org/ns#"
   xmlns:rdf="http://www.w3.org/1999/02/22-rdf-syntax-ns#"
   xmlns:svg="http://www.w3.org/2000/svg"
   xmlns="http://www.w3.org/2000/svg"
   xmlns:xlink="http://www.w3.org/1999/xlink"
   xmlns:sodipodi="http://sodipodi.sourceforge.net/DTD/sodipodi-0.dtd"
   xmlns:inkscape="http://www.inkscape.org/namespaces/inkscape"
   width="2in"
   height="2in"
   viewBox="0 0 180 180"
   id="svg2"
   version="1.1"
   inkscape:version="0.91 r13725"
   sodipodi:docname="women-in-stem-not-just-a-phase-sun-idea.svg"
   inkscape:export-filename="C:\Users\email\Documents\GitHub\pins\women-in-stem-not-just-a-phase-alternate-color-3.png"
   inkscape:export-xdpi="700"
   inkscape:export-ydpi="700">
  <defs
     id="defs4">
    <linearGradient
       id="linearGradient17107"
       osb:paint="solid">
      <stop
         style="stop-color:#1e97a8;stop-opacity:1;"
         offset="0"
         id="stop17109" />
    </linearGradient>
    <path
       inkscape:connector-curvature="0"
       id="path4801-3"
       d="m 70.740332,707.59771 c -9.996824,-31.22453 -46.421481,-50.17837 -77.709329,-40.31955 -31.826531,8.39945 -52.591692,44.17292 -44.01176,75.96673 7.047763,32.71896 43.0286619,55.12348 75.494823,46.92364 33.287721,-6.44781 56.405801,-42.87413 48.084603,-75.74206 -0.380473,-2.34119 -1.17627,-4.56598 -1.858386,-6.82875 z"
       style="display:inline;opacity:1;fill:none;fill-opacity:0.73658537;stroke:#58595b;stroke-width:5.90313864;stroke-linecap:round;stroke-linejoin:round;stroke-miterlimit:4;stroke-dasharray:none;stroke-dashoffset:0;stroke-opacity:1" />
  </defs>
  <sodipodi:namedview
     id="base"
     pagecolor="#ffffff"
     bordercolor="#666666"
     borderopacity="1.0"
     inkscape:pageopacity="0.0"
     inkscape:pageshadow="2"
     inkscape:zoom="4"
     inkscape:cx="114.51313"
     inkscape:cy="86.362414"
     inkscape:document-units="px"
     inkscape:current-layer="layer14"
     showgrid="false"
     units="in"
     inkscape:window-width="1366"
     inkscape:window-height="705"
     inkscape:window-x="-8"
     inkscape:window-y="-8"
     inkscape:window-maximized="1" />
  <metadata
     id="metadata7">
    <rdf:RDF>
      <cc:Work
         rdf:about="">
        <dc:format>image/svg+xml</dc:format>
        <dc:type
           rdf:resource="http://purl.org/dc/dcmitype/StillImage" />
        <dc:title></dc:title>
      </cc:Work>
    </rdf:RDF>
  </metadata>
  <g
     inkscape:label="Layer 1"
     inkscape:groupmode="layer"
     id="layer1"
     transform="translate(0,-872.36215)"
     style="display:none"
     sodipodi:insensitive="true">
    <circle
       style="opacity:0.98000004;fill:#00746f;fill-opacity:1;stroke:none;stroke-width:22;stroke-linejoin:miter;stroke-miterlimit:4;stroke-dasharray:none"
       id="path4136"
       cx="90"
       cy="962.36212"
       r="67.5" />
  </g>
  <g
     inkscape:groupmode="layer"
     id="layer2"
     inkscape:label="Layer 2"
     style="display:inline">
    <path
       style="opacity:0.98000004;fill:#ee3e80;fill-opacity:1;stroke:#754a7e;stroke-width:4.82142878;stroke-linejoin:miter;stroke-miterlimit:4;stroke-dasharray:none;stroke-opacity:1"
       d="M 155.08929,90 A 65.089287,65.089287 0 0 0 90,24.910713 65.089287,65.089287 0 0 0 24.910713,90 65.089287,65.089287 0 0 0 90,155.08929 65.089287,65.089287 0 0 0 155.08929,90 Z"
       id="path4136-4"
       inkscape:connector-curvature="0" />
    <path
       style="display:inline;opacity:0.98000004;fill:#2197a9;fill-opacity:1;stroke:#2197a9;stroke-width:3.85714293;stroke-linejoin:miter;stroke-miterlimit:4;stroke-dasharray:none"
       d="M 63.560864,43.958173 A 52.071429,52.071429 0 0 1 134.69176,63.017635 52.071429,52.071429 0 0 1 115.63229,134.14853 52.071429,52.071429 0 0 1 44.501402,115.08906 52.071429,52.071429 0 0 1 63.560864,43.958173 Z"
       id="path4136-4-7"
       inkscape:connector-curvature="0" />
    <path
       style="display:inline;opacity:0.98000004;fill:#fed535;fill-opacity:1;stroke:#ffffff;stroke-width:3.70000005;stroke-linejoin:miter;stroke-miterlimit:4;stroke-dasharray:none"
       d="M 65.584719,47.542712 A 48.214636,48.214636 0 0 1 131.44713,65.190491 48.214636,48.214636 0 0 1 113.79934,131.05291 48.214636,48.214636 0 0 1 47.936942,113.40512 48.214636,48.214636 0 0 1 65.584719,47.542712 Z"
       id="path4136-4-7-7"
       inkscape:connector-curvature="0" />
    <g
       id="g4301"
       transform="translate(11.706618,0.52780201)">
      <path
         sodipodi:nodetypes="ccc"
         inkscape:connector-curvature="0"
         id="path4254"
         d="m 87.92996,112.18237 c 6.221643,-0.0209 4.286445,-44.750773 12.1796,-45.137263 8.02672,0.258367 0.76309,46.118553 12.2504,45.719193"
         style="fill:#754a7e;fill-rule:evenodd;stroke:#ffffff;stroke-width:0.98306113px;stroke-linecap:butt;stroke-linejoin:miter;stroke-opacity:1" />
      <path
         sodipodi:nodetypes="ccccc"
         inkscape:connector-curvature="0"
         id="path4254-5"
         d="m 38.971648,111.70195 c 6.221643,-0.0209 4.188788,-44.70389 12.081929,-45.09038 8.026731,0.258367 0.763108,46.11854 12.250414,45.71918 9.810497,0.15754 6.389769,-45.495447 12.217857,-45.597656 6.232273,-0.108878 4.168523,45.570546 12.440805,45.446976"
         style="display:inline;fill:#754a7e;fill-rule:evenodd;stroke:#ffffff;stroke-width:0.98306108px;stroke-linecap:butt;stroke-linejoin:miter;stroke-opacity:1" />
      <path
         sodipodi:nodetypes="ccccc"
         inkscape:connector-curvature="0"
         id="path4254-2"
         d="m 42.254642,111.70195 c 6.22164,-0.0209 4.188788,-44.70389 12.081932,-45.090381 8.026722,0.258367 0.763101,46.118541 12.250413,45.719181 9.810497,0.15754 6.38977,-45.495448 12.217856,-45.597657 6.232272,-0.108878 4.168523,45.570547 12.440804,45.446977"
         style="display:inline;fill:#ff8200;fill-opacity:0.50196078;fill-rule:evenodd;stroke:#ffffff;stroke-width:0.98306096px;stroke-linecap:butt;stroke-linejoin:miter;stroke-opacity:1" />
      <path
         sodipodi:nodetypes="ccc"
         inkscape:connector-curvature="0"
         id="path4254-2-6"
         d="m 91.166567,112.18957 c 6.221641,-0.0209 4.266129,-44.714955 12.159273,-45.101446 8.02672,0.258367 1.2006,46.181056 12.68791,45.781696"
         style="display:inline;fill:#1e97a8;fill-opacity:0.50196078;fill-rule:evenodd;stroke:#ffffff;stroke-width:0.98306113px;stroke-linecap:butt;stroke-linejoin:miter;stroke-opacity:1" />
    </g>
    <text
       xml:space="preserve"
       style="font-style:normal;font-variant:normal;font-weight:300;font-stretch:normal;font-size:12.5px;line-height:125%;font-family:'Source Sans Pro';-inkscape-font-specification:'Source Sans Pro, Light';text-align:start;letter-spacing:0px;word-spacing:0px;writing-mode:lr-tb;text-anchor:start;display:inline;fill:#ffffff;fill-opacity:1;stroke:none;stroke-width:1px;stroke-linecap:butt;stroke-linejoin:miter;stroke-opacity:1;"
       id="text4825"
       sodipodi:linespacing="125%"
       x="-9.6602602"
       y="-1529.1284"
       transform="matrix(-0.88863858,0.3746066,-0.3590333,-0.92718385,362.01731,756.78729)"><textPath
         xlink:href="#path4801-3"
         id="textPath4838"><tspan
   id="tspan4827"
   style="font-style:normal;font-variant:normal;font-weight:300;font-stretch:normal;font-size:12.5px;line-height:125%;font-family:'Source Sans Pro';-inkscape-font-specification:'Source Sans Pro, Light';text-align:start;writing-mode:lr-tb;text-anchor:start;fill:#ffffff;">pipeline at tennessee</tspan></textPath></text>
  </g>
  <g
     inkscape:groupmode="layer"
     id="layer14"
     inkscape:label="sun rays"
     style="display:none">
    <path
       style="display:inline;fill:#fed535;fill-rule:evenodd;stroke:#fed535;stroke-width:1px;stroke-linecap:butt;stroke-linejoin:miter;stroke-opacity:1"
       d="m 75.97097,24.560661 4.690641,18.806757 c 6.021719,-0.939058 12.052625,-0.829425 17.720971,0 L 103.28163,24.374519 C 94.088878,22.341525 85.398594,22.125878 75.97097,24.560661 Z"
       id="path7700"
       inkscape:connector-curvature="0"
       sodipodi:nodetypes="ccccc" />
    <path
       style="display:inline;fill:#fed535;fill-rule:evenodd;stroke:#fed535;stroke-width:1px;stroke-linecap:butt;stroke-linejoin:miter;stroke-opacity:1"
       d="m 24.427085,103.65949 19.681757,-4.815641 c -0.93906,-6.021719 -0.82942,-11.677625 0,-17.345971 L 24.240943,76.348828 C 22.64924,85.784 22.468448,94.529574 24.427085,103.65949 Z"
       id="path7700-8"
       inkscape:connector-curvature="0"
       sodipodi:nodetypes="ccccc" />
    <path
       style="display:inline;fill:#fed535;fill-rule:evenodd;stroke:#fed535;stroke-width:1px;stroke-linecap:butt;stroke-linejoin:miter;stroke-opacity:1"
       d="m 75.840509,155.55206 5.190641,-20.80675 c 6.021719,0.93905 12.052625,0.82942 17.720971,0 l 5.649049,20.86789 c -9.192753,2.033 -19.133037,2.37365 -28.560661,-0.0611 z"
       id="path7700-4"
       inkscape:connector-curvature="0"
       sodipodi:nodetypes="ccccc" />
    <path
       style="display:inline;fill:#fed535;fill-rule:evenodd;stroke:#fed535;stroke-width:1px;stroke-linecap:butt;stroke-linejoin:miter;stroke-opacity:1"
       d="m 155.6791,103.61756 -20.43305,-4.948232 c 0.93906,-6.021719 1.44814,-11.500848 0.61872,-17.169194 l 19.8679,-4.972273 c 1.5917,9.435172 1.90507,17.959775 -0.0536,27.089699 z"
       id="path7700-8-3"
       inkscape:connector-curvature="0"
       sodipodi:nodetypes="ccccc" />
  </g>
  <g
     inkscape:groupmode="layer"
     id="layer13"
     inkscape:label="text">
    <text
       xml:space="preserve"
       style="display:inline;font-style:normal;font-weight:normal;font-size:12.81313705px;line-height:125%;font-family:sans-serif;letter-spacing:0px;word-spacing:0px;fill:#ffffff;fill-opacity:1;stroke:#ffffff;stroke-width:1px;stroke-linecap:butt;stroke-linejoin:miter;stroke-opacity:1"
       id="text4222"
       sodipodi:linespacing="125%"
       transform="matrix(0.34202015,-0.93969262,0.93969262,0.34202015,-24.729704,143.25673)"><textPath
         xlink:href="#path4136-4-7"
         id="textPath17136"
         style="font-style:normal;font-variant:normal;font-weight:300;font-stretch:normal;font-family:'Source Sans Pro';-inkscape-font-specification:'Source Sans Pro Light';stroke:#ffffff;">Women in STEM, it's not just a phase</textPath></text>
  </g>
</svg>
