<?xml version="1.0" encoding="UTF-8" standalone="no"?>
<svg
   xmlns:dc="http://purl.org/dc/elements/1.1/"
   xmlns:cc="http://creativecommons.org/ns#"
   xmlns:rdf="http://www.w3.org/1999/02/22-rdf-syntax-ns#"
   xmlns:svg="http://www.w3.org/2000/svg"
   xmlns="http://www.w3.org/2000/svg"
   width="3in"
   height="3in"
   viewBox="0 0 270 270"
   id="svg2"
   version="1.1">
  <defs
     id="defs4" />
  <metadata
     id="metadata7">
    <rdf:RDF>
      <cc:Work
         rdf:about="">
        <dc:format>image/svg+xml</dc:format>
        <dc:type
           rdf:resource="http://purl.org/dc/dcmitype/StillImage" />
        <dc:title></dc:title>
      </cc:Work>
    </rdf:RDF>
  </metadata>
  <g
     id="layer2"
     style="display:inline"
     transform="translate(-292.7655,-335.31818)">
    <circle
       style="display:inline;opacity:0.98000004;fill:#58595b;fill-opacity:1;stroke:none;stroke-width:22;stroke-linejoin:miter;stroke-miterlimit:4;stroke-dasharray:none"
       id="path4136-5"
       cx="427.7655"
       cy="470.31818"
       r="67.5" />
  </g>
  <g
     id="layer1"
     style="display:inline"
     transform="translate(-292.7655,-335.31818)">
    <g
       id="layer4"
       style="display:inline">
      <circle
         style="opacity:1;fill:#ffffff;fill-opacity:0.73658537;stroke:#2197a9;stroke-width:4.97368431;stroke-linecap:round;stroke-linejoin:round;stroke-miterlimit:4;stroke-dasharray:none;stroke-dashoffset:0;stroke-opacity:1"
         id="path4801"
         cx="427.7655"
         cy="470.31818"
         r="51.513157" />
      <g
         id="text4187"
         style="font-style:normal;font-variant:normal;font-weight:normal;font-stretch:normal;font-size:17.5px;line-height:125%;font-family:'Source Sans Pro';-inkscape-font-specification:'Source Sans Pro, Normal';text-align:start;letter-spacing:0px;word-spacing:0px;writing-mode:lr-tb;text-anchor:start;display:inline;fill:#ffffff;fill-opacity:1;stroke:#ffffff;stroke-width:1px;stroke-linecap:butt;stroke-linejoin:miter;stroke-opacity:1"
         transform="matrix(-0.91526498,0.31947768,-0.33150909,-0.87330648,974.77909,742.90577)">
        <path
           id="path4160"
           style="stroke:#ffffff;stroke-opacity:1"
           d="m 490.77925,472.91508 -0.5854,6.58905 -1.2202,-0.10841 0.45686,-5.14225 -3.59085,-0.31902 -0.38562,4.3404 -1.23763,-0.10996 0.38562,-4.3404 -4.14865,-0.36859 -0.47235,5.31656 -1.23763,-0.10996 0.60089,-6.76336 11.43496,1.01594 z" />
        <path
           id="path4162"
           style="stroke:#ffffff;stroke-opacity:1"
           d="m 482.54157,481.48328 q 0.9945,0.27754 1.70676,0.78518 0.72441,0.52921 1.14424,1.17326 0.41983,0.64406 0.54448,1.36926 0.12465,0.72519 -0.0729,1.43314 -0.19757,0.70795 -0.60094,1.17678 -0.38651,0.47353 -1.03057,0.89336 l -0.009,0.0337 0.73774,0.35123 -0.31046,1.11249 -11.64744,-3.2505 0.39044,-1.39904 2.91607,0.8138 1.43079,0.47197 q -0.31869,-0.61583 -0.47705,-1.35043 -0.14622,-0.71305 0.0513,-1.421 0.43278,-1.55074 1.80399,-2.16735 1.36651,-0.59975 3.42293,-0.0259 z m -0.38299,1.43746 q -1.48332,-0.41396 -2.4739,-0.0545 -0.99058,0.35946 -1.29164,1.43824 -0.15994,0.5731 -0.0314,1.15404 0.14543,0.58565 0.57741,1.25126 l 4.2814,1.19483 q 0.6178,-0.39082 0.93963,-0.82789 0.33398,-0.41552 0.47511,-0.9212 0.13641,-0.48882 0.0227,-0.99293 -0.10153,-0.48255 -0.43355,-0.92041 -0.31517,-0.43316 -0.83652,-0.77852 -0.52136,-0.34535 -1.22931,-0.54292 z" />
        <path
           id="path4164"
           style="stroke:#ffffff;stroke-opacity:1"
           d="m 483.1184,493.80864 -0.64411,1.30188 -4.65852,-2.30483 q -1.08228,-0.53546 -1.73149,-0.44664 -0.64129,0.11226 -1.01378,0.86516 -0.2949,0.59603 -0.22193,1.19835 0.0887,0.61008 0.49151,1.49276 l 5.41141,2.67732 -0.63635,1.28619 -7.62303,-3.77153 0.52771,-1.06659 1.2464,0.47999 0.0233,-0.0471 q -0.36356,-0.84371 -0.44511,-1.626 -0.0893,-0.7666 0.30646,-1.56655 0.60531,-1.22345 1.63757,-1.41562 1.02451,-0.17649 2.49892,0.55298 l 4.83106,2.39019 z" />
        <path
           id="path4166"
           style="stroke:#ffffff;stroke-opacity:1"
           d="m 472.97686,499.54448 q 1.12381,0.83488 0.97286,2.27058 -0.14735,1.46019 -1.53656,3.82905 0.3231,0.24003 0.68433,0.39938 0.35079,0.17341 0.71484,0.18225 0.35361,0.0229 0.69237,-0.13966 0.35281,-0.15211 0.66589,-0.57354 0.44875,-0.60406 0.61012,-1.2908 0.15094,-0.67269 0.17263,-1.2888 l 1.14511,0.13128 q -0.0458,0.70722 -0.27619,1.60428 -0.21637,0.90749 -0.83209,1.73631 -0.92881,1.25025 -2.11888,1.23817 -1.17602,-0.002 -2.45436,-0.95132 l -4.18623,-3.10994 0.70966,-0.95525 0.88782,0.50696 0.0209,-0.0281 q -0.0421,-0.79431 0.0908,-1.58943 0.13649,-0.77063 0.60611,-1.40277 0.64704,-0.87096 1.58064,-1.07122 0.92316,-0.18621 1.85031,0.50257 z m -0.76104,1.20048 q -0.59,-0.43832 -1.09333,-0.28902 -0.51376,0.16334 -0.88946,0.66906 -0.36526,0.49167 -0.46401,1.09413 -0.0951,0.62694 -0.0109,1.45256 l 1.89644,1.40887 q 0.52422,-0.9404 0.80801,-1.6452 0.28379,-0.7048 0.34441,-1.22658 0.0502,-0.50774 -0.11597,-0.87098 -0.15211,-0.35281 -0.47521,-0.59284 z" />
        <path
           id="path4168"
           style="stroke:#ffffff;stroke-opacity:1"
           d="m 474.31382,514.20987 -0.99759,1.03152 -7.7993,-7.54277 q -0.25159,-0.24332 -0.43739,-0.25259 -0.18579,-0.009 -0.29529,0.10395 -0.0487,0.0503 -0.0852,0.0881 -0.0487,0.0503 -0.10866,0.1627 l -0.91375,-0.6159 q 0.047,-0.1493 0.15567,-0.31201 0.10866,-0.1627 0.31548,-0.37655 0.57179,-0.59124 1.16733,-0.50219 0.59554,0.089 1.27484,0.746 l 7.72382,7.46978 z" />
        <path
           id="path4170"
           style="stroke:#ffffff;stroke-opacity:1"
           d="m 468.34417,516.88824 q 0.31648,-0.27611 0.71323,-0.27389 0.38356,0.0137 0.64816,0.31703 0.27611,0.31649 0.22619,0.68518 -0.0516,0.39338 -0.3681,0.66949 -0.31649,0.27611 -0.70004,0.26238 -0.38525,0.011 -0.66136,-0.30553 -0.2646,-0.3033 -0.21299,-0.69668 0.0384,-0.38188 0.35491,-0.65798 z m -0.59661,-1.80189 -1.08133,0.94338 -5.59121,-6.40885 1.08132,-0.94337 5.59122,6.40884 z" />
        <path
           id="path4172"
           style="stroke:#ffffff;stroke-opacity:1"
           d="m 462.89722,517.54713 1.02651,-0.73067 0.62919,0.88394 -1.0328,0.84255 1.23758,2.04045 -0.98374,0.70022 -1.38015,-1.93897 -1.86768,1.32941 -0.67993,-0.95522 1.86768,-1.32941 -2.74,-3.84942 q -0.45667,-0.64157 -0.93849,-0.83563 -0.48592,-0.16965 -1.08472,0.25657 -0.18534,0.13193 -0.35861,0.34118 -0.17326,0.20925 -0.29361,0.40232 l -0.85729,-0.72157 q 0.2141,-0.30277 0.50553,-0.61761 0.26702,-0.31895 0.59494,-0.55236 0.55602,-0.39577 1.06274,-0.49869 0.49247,-0.0928 0.94795,0.0341 0.44122,0.13703 0.84547,0.49371 0.40424,0.35667 0.76958,0.86993 l 2.72985,3.83516 z" />
        <path
           id="path4174"
           style="stroke:#ffffff;stroke-opacity:1"
           d="m 453.38115,512.41963 q -0.14028,0.0339 -0.31157,0.084 -0.1794,0.0346 -0.31897,0.10758 -0.65129,0.34064 -0.81116,1.01673 -0.18348,0.66869 -0.0511,1.48817 l 0.12141,0.64747 6.97373,5.97036 -1.3181,0.6894 -3.71695,-3.36845 q -0.43011,-0.40701 -0.90818,-0.86793 -0.48546,-0.43731 -0.9318,-0.87533 l -0.062,0.0324 q 0.0971,0.60095 0.23399,1.24031 0.13691,0.63936 0.24138,1.21669 l 0.83263,4.87701 -1.24056,0.64885 -1.42838,-9.64094 q -0.0904,-0.66369 -0.0937,-1.27418 -0.003,-0.61049 0.15941,-1.13007 0.15461,-0.5351 0.48337,-0.96379 0.32876,-0.42869 0.90252,-0.72878 0.26362,-0.13788 0.50505,-0.20491 0.23332,-0.0825 0.45995,-0.10232 l 0.27908,1.13772 0,0 z" />
        <path
           id="path4176"
           style="stroke:#ffffff;stroke-opacity:1"
           d="m 445.51401,529.49566 q 0.4023,-0.12063 0.76266,0.0454 0.3436,0.17101 0.45921,0.55655 0.12063,0.40231 -0.0772,0.7174 -0.20957,0.33689 -0.61187,0.45753 -0.4023,0.12063 -0.7459,-0.0504 -0.35533,-0.14923 -0.47597,-0.55153 -0.11561,-0.38554 0.094,-0.72243 0.1928,-0.33186 0.59511,-0.4525 z m 0.20138,-1.88737 -1.37453,0.41217 -2.44286,-8.14662 1.37453,-0.41217 2.44286,8.14662 z" />
        <path
           id="path4178"
           style="stroke:#ffffff;stroke-opacity:1"
           d="m 440.45425,529.08616 -1.17556,0.18482 -0.31127,-1.19111 -0.0519,0.008 q -0.50994,0.7002 -1.10436,1.2011 -0.60898,0.5209 -1.49065,0.65952 -1.33115,0.20929 -2.06668,-0.52538 -0.75282,-0.73196 -1.00832,-2.357 l -0.83715,-5.32459 1.41758,-0.22288 0.80726,5.13443 q 0.18755,1.19285 0.64941,1.65168 0.46459,0.47612 1.2944,0.34565 0.65693,-0.10328 1.10663,-0.51057 0.4497,-0.40729 0.98877,-1.1475 l -0.95675,-6.08524 1.41759,-0.22288 1.32096,8.40179 z" />
        <path
           id="path4180"
           style="stroke:#ffffff;stroke-opacity:1"
           d="m 425.70888,524.3723 q -0.55151,-0.70017 -1.3343,-1.17532 -0.80179,-0.45929 -1.69064,-0.5399 -1.13285,-0.10275 -1.80612,0.34578 -0.67484,0.46595 -0.75071,1.30251 -0.0395,0.43572 0.0905,0.74623 0.11098,0.32635 0.35344,0.55921 0.22345,0.24869 0.55621,0.45459 0.33276,0.2059 0.71623,0.43397 l 1.57347,0.86314 q 0.38505,0.21064 0.7812,0.49258 0.39616,0.28193 0.69569,0.66053 0.29952,0.3786 0.46599,0.86814 0.16488,0.50696 0.10798,1.13439 -0.0585,0.64485 -0.37049,1.17885 -0.32944,0.53243 -0.83636,0.8906 -0.52593,0.37403 -1.19133,0.54212 -0.68283,0.1665 -1.46712,0.0954 -1.02827,-0.0933 -1.86334,-0.57314 -0.83665,-0.46246 -1.38975,-1.14521 l 0.86964,-0.87001 q 0.47701,0.55285 1.09658,0.89019 0.60055,0.35319 1.40226,0.42589 0.95857,0.0869 1.59223,-0.31246 0.61466,-0.38355 0.68579,-1.16783 0.0379,-0.41828 -0.0921,-0.72879 -0.149,-0.29467 -0.40731,-0.54653 -0.25988,-0.23443 -0.57522,-0.43875 -0.31691,-0.18688 -0.65284,-0.35792 l -1.55762,-0.84414 q -0.46903,-0.2534 -0.87945,-0.57177 -0.412,-0.30095 -0.69252,-0.69539 -0.2821,-0.37703 -0.41213,-0.88083 -0.14904,-0.48795 -0.0921,-1.11538 0.0616,-0.67971 0.39424,-1.24699 0.31517,-0.56886 0.86169,-0.97616 0.54494,-0.38987 1.28322,-0.58649 0.73669,-0.1792 1.64297,-0.097 1.20257,0.10906 2.18975,0.65546 0.98718,0.5464 1.66548,1.39865 l -0.9631,0.93181 z" />
        <path
           id="path4182"
           style="stroke:#ffffff;stroke-opacity:1"
           d="m 412.02008,530.06334 3.34038,0.9209 -0.32556,1.18094 -8.09791,-2.23247 0.32557,-1.18095 3.34039,0.9209 2.72547,-9.88619 1.41714,0.39068 -2.72548,9.88619 z" />
        <path
           id="path4184"
           style="stroke:#ffffff;stroke-opacity:1"
           d="m 403.09057,528.37179 -5.9546,-2.88115 0.53355,-1.10271 4.6471,2.24852 1.57016,-3.2451 -3.92247,-1.8979 0.54116,-1.11845 3.92247,1.8979 1.81406,-3.74919 -4.80463,-2.32474 0.54117,-1.11845 6.11212,2.95737 -5.00009,10.3339 z" />
        <path
           id="path4186"
           style="stroke:#ffffff;stroke-opacity:1"
           d="m 392.75784,522.91153 -1.35108,-1.0563 2.04318,-6.22178 0.78258,-2.36478 -0.0552,-0.0431 -2.07852,1.35159 -5.5312,3.49478 -1.35109,-1.0563 7.07079,-9.04403 1.08914,0.85152 -3.89109,4.97697 q -0.47426,0.60661 -1.08688,1.30496 -0.62642,0.68758 -1.15582,1.25108 l 0.0551,0.0431 2.30437,-1.44158 5.43419,-3.3707 0.64797,0.50659 -1.94617,6.0977 -0.85678,2.57334 0.0552,0.0431 q 0.4329,-0.63894 0.94902,-1.41275 0.51612,-0.77381 0.99038,-1.38042 l 3.89109,-4.97697 1.06157,0.82996 -7.07079,9.04402 z" />
        <path
           id="path4188"
           style="stroke:#ffffff;stroke-opacity:1"
           d="m 379.50785,508.87643 q 0.26244,0.32792 0.24338,0.72421 -0.03,0.38263 -0.34424,0.63413 -0.32792,0.26244 -0.69416,0.19691 -0.39084,-0.0682 -0.65327,-0.39617 -0.26243,-0.32791 -0.23244,-0.71054 0.005,-0.38536 0.33331,-0.6478 0.31425,-0.2515 0.70509,-0.18324 0.3799,0.0546 0.64233,0.3825 z m 1.82558,-0.51962 -0.89665,-1.12038 6.64028,-5.31428 0.89665,1.12038 -6.64028,5.31428 z" />
        <path
           id="path4190"
           style="stroke:#ffffff;stroke-opacity:1"
           d="m 383.83325,500.84963 q 0.0865,-0.71634 0.0157,-1.35421 -0.0802,-0.65269 -0.49057,-1.30422 -0.44769,-0.71075 -0.99729,-0.86094 -0.54961,-0.15019 -1.02345,0.14826 -0.28134,0.17721 -0.39538,0.45586 -0.11404,0.27865 -0.11288,0.60884 -0.023,0.3247 0.0451,0.69547 0.0681,0.37076 0.13615,0.74152 0.10923,0.46894 0.18885,0.95653 0.0648,0.49691 0.0237,0.9571 -0.0652,0.4547 -0.2697,0.85239 -0.20452,0.39769 -0.66355,0.68682 -0.42942,0.27047 -0.9022,0.34076 -0.49692,0.0648 -0.95931,-0.0783 -0.48653,-0.14855 -0.92374,-0.51432 -0.45201,-0.35644 -0.81575,-0.93393 -0.42904,-0.68114 -0.54653,-1.39305 -0.12683,-0.72672 -0.0474,-1.35585 l 1.13374,0.0925 q -0.0482,0.5474 0.026,1.05912 0.0741,0.51172 0.37259,0.98556 0.42903,0.68115 0.94517,0.81105 0.50682,0.11509 0.92143,-0.14606 0.25173,-0.15855 0.36029,-0.41307 0.0937,-0.24519 0.10192,-0.56057 -0.007,-0.30605 -0.0654,-0.66201 -0.0829,-0.36143 -0.16029,-0.747 -0.0944,-0.47827 -0.17404,-0.96585 -0.0889,-0.5024 -0.0331,-0.97191 0.0411,-0.46019 0.27519,-0.87653 0.2248,-0.43114 0.72826,-0.74826 0.44422,-0.2798 0.94114,-0.3446 0.48759,-0.0796 0.99825,0.0744 0.50134,0.13923 0.98133,0.54009 0.48547,0.37672 0.88653,1.01344 0.48499,0.76999 0.642,1.64315 0.15702,0.87316 0.054,1.6619 l -1.19681,-0.0941 z" />
        <path
           id="path4192"
           style="stroke:#ffffff;stroke-opacity:1"
           d="m 378.40477,490.97543 q 0.23519,-0.68214 0.3,-1.32066 0.0588,-0.65496 -0.20544,-1.37819 -0.28827,-0.78899 -0.79403,-1.05136 -0.50575,-0.26237 -1.03174,-0.0702 -0.31231,0.11411 -0.48238,0.36256 -0.17006,0.24845 -0.23834,0.5715 -0.0907,0.31262 -0.10211,0.68941 -0.0114,0.37679 -0.0228,0.75358 0.008,0.48142 -0.0165,0.97485 -0.0411,0.49944 -0.17798,0.94071 -0.15932,0.43084 -0.44287,0.77665 -0.28354,0.34581 -0.79309,0.53198 -0.47668,0.17416 -0.95368,0.1435 -0.49943,-0.0411 -0.92142,-0.27818 -0.44443,-0.24752 -0.79498,-0.69701 -0.36698,-0.4435 -0.6012,-1.08455 -0.27626,-0.75611 -0.24148,-1.47681 0.0288,-0.73715 0.23867,-1.33552 l 1.08896,0.32876 q -0.16217,0.52504 -0.19726,1.04091 -0.0351,0.51587 0.15708,1.04186 0.27626,0.75612 0.75357,0.99162 0.4713,0.21906 0.93154,0.0509 0.27943,-0.10209 0.43907,-0.3281 0.14319,-0.22 0.21748,-0.52662 0.0579,-0.30061 0.0752,-0.66096 -0.005,-0.37078 3.3e-4,-0.76401 0.008,-0.48743 0.0329,-0.98086 0.0186,-0.50986 0.17197,-0.95714 0.13687,-0.44127 0.45329,-0.79909 0.31042,-0.37426 0.86928,-0.57845 0.49312,-0.18017 0.99256,-0.13907 0.49343,0.0247 0.9603,0.28261 0.46087,0.2415 0.84587,0.73431 0.39543,0.47036 0.65368,1.17716 0.31229,0.85473 0.28225,1.74139 -0.03,0.88666 -0.29653,1.63612 l -1.15028,-0.34361 z" />
        <path
           id="path4194"
           style="stroke:#ffffff;stroke-opacity:1"
           d="m 373.70481,484.5423 q -1.04915,0.19708 -1.91567,0.0393 -0.88695,-0.1717 -1.55467,-0.59826 -0.66773,-0.42656 -1.08935,-1.0596 -0.42485,-0.65025 -0.57024,-1.42421 -0.14538,-0.77396 0.0178,-1.51685 0.15992,-0.76009 0.62734,-1.39989 0.46742,-0.63979 1.23482,-1.10445 0.74698,-0.47863 1.79613,-0.67571 1.03195,-0.19385 1.9189,-0.0221 0.86651,0.15774 1.53424,0.5843 0.65053,0.42979 1.07538,1.08003 0.42162,0.63304 0.56701,1.40701 0.14538,0.77396 -0.0145,1.53405 -0.16315,0.74289 -0.61337,1.37945 -0.46742,0.63979 -1.2144,1.11843 -0.7674,0.46466 -1.79935,0.65851 z m -0.27462,-1.46193 q 0.72236,-0.1357 1.27483,-0.41753 0.55246,-0.28184 0.92429,-0.6722 0.35139,-0.40432 0.50818,-0.89673 0.13959,-0.48918 0.0394,-1.02236 -0.10015,-0.53317 -0.40774,-0.93835 -0.32479,-0.40195 -0.79573,-0.63399 -0.49136,-0.24602 -1.10844,-0.30816 -0.61708,-0.0622 -1.33945,0.0735 -0.72237,0.13569 -1.27483,0.41753 -0.56966,0.28507 -0.93826,0.69263 -0.37182,0.39035 -0.51141,0.87953 -0.15679,0.49241 -0.0566,1.02559 0.10015,0.53317 0.42494,0.93512 0.30759,0.40518 0.79896,0.65119 0.48813,0.22882 1.12241,0.28773 0.61708,0.0621 1.33945,-0.0736 z" />
        <path
           id="path4196"
           style="stroke:#ffffff;stroke-opacity:1"
           d="m 363.71384,469.41655 0.0932,-1.43197 3.38784,0.22046 1.53448,0.13494 q -0.46893,-0.60924 -0.75641,-1.31189 -0.30494,-0.70379 -0.25835,-1.41978 0.0534,-0.82076 0.40866,-1.42897 0.33778,-0.60936 0.94134,-0.99097 0.58723,-0.40021 1.40417,-0.55749 0.80061,-0.17588 1.77854,-0.11224 1.08271,0.0705 1.91908,0.42301 0.83637,0.35256 1.39716,0.89763 0.56079,0.54507 0.83194,1.22912 0.25369,0.68291 0.20596,1.41636 -0.0386,0.59375 -0.34264,1.22283 -0.32032,0.61049 -0.86311,1.13635 l -0.003,0.0524 0.83027,0.17679 -0.075,1.15256 -12.4337,-0.80913 z m 10.64087,-0.74557 q 0.52534,-0.527 0.77012,-1.05472 0.22846,-0.54632 0.25573,-0.96543 0.0341,-0.52389 -0.16451,-0.97524 -0.21494,-0.46995 -0.6136,-0.81156 -0.41498,-0.36021 -1.03229,-0.57575 -0.61617,-0.23301 -1.402,-0.28414 -0.69853,-0.0455 -1.28276,0.0393 -0.58424,0.0847 -1.00407,0.33801 -0.43616,0.23467 -0.69159,0.65647 -0.2543,0.40434 -0.29293,0.99809 -0.067,1.03032 1.00482,2.3452 l 4.45308,0.28979 z" />
        <path
           id="path4198"
           style="stroke:#ffffff;stroke-opacity:1"
           d="m 374.79747,460.67129 q -1.3586,-0.33796 -1.77191,-1.72115 -0.42608,-1.40439 -0.0557,-4.12547 -0.3906,-0.0972 -0.78533,-0.10519 -0.39051,-0.025 -0.72991,0.10696 -0.33517,0.11499 -0.58526,0.39541 -0.26708,0.2762 -0.39381,0.78567 -0.18166,0.73025 -0.0663,1.42619 0.11963,0.67896 0.33677,1.25594 l -1.10741,0.31962 q -0.22998,-0.67034 -0.36262,-1.58697 -0.14963,-0.92086 0.0996,-1.92282 0.37599,-1.51144 1.479,-1.95838 1.08604,-0.45118 2.63144,-0.0667 l 5.06076,1.25892 -0.28727,1.1548 -1.01455,-0.12614 -0.008,0.034 q 0.34463,0.7169 0.52806,1.5019 0.17066,0.76378 -0.0194,1.52799 -0.26193,1.05291 -1.0465,1.59711 -0.78035,0.52721 -1.90119,0.24839 z m 0.24029,-1.40092 q 0.71327,0.17743 1.12034,-0.15411 0.4113,-0.34852 0.56338,-0.95988 0.14786,-0.59439 0.007,-1.18844 -0.15351,-0.61525 -0.54909,-1.34482 l -2.29263,-0.57032 q -0.12184,1.06973 -0.11246,1.82946 0.009,0.75973 0.15427,1.26464 0.14912,0.48793 0.4423,0.75923 0.2762,0.26707 0.66679,0.36424 z" />
        <path
           id="path4200"
           style="stroke:#ffffff;stroke-opacity:1"
           d="m 377.6233,451.63644 q 0.63823,-0.33658 1.12236,-0.75792 0.49099,-0.43744 0.7931,-1.1457 0.32957,-0.77265 0.14022,-1.31002 -0.18934,-0.53738 -0.70444,-0.75709 -0.30584,-0.13046 -0.59986,-0.0656 -0.29401,0.0648 -0.56484,0.25373 -0.28005,0.16593 -0.54615,0.43293 -0.26609,0.26701 -0.53219,0.53402 -0.32339,0.35672 -0.67897,0.69972 -0.37168,0.33612 -0.77341,0.5643 -0.41097,0.20521 -0.85436,0.26342 -0.44339,0.0582 -0.94239,-0.15464 -0.46681,-0.19912 -0.7937,-0.54783 -0.33612,-0.37168 -0.48168,-0.8333 -0.15479,-0.48459 -0.10291,-1.05225 0.0358,-0.57453 0.30356,-1.2023 0.31583,-0.74046 0.83429,-1.24228 0.52532,-0.51792 1.0878,-0.81071 l 0.56926,0.98481 q -0.47749,0.27196 -0.85603,0.62419 -0.37855,0.35222 -0.59826,0.86732 -0.31584,0.74045 -0.12886,1.23877 0.19385,0.48222 0.64456,0.67447 0.27365,0.11672 0.5447,0.0611 0.25496,-0.0625 0.51891,-0.23527 0.24787,-0.17966 0.5071,-0.43057 0.24999,-0.27387 0.52295,-0.55698 0.33949,-0.34985 0.69507,-0.69284 0.36245,-0.35909 0.78028,-0.5804 0.40174,-0.22818 0.87732,-0.27266 0.48245,-0.0606 1.02974,0.17288 0.4829,0.20598 0.81903,0.57766 0.34299,0.35558 0.50701,0.86313 0.17088,0.49145 0.1145,1.11427 -0.0334,0.61358 -0.32865,1.30575 -0.35704,0.83703 -0.98558,1.46313 -0.62854,0.62609 -1.33566,0.99037 l -0.60382,-1.0376 z" />
        <path
           id="path4202"
           style="stroke:#ffffff;stroke-opacity:1"
           d="m 374.04005,439.82253 q -0.20751,0.36516 -0.58272,0.49412 -0.36656,0.11374 -0.7165,-0.0851 -0.36516,-0.2075 -0.43983,-0.57199 -0.0812,-0.38835 0.12627,-0.7535 0.2075,-0.36516 0.57407,-0.47891 0.35999,-0.13761 0.72515,0.0699 0.34994,0.19886 0.43118,0.58721 0.0899,0.37313 -0.11762,0.73829 z m 1.15836,1.50364 0.70898,-1.24763 7.39446,4.20203 -0.70899,1.24762 -7.39445,-4.20202 z" />
        <path
           id="path4204"
           style="stroke:#ffffff;stroke-opacity:1"
           d="m 380.99507,439.80425 q -0.85897,-0.63381 -1.32338,-1.38971 -0.47849,-0.76629 -0.61069,-1.55979 -0.13219,-0.79349 0.0648,-1.56155 0.20741,-0.78214 0.69576,-1.44397 0.49874,-0.67591 1.10548,-0.96766 0.60305,-0.31621 1.18669,-0.42927 l 0.32031,1.12804 q -0.49614,0.11237 -0.91449,0.32564 -0.40796,0.19919 -0.70928,0.60755 -0.34288,0.46469 -0.43668,1.00444 -0.10787,0.52936 0.0364,1.07075 0.14423,0.54139 0.51239,1.07404 0.36448,0.50817 0.9559,0.94457 0.59143,0.4364 1.18449,0.63477 0.59307,0.19838 1.14252,0.1906 0.54577,-0.0323 1.03384,-0.28108 0.47399,-0.2592 0.81688,-0.72389 0.36367,-0.49286 0.45746,-1.0326 0.0901,-0.56422 0.0371,-1.08183 l 1.14485,0.0401 q 0.0655,0.76602 -0.12115,1.51999 -0.17623,0.7399 -0.63341,1.35949 -0.49874,0.67591 -1.17453,1.09069 -0.67578,0.41479 -1.4485,0.51882 -0.7764,0.0796 -1.62526,-0.15532 -0.85255,-0.25936 -1.69744,-0.88279 z" />
      </g>
    </g>
    <g
       id="layer6"
       style="display:none">
      <a
         style="display:inline"
         id="a4846">
        <path
           id="path4801-3"
           d="m 70.740332,707.59771 c -9.996824,-31.22453 -46.421481,-50.17837 -77.709329,-40.31955 -31.826531,8.39945 -52.591692,44.17292 -44.01176,75.96673 7.047763,32.71896 43.0286619,55.12348 75.494823,46.92364 33.287721,-6.44781 56.405801,-42.87413 48.084603,-75.74206 -0.380473,-2.34119 -1.17627,-4.56598 -1.858386,-6.82875 z"
           style="display:inline;opacity:1;fill:none;fill-opacity:0.73658537;stroke:#58595b;stroke-width:5.90313864;stroke-linecap:round;stroke-linejoin:round;stroke-miterlimit:4;stroke-dasharray:none;stroke-dashoffset:0;stroke-opacity:1" />
      </a>
    </g>
    <g
       transform="matrix(-0.92718385,0.3746066,-0.3746066,-0.92718385,711.39562,1141.3034)"
       style="font-style:normal;font-variant:normal;font-weight:300;font-stretch:normal;font-size:12.5px;line-height:125%;font-family:'Source Sans Pro';-inkscape-font-specification:'Source Sans Pro, Light';text-align:start;letter-spacing:0px;word-spacing:0px;writing-mode:lr-tb;text-anchor:start;display:inline;fill:#ffffff;fill-opacity:1;stroke:none;stroke-width:1px;stroke-linecap:butt;stroke-linejoin:miter;stroke-opacity:1"
       id="text4825">
      <path
         d="m 70.710782,705.78746 2.039029,-0.79216 0.199172,0.51267 -8.121162,3.15506 -0.172012,-0.44276 0.680989,-0.31821 -0.01358,-0.0349 q -0.484677,-0.28106 -0.926604,-0.65919 -0.446453,-0.38978 -0.650151,-0.9141 -0.434556,-1.11856 0.128823,-1.98112 0.551727,-0.85803 1.856706,-1.36501 0.710747,-0.27613 1.346976,-0.29533 0.636229,-0.0192 1.168182,0.17644 0.515775,0.18852 0.902042,0.56145 0.370089,0.36581 0.560207,0.85518 0.153905,0.39615 0.14209,0.88351 -0.02347,0.49188 -0.1777,1.06139 l 1.036992,-0.40287 z m -1.526359,0.59299 q 0.206036,-0.64327 0.2062,-1.1261 1.64e-4,-0.48284 -0.126582,-0.80908 -0.162958,-0.41946 -0.489709,-0.70823 -0.326751,-0.28877 -0.764233,-0.41384 -0.437482,-0.12506 -0.957865,-0.0838 -0.536562,0.0341 -1.10749,0.25592 -0.51267,0.19917 -0.914691,0.47605 -0.406548,0.26522 -0.639662,0.59717 -0.244765,0.33648 -0.288267,0.74227 -0.05515,0.41032 0.130438,0.88804 0.162959,0.41946 0.584181,0.77881 0.405043,0.35223 1.046976,0.69289 l 3.320704,-1.29009 z"
         style="font-style:normal;font-variant:normal;font-weight:300;font-stretch:normal;font-size:12.5px;line-height:125%;font-family:'Source Sans Pro';-inkscape-font-specification:'Source Sans Pro, Light';text-align:start;writing-mode:lr-tb;text-anchor:start;fill:#ffffff"
         id="path4214" />
      <path
         d="m 60.968942,703.23301 q 0.09354,0.19081 0.0361,0.38602 -0.06294,0.18399 -0.253749,0.27752 -0.213256,0.10454 -0.386018,0.0361 -0.189488,-0.0742 -0.283022,-0.26498 -0.09354,-0.19081 -0.03059,-0.37479 0.04622,-0.18971 0.259471,-0.29425 0.190808,-0.0935 0.380296,-0.0194 0.183986,0.063 0.27752,0.25375 z m 1.428529,-0.38008 -0.242089,-0.49385 5.387512,-2.64097 0.242088,0.49385 -5.387511,2.64097 z"
         style="font-style:normal;font-variant:normal;font-weight:300;font-stretch:normal;font-size:12.5px;line-height:125%;font-family:'Source Sans Pro';-inkscape-font-specification:'Source Sans Pro, Light';text-align:start;writing-mode:lr-tb;text-anchor:start;fill:#ffffff"
         id="path4216" />
      <path
         d="m 66.681734,696.91015 1.877393,-1.12274 0.28229,0.47203 -7.477389,4.47172 -0.243795,-0.40766 0.618014,-0.42785 -0.01925,-0.0322 q -0.524931,-0.19584 -1.023989,-0.49454 -0.505473,-0.30943 -0.794178,-0.79219 -0.615905,-1.02988 -0.205084,-1.97467 0.400093,-0.93838 1.601625,-1.65693 0.654405,-0.39136 1.278414,-0.51694 0.624008,-0.12557 1.181229,-0.0219 0.540077,0.0994 0.983392,0.4023 0.426171,0.2986 0.695629,0.74917 0.218133,0.36475 0.288178,0.8472 0.05932,0.48885 0.0027,1.07615 l 0.954789,-0.57099 z m -1.405363,0.84045 q 0.09529,-0.6687 0.01452,-1.14473 -0.08077,-0.47603 -0.260412,-0.77641 -0.230964,-0.38621 -0.601497,-0.61612 -0.370534,-0.22992 -0.822789,-0.27988 -0.452256,-0.05 -0.958362,0.0779 -0.523251,0.12358 -1.048921,0.43795 -0.47203,0.28229 -0.821951,0.62264 -0.356338,0.32962 -0.53051,0.69594 -0.184901,0.37274 -0.159766,0.78009 0.01441,0.41376 0.27745,0.85361 0.230964,0.3862 0.706462,0.66987 0.458355,0.27935 1.148307,0.50758 l 3.057469,-1.82847 z"
         style="font-style:normal;font-variant:normal;font-weight:300;font-stretch:normal;font-size:12.5px;line-height:125%;font-family:'Source Sans Pro';-inkscape-font-specification:'Source Sans Pro, Light';text-align:start;writing-mode:lr-tb;text-anchor:start;fill:#ffffff"
         id="path4218" />
      <path
         d="m 60.808077,694.08175 q -0.588677,0.44426 -1.185631,0.62854 -0.604482,0.1743 -1.142129,0.1259 -0.555154,-0.0508 -1.003375,-0.29201 -0.465729,-0.24361 -0.76692,-0.64271 -0.647562,-0.85807 -0.437821,-1.7837 0.20974,-0.92563 1.267365,-1.72379 0.0898,-0.0678 0.179597,-0.13554 0.0898,-0.0678 0.194656,-0.11558 l 2.605306,3.45225 q 0.441462,-0.34882 0.732701,-0.77219 0.281261,-0.41584 0.387448,-0.85616 0.08868,-0.44277 -1.61e-4,-0.8925 -0.09882,-0.44221 -0.407541,-0.85129 -0.293661,-0.38913 -0.636838,-0.61561 -0.360684,-0.22892 -0.76354,-0.34772 l 0.203702,-0.43561 q 0.387982,0.16134 0.801189,0.39761 0.405676,0.22629 0.804755,0.75511 0.34637,0.45897 0.485472,0.99605 0.131573,0.52711 0.03818,1.06739 -0.103367,0.54782 -0.4268,1.07378 -0.340941,0.52352 -0.929619,0.96778 z m -2.932305,-3.28377 q -0.927916,0.70027 -1.100753,1.42579 -0.182815,0.73305 0.306621,1.38159 0.233424,0.3093 0.573966,0.49079 0.340543,0.18148 0.75319,0.23025 0.405118,0.0388 0.86728,-0.0751 0.444655,-0.11633 0.903811,-0.4002 l -2.304115,-3.05314 z"
         style="font-style:normal;font-variant:normal;font-weight:300;font-stretch:normal;font-size:12.5px;line-height:125%;font-family:'Source Sans Pro';-inkscape-font-specification:'Source Sans Pro, Light';text-align:start;writing-mode:lr-tb;text-anchor:start;fill:#ffffff"
         id="path4220" />
      <path
         d="m 52.388673,693.08046 -0.362478,-0.41365 6.214214,-5.44541 q 0.15042,-0.13181 0.176201,-0.25412 0.01638,-0.11408 -0.05776,-0.19869 -0.02472,-0.0282 -0.04943,-0.0564 -0.03295,-0.0376 -0.11766,-0.0963 l 0.272539,-0.37179 q 0.07647,0.0493 0.143538,0.10691 0.07647,0.0493 0.167089,0.15274 0.486049,0.55467 -0.228444,1.18077 l -6.157807,5.39598 z"
         style="font-style:normal;font-variant:normal;font-weight:300;font-stretch:normal;font-size:12.5px;line-height:125%;font-family:'Source Sans Pro';-inkscape-font-specification:'Source Sans Pro, Light';text-align:start;writing-mode:lr-tb;text-anchor:start;fill:#ffffff"
         id="path4222" />
      <path
         d="m 51.591388,689.92859 q 0.147291,0.15317 0.15215,0.3566 -0.0038,0.19442 -0.156977,0.34171 -0.171192,0.16462 -0.356599,0.15215 -0.203082,-0.0128 -0.350373,-0.16599 -0.147291,-0.15317 -0.143486,-0.34759 -0.01387,-0.19476 0.157323,-0.35938 0.153172,-0.14729 0.356253,-0.13447 0.194418,0.004 0.341709,0.15697 z m 1.244448,-0.79781 -0.381224,-0.39644 4.32485,-4.15881 0.381224,0.39644 -4.32485,4.15881 z"
         style="font-style:normal;font-variant:normal;font-weight:300;font-stretch:normal;font-size:12.5px;line-height:125%;font-family:'Source Sans Pro';-inkscape-font-specification:'Source Sans Pro, Light';text-align:start;writing-mode:lr-tb;text-anchor:start;fill:#ffffff"
         id="path4224" />
      <path
         d="m 51.163095,687.39079 -0.353696,-0.31705 0.580195,-0.72215 -0.02792,-0.025 q -0.6531,0.0357 -1.216349,-0.0663 -0.571593,-0.0927 -1.036981,-0.50989 -0.698083,-0.62576 -0.648394,-1.33664 0.04969,-0.71087 0.833987,-1.5858 l 2.569823,-2.8668 0.409542,0.36712 -2.519762,2.81095 q -0.642456,0.71669 -0.700823,1.26871 -0.07602,0.55297 0.47314,1.04525 0.400234,0.35877 0.917909,0.43672 0.509331,0.0872 1.294334,0.0355 l 3.020377,-3.36941 0.409542,0.36711 -4.00492,4.46773 z"
         style="font-style:normal;font-variant:normal;font-weight:300;font-stretch:normal;font-size:12.5px;line-height:125%;font-family:'Source Sans Pro';-inkscape-font-specification:'Source Sans Pro, Light';text-align:start;writing-mode:lr-tb;text-anchor:start;fill:#ffffff"
         id="path4226" />
      <path
         d="m 48.772065,681.28987 q -0.43683,0.59421 -0.956026,0.9417 -0.529268,0.34009 -1.058262,0.44766 -0.546469,0.11023 -1.044976,0.008 -0.515982,-0.10006 -0.918836,-0.39622 -0.866137,-0.63673 -0.930208,-1.58366 -0.06407,-0.94693 0.720743,-2.01449 0.06663,-0.0906 0.13327,-0.18129 0.06663,-0.0906 0.153413,-0.16648 l 3.484691,2.56175 q 0.323104,-0.46061 0.480928,-0.94965 0.15042,-0.47896 0.126088,-0.93125 -0.04181,-0.44962 -0.2557,-0.85509 -0.221296,-0.3954 -0.634222,-0.69896 -0.392783,-0.28875 -0.786438,-0.40748 -0.41113,-0.11607 -0.831135,-0.11455 l 0.07045,-0.4757 q 0.417936,0.0435 0.881492,0.15157 0.453485,0.10066 0.987267,0.49307 0.463282,0.34058 0.750342,0.81535 0.276988,0.46737 0.342204,1.01177 0.05781,0.55447 -0.101483,1.15102 -0.17677,0.59922 -0.6136,1.19343 z m -3.74976,-2.30669 q -0.688563,0.93663 -0.64643,1.68126 0.03473,0.75471 0.689367,1.23596 0.312212,0.22952 0.690461,0.3059 0.378248,0.0764 0.787583,0.005 0.399264,-0.0788 0.80947,-0.32027 0.392732,-0.23877 0.751385,-0.64222 l -3.081836,-2.26559 z"
         style="font-style:normal;font-variant:normal;font-weight:300;font-stretch:normal;font-size:12.5px;line-height:125%;font-family:'Source Sans Pro';-inkscape-font-specification:'Source Sans Pro, Light';text-align:start;writing-mode:lr-tb;text-anchor:start;fill:#ffffff"
         id="path4228" />
      <path
         d="m 42.669491,675.26633 q -0.4774,0.86444 -1.551873,0.87078 -1.074472,0.006 -2.933998,-0.76358 -0.174104,0.28939 -0.282556,0.61505 -0.125436,0.33055 -0.110092,0.6389 -0.0016,0.31324 0.17147,0.59448 0.156126,0.28614 0.539102,0.49764 0.536168,0.29611 1.088673,0.32993 0.552506,0.0338 0.923893,-0.0181 l 0.01942,0.48195 q -0.196636,0.0199 -0.460069,0.0315 -0.274376,0.006 -0.569491,-0.0289 -0.306058,-0.0405 -0.637755,-0.13802 -0.337741,-0.0866 -0.655065,-0.26182 -0.470514,-0.25985 -0.697192,-0.59923 -0.23272,-0.32844 -0.278604,-0.71077 -0.04588,-0.38233 0.08299,-0.79666 0.111884,-0.40944 0.347562,-0.83619 l 1.855217,-3.35925 0.404861,0.22359 -0.319958,0.70864 0.02188,0.0121 q 0.580109,-0.0937 1.189614,-0.0856 0.592519,0.0131 1.117744,0.30315 0.317324,0.17525 0.542534,0.41386 0.22521,0.23861 0.347366,0.53455 0.111212,0.28989 0.0805,0.62992 -0.03071,0.34003 -0.236176,0.71206 z m -0.515426,-0.25609 q 0.314238,-0.569 0.118919,-0.99102 -0.195318,-0.42202 -0.643948,-0.66978 -0.459572,-0.25381 -0.996236,-0.2646 -0.536665,-0.0108 -1.258699,0.13307 l -0.985017,1.78358 q 0.864109,0.34871 1.500721,0.51465 0.625669,0.15991 1.073652,0.15028 0.447983,-0.01 0.740164,-0.17669 0.281238,-0.17311 0.450444,-0.47949 z"
         style="font-style:normal;font-variant:normal;font-weight:300;font-stretch:normal;font-size:12.5px;line-height:125%;font-family:'Source Sans Pro';-inkscape-font-specification:'Source Sans Pro, Light';text-align:start;writing-mode:lr-tb;text-anchor:start;fill:#ffffff"
         id="path4230" />
      <path
         d="m 35.165526,675.86338 0.852568,0.38991 -0.176761,0.3865 -0.884732,-0.34964 -0.790846,1.5489 -0.431968,-0.19756 0.722641,-1.58009 -1.580094,-0.72264 0.197557,-0.43197 1.580093,0.72264 1.627243,-3.55805 q 0.119573,-0.26146 0.184249,-0.49304 0.04811,-0.22541 0.01858,-0.43135 -0.03472,-0.19456 -0.163646,-0.36349 -0.145489,-0.16275 -0.429679,-0.29272 -0.159146,-0.0728 -0.361823,-0.1105 -0.219243,-0.0315 -0.398215,-0.0309 l 0.05075,-0.47162 q 0.28031,0.0182 0.545024,0.0706 0.264713,0.0523 0.435227,0.13032 0.397865,0.18196 0.602132,0.42658 0.209466,0.23325 0.269834,0.52202 0.06037,0.28877 -0.0118,0.62688 -0.08353,0.33292 -0.249895,0.69669 l -1.606446,3.51258 z"
         style="font-style:normal;font-variant:normal;font-weight:300;font-stretch:normal;font-size:12.5px;line-height:125%;font-family:'Source Sans Pro';-inkscape-font-specification:'Source Sans Pro, Light';text-align:start;writing-mode:lr-tb;text-anchor:start;fill:#ffffff"
         id="path4232" />
      <path
         d="m 29.741628,673.62266 0.885778,0.30709 -0.139215,0.40156 -0.913966,-0.26395 -0.640003,1.61708 -0.448794,-0.1556 0.569141,-1.64164 -1.64164,-0.56914 0.155592,-0.44879 1.641641,0.56914 1.281591,-3.69665 q 0.09417,-0.27163 0.13654,-0.50832 0.02646,-0.22896 -0.02251,-0.43116 -0.05307,-0.19038 -0.197464,-0.34628 -0.160304,-0.14819 -0.455563,-0.25055 -0.165345,-0.0573 -0.370689,-0.0756 -0.221249,-0.0106 -0.399351,0.007 l 0.0057,-0.47431 q 0.280774,-0.008 0.549264,0.0184 0.268491,0.0269 0.445646,0.0883 0.413363,0.14331 0.639962,0.3674 0.230693,0.21228 0.318241,0.494 0.08755,0.28172 0.04786,0.62517 -0.0515,0.33935 -0.182526,0.71728 l -1.265214,3.6494 z"
         style="font-style:normal;font-variant:normal;font-weight:300;font-stretch:normal;font-size:12.5px;line-height:125%;font-family:'Source Sans Pro';-inkscape-font-specification:'Source Sans Pro, Light';text-align:start;writing-mode:lr-tb;text-anchor:start;fill:#ffffff"
         id="path4234" />
      <path
         d="m 27.809777,670.26466 q -0.188759,0.71293 -0.544548,1.22648 -0.367873,0.51034 -0.820676,0.80424 -0.468086,0.30278 -0.969569,0.38983 -0.516766,0.0959 -1.000112,-0.032 -1.039193,-0.27514 -1.445733,-1.13276 -0.406539,-0.85762 -0.06741,-2.13848 0.02879,-0.10876 0.05759,-0.21751 0.02879,-0.10875 0.08176,-0.21111 l 4.180941,1.10696 q 0.131885,-0.54696 0.09957,-1.05982 -0.03551,-0.50077 -0.223857,-0.91269 -0.203627,-0.40304 -0.551198,-0.70196 -0.350771,-0.28683 -0.8462,-0.418 -0.471263,-0.12477 -0.881048,-0.091 -0.425068,0.0426 -0.815313,0.19792 l -0.108729,-0.46843 q 0.404814,-0.11265 0.875731,-0.18193 0.458833,-0.0725 1.099267,0.0971 0.555847,0.14717 0.996889,0.48376 0.428957,0.33339 0.689089,0.81605 0.256933,0.49474 0.32727,1.10817 0.05505,0.62232 -0.133703,1.33526 z m -4.334139,-0.77253 q -0.297535,1.12378 0.01448,1.8012 0.308811,0.6895 1.094248,0.89746 0.374593,0.0992 0.754526,0.0317 0.379933,-0.0675 0.73464,-0.28393 0.342623,-0.21962 0.635853,-0.59456 0.277948,-0.36606 0.463852,-0.87286 l -3.697595,-0.97898 z"
         style="font-style:normal;font-variant:normal;font-weight:300;font-stretch:normal;font-size:12.5px;line-height:125%;font-family:'Source Sans Pro';-inkscape-font-specification:'Source Sans Pro, Light';text-align:start;writing-mode:lr-tb;text-anchor:start;fill:#ffffff"
         id="path4236" />
      <path
         d="m 21.280802,671.72183 -0.468935,-0.0757 0.09798,-0.92115 -0.03702,-0.006 q -0.530267,0.38292 -1.059329,0.60144 -0.531054,0.23086 -1.148074,0.1313 -0.92553,-0.14934 -1.267842,-0.77435 -0.342313,-0.625 -0.155145,-1.785 l 0.613272,-3.80084 0.542977,0.0876 -0.601325,3.7268 q -0.153318,0.95021 0.09585,1.44623 0.234838,0.50637 0.962921,0.62385 0.530637,0.0856 1.008347,-0.12852 0.475719,-0.2018 1.108298,-0.6695 l 0.720793,-4.46723 0.542978,0.0876 -0.955748,5.92339 z"
         style="font-style:normal;font-variant:normal;font-weight:300;font-stretch:normal;font-size:12.5px;line-height:125%;font-family:'Source Sans Pro';-inkscape-font-specification:'Source Sans Pro, Light';text-align:start;writing-mode:lr-tb;text-anchor:start;fill:#ffffff"
         id="path4238" />
      <path
         d="m 15.343835,670.8507 -0.474334,-0.0252 -9.32e-4,-0.92635 -0.03745,-0.002 q -0.48635,0.43735 -0.989056,0.7111 -0.503369,0.28624 -1.127492,0.25314 -0.936184,-0.0497 -1.343273,-0.63455 -0.40709,-0.58488 -0.34485,-1.75823 l 0.203937,-3.8446 0.549228,0.0291 -0.199964,3.7697 q -0.05098,0.96115 0.249723,1.42774 0.287562,0.4784 1.024027,0.51747 0.536745,0.0285 0.98886,-0.23545 0.451452,-0.25144 1.030476,-0.78402 l 0.239692,-4.51865 0.549228,0.0291 -0.317823,5.99157 z"
         style="font-style:normal;font-variant:normal;font-weight:300;font-stretch:normal;font-size:12.5px;line-height:125%;font-family:'Source Sans Pro';-inkscape-font-specification:'Source Sans Pro, Light';text-align:start;writing-mode:lr-tb;text-anchor:start;fill:#ffffff"
         id="path4240" />
      <path
         d="m 9.6811448,667.59909 q 0.038867,0.73647 -0.1423758,1.33435 -0.1937254,0.59854 -0.5346413,1.01709 -0.3527397,0.43169 -0.803398,0.66827 -0.4624821,0.24972 -0.9617873,0.27607 -1.0735061,0.0567 -1.7233632,-0.63506 -0.6498571,-0.69171 -0.719686,-2.01487 -0.00593,-0.11234 -0.011858,-0.22469 -0.00593,-0.11234 0.013108,-0.226 l 4.3189897,-0.22793 Q 9.0740059,667.00526 8.88604,666.527 q -0.1873072,-0.46578 -0.492853,-0.80014 -0.3173697,-0.32122 -0.7398367,-0.4992 -0.4218082,-0.1655 -0.933596,-0.13849 -0.4868225,0.0257 -0.8665376,0.18342 -0.391539,0.17087 -0.7153947,0.43831 l -0.2470853,-0.41255 q 0.3507973,-0.23131 0.7778079,-0.44161 0.4145279,-0.20963 1.0761073,-0.24455 0.5742009,-0.0303 1.0971877,0.15489 0.5105041,0.18586 0.9060634,0.56554 0.396218,0.39216 0.6512085,0.95451 0.2431665,0.57548 0.2820335,1.31196 z m -4.3622987,0.59322 q 0.061265,1.16088 0.565908,1.71005 0.5053018,0.56165 1.3166727,0.51883 0.3869615,-0.0204 0.7279112,-0.20114 0.3409497,-0.18072 0.6122398,-0.49545 0.2588076,-0.31408 0.4229903,-0.76085 0.1523588,-0.43364 0.1739626,-0.97302 l -3.8196846,0.20158 z"
         style="font-style:normal;font-variant:normal;font-weight:300;font-stretch:normal;font-size:12.5px;line-height:125%;font-family:'Source Sans Pro';-inkscape-font-specification:'Source Sans Pro, Light';text-align:start;writing-mode:lr-tb;text-anchor:start;fill:#ffffff"
         id="path4242" />
      <path
         d="m 3.5923717,666.10362 q -0.4312283,-0.26424 -0.8971479,-0.42219 -0.4640744,-0.1456 -1.1069542,-0.0496 -0.70469509,0.10517 -0.99919787,0.503 -0.30502074,0.41204 -0.23490635,0.88183 0.0405925,0.27199 0.2079533,0.46187 0.15499768,0.19172 0.38731129,0.30871 0.23231363,0.11699 0.50854413,0.18951 0.2638675,0.0744 0.5382529,0.13452 0.3522541,0.0738 0.7187164,0.15815 0.3540992,0.0862 0.6537636,0.23102 0.3015094,0.15722 0.5133398,0.39101 0.2013125,0.248 0.2585111,0.63126 0.047973,0.32144 -0.03322,0.62424 -0.079348,0.31517 -0.2952424,0.56224 -0.2140494,0.25944 -0.5417642,0.43473 -0.340078,0.17714 -0.8098747,0.24726 -0.4697967,0.0701 -0.9406989,-0.0365 -0.4832653,-0.10481 -0.84529773,-0.32883 l 0.23951515,-0.42753 q 0.32992578,0.17825 0.68587018,0.27679 0.3577894,0.1109 0.8152231,0.0426 0.346166,-0.0517 0.5786665,-0.18747 0.2343456,-0.12344 0.3852872,-0.29763 0.1385786,-0.17235 0.1955983,-0.38307 0.044657,-0.20888 0.015135,-0.40669 -0.038747,-0.25963 -0.1776918,-0.42847 -0.1494624,-0.15463 -0.3675678,-0.2611 -0.2181054,-0.10647 -0.4819729,-0.18084 -0.2743854,-0.0602 -0.5487708,-0.12031 -0.3664623,-0.0843 -0.7329246,-0.16866 -0.3664623,-0.0843 -0.66797174,-0.24155 -0.3138725,-0.15537 -0.53123828,-0.42625 -0.21552066,-0.25852 -0.28009971,-0.69123 -0.0498181,-0.3338 0.0400478,-0.66317 0.07934795,-0.31517 0.30391526,-0.58882 0.22641244,-0.26128 0.57700833,-0.45263 0.35059584,-0.19134 0.83275564,-0.2633 0.6676059,-0.0996 1.2590014,0.0522 0.5932405,0.16423 1.0386769,0.43899 l -0.260551,0.45595 z"
         style="font-style:normal;font-variant:normal;font-weight:300;font-stretch:normal;font-size:12.5px;line-height:125%;font-family:'Source Sans Pro';-inkscape-font-specification:'Source Sans Pro, Light';text-align:start;writing-mode:lr-tb;text-anchor:start;fill:#ffffff"
         id="path4244" />
      <path
         d="m -1.3020769,666.89402 q -0.45304,-0.2248 -0.9311717,-0.34065 -0.4751932,-0.10371 -1.1069788,0.0491 -0.6925342,0.16749 -0.9504509,0.58996 -0.2671281,0.43755 -0.1554686,0.89924 0.064645,0.2673 0.2482449,0.44152 0.1714502,0.17716 0.4132564,0.27301 0.2418062,0.0958 0.5233961,0.14348 0.2694401,0.0506 0.5480915,0.0861 0.3574266,0.0422 0.7299413,0.0935 0.360365,0.0543 0.6717351,0.17191 0.3143084,0.12975 0.54611111,0.34376 0.22259139,0.22909 0.31368207,0.60574 0.0763986,0.31589 0.0224848,0.62472 -0.0509754,0.32097 -0.24401689,0.58629 -0.19010308,0.27746 -0.50091119,0.48123 -0.3229579,0.20671 -0.7846473,0.31837 -0.4616895,0.11166 -0.9402172,0.0473 -0.4906774,-0.0614 -0.8712152,-0.25227 l 0.2005026,-0.44716 q 0.3444847,0.14817 0.7077881,0.21463 0.3662419,0.0786 0.8157816,-0.0301 0.3401922,-0.0823 0.5596794,-0.23824 0.2224256,-0.14382 0.3572608,-0.33075 0.1226855,-0.184 0.16071894,-0.39896 0.0258838,-0.21203 -0.0211308,-0.40643 -0.0617066,-0.25514 -0.21513024,-0.41094 -0.162635,-0.14071 -0.389353,-0.22734 -0.2267181,-0.0866 -0.4961582,-0.13722 -0.2786515,-0.0355 -0.5573029,-0.071 -0.3725147,-0.0514 -0.7450294,-0.10274 -0.3725148,-0.0514 -0.6868232,-0.18112 -0.3264582,-0.12682 -0.5670761,-0.37727 -0.2376795,-0.23831 -0.3405238,-0.66355 -0.079337,-0.32804 -0.01915,-0.66411 0.050975,-0.32097 0.2502898,-0.61352 0.2022528,-0.28041 0.534422,-0.50221 0.3321692,-0.22179 0.8060083,-0.33639 0.656085,-0.15868 1.2586523,-0.0601 0.6055057,0.11077 1.0736339,0.34478 l -0.2189253,0.47734 z"
         style="font-style:normal;font-variant:normal;font-weight:300;font-stretch:normal;font-size:12.5px;line-height:125%;font-family:'Source Sans Pro';-inkscape-font-specification:'Source Sans Pro, Light';text-align:start;writing-mode:lr-tb;text-anchor:start;fill:#ffffff"
         id="path4246" />
      <path
         d="m -5.5059346,669.90657 q 0.2174369,0.70472 0.1875949,1.32876 -0.041786,0.62772 -0.2702412,1.11682 -0.236714,0.50472 -0.6160045,0.84414 -0.3875495,0.35504 -0.8653244,0.50245 -1.0272161,0.31694 -1.8262419,-0.19525 -0.7990257,-0.51219 -1.1896753,-1.77829 -0.03317,-0.1075 -0.06634,-0.215 -0.03317,-0.1075 -0.04245,-0.22237 l 4.1327528,-1.27514 q -0.1777861,-0.53381 -0.4767924,-0.95173 -0.2953209,-0.40597 -0.6732318,-0.65565 -0.38617,-0.23405 -0.8393002,-0.30355 -0.4494449,-0.0575 -0.9391642,0.0936 -0.4658305,0.14373 -0.795567,0.38936 -0.3379952,0.26126 -0.5867862,0.59966 l -0.340301,-0.33978 q 0.283735,-0.30993 0.646508,-0.61808 0.3508279,-0.30447 0.9838796,-0.49979 0.5494412,-0.16953 1.1018118,-0.11757 0.5404262,0.0556 1.0166892,0.32729 0.4799485,0.28361 0.8644742,0.76671 0.3762668,0.49874 0.5937036,1.20345 z m -4.0855992,1.63996 q 0.3427395,1.11082 0.9661527,1.52022 0.6270986,0.42134 1.4034828,0.18179 0.3702756,-0.11424 0.6568082,-0.37271 0.2865326,-0.25847 0.4728043,-0.6299 0.1743273,-0.36774 0.224505,-0.84107 0.041919,-0.45771 -0.068775,-0.98606 l -3.6549782,1.12773 z"
         style="font-style:normal;font-variant:normal;font-weight:300;font-stretch:normal;font-size:12.5px;line-height:125%;font-family:'Source Sans Pro';-inkscape-font-specification:'Source Sans Pro, Light';text-align:start;writing-mode:lr-tb;text-anchor:start;fill:#ffffff"
         id="path4248" />
      <path
         d="m -10.987445,671.61977 q 0.284765,0.6803 0.315593,1.30429 0.0193,0.62882 -0.160642,1.13777 -0.186642,0.5253 -0.531223,0.8999 -0.351284,0.39096 -0.812508,0.58402 -0.991631,0.41509 -1.836569,-0.0172 -0.844938,-0.43227 -1.356551,-1.65452 -0.04344,-0.10377 -0.08688,-0.20755 -0.04344,-0.10377 -0.06382,-0.2172 l 3.989584,-1.66998 q -0.228724,-0.51405 -0.566857,-0.901 -0.333306,-0.37542 -0.733653,-0.58726 -0.407051,-0.19549 -0.864785,-0.22071 -0.452907,-0.0137 -0.925662,0.18421 -0.449693,0.18823 -0.754049,0.46469 -0.31106,0.29282 -0.525856,0.65375 l -0.371653,-0.30516 q 0.252336,-0.33599 0.583509,-0.67788 0.319642,-0.33706 0.930763,-0.59287 0.530408,-0.22202 1.085213,-0.22389 0.543275,0.003 1.043642,0.22714 0.505193,0.23572 0.934765,0.67925 0.422867,0.45988 0.707633,1.14019 z m -3.907268,2.0285 q 0.448868,1.07234 1.109051,1.41934 0.66501,0.35853 1.414498,0.0448 0.357448,-0.14963 0.61756,-0.43467 0.260111,-0.28504 0.409478,-0.67278 0.137836,-0.38292 0.141866,-0.85889 -0.0027,-0.45961 -0.164092,-0.97473 l -3.528361,1.47692 z"
         style="font-style:normal;font-variant:normal;font-weight:300;font-stretch:normal;font-size:12.5px;line-height:125%;font-family:'Source Sans Pro';-inkscape-font-specification:'Source Sans Pro, Light';text-align:start;writing-mode:lr-tb;text-anchor:start;fill:#ffffff"
         id="path4250" />
    </g>
    <g
       id="layer3"
       style="display:inline">
      <g
         style="display:inline;stroke:#ffffff;stroke-width:7.82612038;stroke-miterlimit:4;stroke-dasharray:none"
         id="g4771"
         transform="matrix(0.186538,0,0,0.186538,367.68529,367.21773)">
        <ellipse
           ry="37.07122"
           rx="169.01343"
           cy="741.11261"
           cx="323.21823"
           id="path4138-3"
           style="opacity:1;fill:#1e97a8;fill-opacity:1;stroke:#ffffff;stroke-width:7.82612038;stroke-linecap:round;stroke-linejoin:round;stroke-miterlimit:4;stroke-dasharray:none;stroke-dashoffset:0;stroke-opacity:1" />
        <path
           id="path4136"
           d="m 222.85714,332.00506 c 7.10414,34.69549 11.30839,57.43916 7.45975,100.61712 -10.30672,109.25996 -82.74415,196.62631 -77.45975,302.59717 -1.13636,35.32981 120.31357,43.47817 173.43765,43.59246 56.12584,0.12075 167.61397,-7.34932 166.56235,-43.59246 1.30735,-99.26084 -75.44627,-209.89527 -85,-305.71429 -1.31457,-24.2522 4.83935,-68.93043 10.18255,-95.39611 -29.77346,11.37748 -69.09411,16.08894 -99.32863,16.08943 -32.87303,5.4e-4 -72.98694,-4.18275 -95.85392,-18.19332 z"
           style="fill:none;fill-rule:evenodd;stroke:#ffffff;stroke-width:7.82612038;stroke-linecap:butt;stroke-linejoin:miter;stroke-miterlimit:4;stroke-dasharray:none;stroke-opacity:1" />
        <ellipse
           cx="320.8175"
           cy="327.51648"
           rx="99.433357"
           ry="22.506395"
           id="path4138"
           style="opacity:1;fill:none;fill-opacity:1;stroke:#ffffff;stroke-width:7.82612038;stroke-linecap:round;stroke-linejoin:round;stroke-miterlimit:4;stroke-dasharray:none;stroke-dashoffset:0;stroke-opacity:1" />
        <path
           id="path4136-7"
           d="m 230.28047,432.49784 c -10.30672,109.25996 -84.00684,196.12123 -78.72244,302.09209 -1.13636,35.32981 120.31357,43.47817 173.43765,43.59246 56.12584,0.12075 167.61397,-7.34932 166.56235,-43.59246 1.30735,-99.26084 -75.44627,-209.89527 -85,-305.71429 -33.06074,33.79728 -131.99392,31.33006 -176.27756,3.6222 z"
           style="fill:#2197a9;fill-opacity:0.73658537;fill-rule:evenodd;stroke:#ffffff;stroke-width:7.82612038;stroke-linecap:butt;stroke-linejoin:miter;stroke-miterlimit:4;stroke-dasharray:none;stroke-opacity:1" />
        <ellipse
           ry="28.721874"
           rx="88.320877"
           cy="424.04733"
           cx="318.70316"
           id="path4138-4"
           style="opacity:1;fill:#2197a9;fill-opacity:1;stroke:#ffffff;stroke-width:7.82612038;stroke-linecap:round;stroke-linejoin:round;stroke-miterlimit:4;stroke-dasharray:none;stroke-dashoffset:0;stroke-opacity:1" />
      </g>
    </g>
    <g
       id="layer12">
      <g
         id="text4161"
         style="font-style:normal;font-variant:normal;font-weight:300;font-stretch:normal;font-size:17.5px;line-height:125%;font-family:'Source Sans Pro';-inkscape-font-specification:'Source Sans Pro, Light';text-align:start;letter-spacing:0px;word-spacing:0px;writing-mode:lr-tb;text-anchor:start;display:inline;fill:#ffffff;fill-opacity:1;stroke:#ffffff;stroke-width:1px;stroke-linecap:butt;stroke-linejoin:miter;stroke-opacity:1">
        <path
           id="path4207"
           style=""
           d="m 420.99013,492.99839 q -1.0325,0 -1.9075,-0.42 -0.875,-0.4375 -1.505,-1.225 -0.63,-0.7875 -0.98,-1.89 -0.35,-1.12 -0.35,-2.485 0,-1.365 0.35,-2.45 0.35,-1.1025 0.98,-1.8725 0.63,-0.7875 1.505,-1.19 0.875,-0.42 1.9075,-0.42 1.05,0 1.925,0.42 0.875,0.4025 1.505,1.19 0.63,0.77 0.98,1.8725 0.35,1.085 0.35,2.45 0,1.365 -0.35,2.485 -0.35,1.1025 -0.98,1.89 -0.63,0.7875 -1.505,1.225 -0.875,0.42 -1.925,0.42 z m 0,-0.735 q 0.875,0 1.5925,-0.3675 0.7175,-0.385 1.225,-1.0675 0.525,-0.7 0.805,-1.6625 0.28,-0.98 0.28,-2.1875 0,-1.19 -0.28,-2.1525 -0.28,-0.9625 -0.805,-1.6275 -0.5075,-0.6825 -1.225,-1.05 -0.7175,-0.3675 -1.5925,-0.3675 -0.875,0 -1.61,0.3675 -0.7175,0.3675 -1.225,1.05 -0.5075,0.665 -0.7875,1.6275 -0.28,0.9625 -0.28,2.1525 0,1.2075 0.28,2.1875 0.28,0.9625 0.7875,1.6625 0.5075,0.6825 1.225,1.0675 0.735,0.3675 1.61,0.3675 z" />
        <path
           id="path4209"
           style=""
           d="m 428.39864,481.25589 0.805,0 0,5.0575 6.1775,0 0,-5.0575 0.805,0 0,11.5325 -0.805,0 0,-5.775 -6.1775,0 0,5.775 -0.805,0 0,-11.5325 z" />
        <path
           id="path4211"
           style="font-style:normal;font-variant:normal;font-weight:300;font-stretch:normal;font-size:17.5px;line-height:125%;font-family:'Source Sans Pro';-inkscape-font-specification:'Source Sans Pro, Light';text-align:start;writing-mode:lr-tb;baseline-shift:super;text-anchor:start;fill:#ffffff;stroke:#ffffff"
           d="m 438.5779,481.08089 3.85,0 0,0.6825 -3.85,0 0,-0.6825 z" />
      </g>
    </g>
    <g
       id="layer7" />
  </g>
</svg>
