<svg xmlns="http://www.w3.org/2000/svg" width="3in" height="3in" viewBox="0 0 270 270"><circle cx="427.765" cy="470.318" r="67.5" opacity=".98" fill="#58595b" transform="translate(-292.765 -335.318)"/><g fill="#fff" transform="translate(-292.765 -335.318)"><circle cx="427.765" cy="470.318" r="51.513" fill-opacity=".737" stroke="#2197a9" stroke-width="4.974" stroke-linecap="round" stroke-linejoin="round"/><g style="line-height:125%;-inkscape-font-specification:'Source Sans Pro, Normal';text-align:start" font-weight="400" font-size="17.5" font-family="Source Sans Pro" letter-spacing="0" word-spacing="0" stroke="#fff"><path d="M490.78 472.915l-.586 6.59-1.22-.11.457-5.142-3.591-.319-.386 4.34-1.238-.11.386-4.34-4.149-.368-.472 5.316-1.238-.11.601-6.763 11.435 1.016zM482.542 481.483q.994.278 1.706.785.725.53 1.145 1.174.42.644.544 1.369.125.725-.073 1.433-.197.708-.6 1.177-.387.473-1.031.893l-.01.034.738.351-.31 1.113-11.648-3.25.39-1.4 2.917.814 1.43.472q-.318-.616-.476-1.35-.146-.714.051-1.422.433-1.55 1.804-2.167 1.367-.6 3.423-.026zm-.383 1.438q-1.484-.414-2.474-.055-.99.36-1.292 1.438-.16.574-.031 1.155.145.585.577 1.25l4.281 1.196q.618-.391.94-.828.334-.416.475-.921.137-.49.023-.993-.102-.483-.434-.92-.315-.434-.836-.78-.522-.345-1.23-.542zM483.118 493.809l-.644 1.302-4.658-2.305q-1.083-.536-1.732-.447-.641.112-1.014.865-.294.596-.221 1.199.088.61.491 1.492l5.411 2.678-.636 1.286-7.623-3.772.528-1.066 1.246.48.024-.047q-.364-.844-.446-1.626-.089-.767.307-1.567.605-1.223 1.637-1.416 1.025-.176 2.5.553l4.83 2.39zM472.977 499.544q1.124.835.973 2.271-.148 1.46-1.537 3.83.323.24.684.398.351.174.715.183.354.023.693-.14.353-.152.666-.573.448-.605.61-1.291.15-.673.172-1.29l1.145.132q-.045.707-.276 1.605-.216.907-.832 1.736-.929 1.25-2.119 1.238-1.176-.002-2.454-.951l-4.186-3.11.71-.956.887.507.021-.028q-.042-.794.09-1.59.137-.77.607-1.402.647-.87 1.58-1.071.924-.186 1.85.502zm-.761 1.201q-.59-.438-1.094-.29-.513.164-.889.67-.365.492-.464 1.094-.095.627-.01 1.453l1.896 1.409q.524-.94.808-1.646.283-.704.344-1.226.05-.508-.116-.871-.152-.353-.475-.593zM474.314 514.21l-.998 1.031-7.8-7.542q-.25-.244-.436-.253-.186-.009-.296.104l-.085.088q-.049.05-.109.163l-.913-.616q.047-.15.155-.312.109-.163.316-.377.572-.59 1.167-.502.596.09 1.275.746l7.724 7.47zM468.344 516.888q.317-.276.713-.274.384.014.649.317.276.317.226.686-.052.393-.368.669-.317.276-.7.262-.386.011-.662-.305-.264-.303-.213-.697.039-.382.355-.658zm-.596-1.802l-1.082.944-5.591-6.41 1.081-.942 5.592 6.408zM462.897 517.547l1.027-.73.629.883-1.033.843 1.238 2.04-.984.7-1.38-1.938-1.868 1.33-.68-.956 1.868-1.33-2.74-3.849q-.457-.642-.939-.836-.486-.17-1.084.257-.186.132-.359.341-.173.21-.294.402l-.857-.721q.214-.303.506-.618.267-.319.595-.552.556-.396 1.062-.499.493-.093.948.034.442.137.846.494.404.357.77.87l2.73 3.835zM453.381 512.42q-.14.034-.311.084-.18.034-.32.107-.65.34-.81 1.017-.184.669-.052 1.488l.122.648 6.973 5.97-1.318.69-3.717-3.37q-.43-.406-.908-.867-.485-.437-.932-.875l-.062.032q.098.601.234 1.24.137.64.242 1.217l.832 4.877-1.24.649-1.428-9.641q-.09-.664-.094-1.274-.003-.61.16-1.13.154-.535.483-.964.328-.429.902-.729.264-.138.505-.205.233-.082.46-.102l.28 1.138zM445.514 529.496q.402-.121.763.045.343.171.459.557.12.402-.077.717-.21.337-.612.458-.402.12-.746-.05-.355-.15-.476-.552-.116-.386.094-.723.193-.332.595-.452zm.201-1.888l-1.374.412-2.443-8.146 1.375-.412 2.442 8.146zM440.454 529.086l-1.175.185-.312-1.191-.051.008q-.51.7-1.105 1.201-.609.52-1.49.66-1.332.209-2.067-.526-.753-.732-1.008-2.357l-.838-5.324 1.418-.223.807 5.134q.188 1.193.65 1.652.464.476 1.294.345.657-.103 1.107-.51.45-.407.988-1.148l-.956-6.085 1.417-.223 1.321 8.402zM425.709 524.372q-.552-.7-1.334-1.175-.802-.46-1.691-.54-1.133-.103-1.806.346-.675.466-.75 1.302-.04.436.09.747.11.326.353.559.223.248.556.454.333.206.716.434l1.574.864q.385.21.781.492.396.282.696.66.3.38.466.869.165.507.108 1.134-.059.645-.37 1.179-.33.532-.837.89-.526.375-1.191.543-.683.166-1.467.095-1.029-.093-1.864-.573-.836-.462-1.39-1.145l.87-.87q.477.553 1.097.89.6.353 1.402.426.958.087 1.592-.313.615-.383.686-1.167.038-.419-.092-.73-.15-.294-.407-.546-.26-.234-.576-.439-.317-.186-.653-.357l-1.557-.845q-.47-.253-.88-.571-.412-.301-.692-.696-.282-.377-.412-.88-.15-.489-.092-1.116.061-.68.394-1.247.315-.569.862-.976.545-.39 1.283-.587.736-.179 1.643-.097 1.202.11 2.19.656.987.546 1.665 1.399l-.963.931zM412.02 530.063l3.34.921-.325 1.181-8.098-2.232.326-1.181 3.34.92 2.725-9.886 1.418.391-2.726 9.886zM403.09 528.372l-5.954-2.881.534-1.103 4.647 2.248 1.57-3.245-3.923-1.898.541-1.118 3.923 1.898 1.814-3.75-4.805-2.324.542-1.118 6.112 2.957-5 10.334zM392.758 522.912l-1.351-1.057 2.043-6.222.783-2.364-.056-.043-2.078 1.351-5.531 3.495-1.351-1.056 7.07-9.044 1.09.851-3.892 4.977q-.474.607-1.087 1.305-.626.688-1.155 1.251l.055.043 2.304-1.441 5.434-3.371.648.507-1.946 6.097-.857 2.574.056.043q.432-.64.949-1.413.516-.774.99-1.38l3.891-4.977 1.062.83-7.071 9.044zM379.508 508.876q.262.328.243.725-.03.382-.344.634-.328.262-.694.197-.391-.069-.653-.396-.263-.328-.233-.711.005-.385.333-.648.315-.251.706-.183.38.055.642.382zm1.825-.52l-.896-1.12 6.64-5.314.897 1.12-6.64 5.315zM383.833 500.85q.087-.717.016-1.355-.08-.652-.49-1.304-.448-.71-.998-.86-.55-.15-1.023.148-.282.177-.396.455-.114.279-.113.61-.023.324.045.695l.137.741q.109.47.188.957.065.497.024.957-.065.455-.27.852-.204.398-.663.687-.43.27-.902.34-.497.066-.96-.077-.486-.149-.923-.515-.452-.356-.816-.934-.43-.68-.547-1.393-.126-.727-.047-1.356l1.134.093q-.048.547.026 1.059.074.512.372.986.43.68.945.81.507.116.922-.145.252-.159.36-.414.094-.245.102-.56-.007-.306-.065-.662-.083-.362-.16-.747-.095-.478-.175-.966-.088-.502-.033-.972.041-.46.276-.876.224-.432.728-.749.444-.28.94-.344.488-.08 1 .074.5.14.98.54.486.377.887 1.014.485.77.642 1.643.157.873.054 1.662l-1.197-.094zM378.405 490.975q.235-.682.3-1.32.059-.655-.206-1.378-.288-.79-.794-1.052-.505-.262-1.031-.07-.313.114-.483.363-.17.248-.238.571-.09.313-.102.69l-.023.753q.008.481-.017.975-.04.5-.178.94-.159.431-.442.777-.284.346-.794.532-.476.174-.953.144-.5-.041-.922-.278-.444-.248-.795-.697-.367-.444-.6-1.085-.277-.756-.242-1.477.029-.737.238-1.335l1.09.328q-.163.525-.198 1.041-.035.516.157 1.042.276.756.754.992.471.219.931.05.28-.101.44-.327.143-.22.217-.527.058-.3.075-.66-.005-.372 0-.765.008-.487.033-.98.019-.51.172-.958.137-.441.454-.799.31-.374.869-.578.493-.18.992-.14.494.025.96.283.462.242.847.734.395.47.653 1.178.313.854.282 1.74-.03.888-.296 1.637l-1.15-.344zM373.705 484.542q-1.05.197-1.916.04-.887-.172-1.555-.599-.667-.426-1.089-1.06-.425-.65-.57-1.423-.145-.774.018-1.517.16-.76.627-1.4.467-.64 1.235-1.105.747-.478 1.796-.675 1.032-.194 1.919-.022.866.157 1.534.584.65.43 1.075 1.08.422.633.568 1.407.145.774-.015 1.534-.163.743-.613 1.38-.468.64-1.215 1.118-.767.464-1.8.658zm-.275-1.462q.723-.135 1.275-.417.552-.282.924-.672.352-.405.508-.897.14-.49.04-1.022-.1-.534-.408-.939-.325-.402-.796-.634-.49-.246-1.108-.308-.617-.062-1.34.074-.722.135-1.274.417-.57.285-.939.693-.371.39-.511.88-.157.492-.057 1.025.1.533.425.935.308.405.8.651.487.229 1.122.288.617.062 1.34-.074zM363.714 469.417l.093-1.432 3.388.22 1.534.135q-.469-.61-.756-1.312-.305-.704-.258-1.42.053-.82.408-1.429.338-.609.942-.99.587-.4 1.404-.558.8-.176 1.778-.112 1.083.07 1.92.423.836.352 1.397.897.56.545.831 1.23.254.682.206 1.416-.038.594-.342 1.223-.32.61-.863 1.136l-.003.052.83.177-.075 1.153-12.434-.81zm10.64-.746q.526-.527.77-1.055.23-.546.257-.965.034-.524-.165-.975-.215-.47-.614-.812-.415-.36-1.032-.576-.616-.233-1.402-.284-.698-.045-1.283.04-.584.084-1.004.337-.436.235-.691.657-.255.404-.293.998-.067 1.03 1.005 2.345l4.453.29zM374.797 460.671q-1.358-.338-1.771-1.72-.427-1.405-.056-4.126-.39-.098-.785-.106-.391-.025-.73.107-.336.115-.586.396-.267.276-.393.786-.182.73-.067 1.426.12.679.337 1.256l-1.107.32q-.23-.671-.363-1.588-.15-.92.1-1.923.376-1.511 1.479-1.958 1.086-.451 2.631-.067l5.06 1.26-.286 1.154-1.015-.126-.008.034q.345.717.528 1.502.17.764-.02 1.528-.261 1.053-1.046 1.597-.78.527-1.901.248zm.24-1.4q.714.177 1.121-.155.411-.348.563-.96.148-.594.007-1.188-.153-.615-.549-1.345l-2.292-.57q-.122 1.07-.113 1.83.01.759.155 1.264.149.488.442.76.276.266.667.363zM377.623 451.636q.639-.336 1.123-.757.49-.438.793-1.146.33-.773.14-1.31-.19-.538-.704-.757-.306-.13-.6-.066-.294.065-.565.254-.28.166-.546.433l-.533.534q-.323.357-.678.7-.372.336-.774.564-.41.205-.854.263-.444.058-.943-.154-.466-.2-.793-.548-.336-.372-.482-.834-.155-.484-.103-1.052.036-.574.304-1.202.315-.74.834-1.242.525-.518 1.088-.811l.569.985q-.477.272-.856.624t-.598.867q-.316.74-.13 1.239.195.482.645.674.274.117.545.062.255-.063.519-.236.248-.18.507-.43.25-.274.523-.557.34-.35.695-.693.363-.36.78-.58.402-.229.878-.273.482-.06 1.03.173.482.206.819.577.342.356.507.864.17.491.114 1.114-.033.613-.329 1.306-.357.837-.985 1.463-.629.626-1.336.99l-.604-1.038zM374.04 439.823q-.207.365-.583.494-.366.113-.716-.085-.365-.208-.44-.572-.081-.389.126-.754.208-.365.574-.479.36-.137.725.07.35.199.432.587.09.373-.118.739zm1.158 1.503l.71-1.247 7.394 4.202-.71 1.247-7.394-4.202zM380.995 439.804q-.859-.634-1.323-1.39-.479-.766-.611-1.56-.132-.793.065-1.56.207-.783.696-1.445.498-.676 1.105-.967.603-.317 1.187-.43l.32 1.128q-.496.113-.914.326-.408.2-.71.608-.343.464-.436 1.004-.108.53.036 1.07.144.542.512 1.075.365.508.956.944.592.437 1.185.635.593.198 1.142.19.546-.032 1.034-.28.474-.26.817-.724.364-.493.457-1.033.09-.564.038-1.082l1.144.04q.066.766-.12 1.52-.177.74-.634 1.36-.499.676-1.175 1.09-.675.415-1.448.52-.777.079-1.625-.156-.853-.26-1.698-.883z" transform="matrix(-.91526 .31948 -.3315 -.8733 974.78 742.906)"/></g></g><g style="line-height:125%;-inkscape-font-specification:'Source Sans Pro, Light';text-align:start" font-weight="300" font-size="12.5" font-family="Source Sans Pro" letter-spacing="0" word-spacing="0" fill="#fff"><path d="M88.676 178.08l-1.594 1.498-.377-.401 6.348-5.968.325.346-.512.55.026.028q.554.079 1.106.264.56.194.945.604.822.874.623 1.885-.19 1.002-1.21 1.961-.556.522-1.139.778-.582.257-1.149.274-.549.019-1.047-.182-.48-.2-.84-.583-.29-.31-.462-.766-.163-.465-.233-1.05l-.81.761zm1.193-1.122q.05.673.23 1.121.181.448.42.703.309.328.72.473.411.145.864.097.452-.048.92-.28.484-.233.93-.653.401-.377.67-.784.278-.398.37-.793.1-.404-.011-.796-.103-.402-.454-.775-.308-.328-.833-.503-.508-.175-1.23-.25l-2.596 2.44zM98.665 176.798q-.158-.142-.178-.344-.01-.194.131-.352.159-.177.345-.179.203-.002.361.14.158.142.169.336.028.193-.13.37-.142.158-.346.16-.194.011-.352-.13zm-1.182.888l.41.367-4.007 4.467-.409-.367 4.006-4.467zM95.737 184.8l-1.32 1.745-.439-.332 5.258-6.947.379.287-.413.628.03.022q.56-.015 1.134.075.585.098 1.034.437.956.725.93 1.754-.02 1.02-.865 2.137-.46.608-.992.958-.531.35-1.087.463-.538.11-1.062-.005-.507-.117-.926-.434-.339-.256-.584-.677-.238-.432-.406-.997l-.671.887zm.988-1.305q.162.656.415 1.067.254.411.533.622.358.272.788.346.43.075.868-.049.438-.123.86-.43.438-.311.808-.8.332-.438.529-.885.206-.44.23-.844.033-.415-.143-.783-.169-.378-.577-.688-.36-.271-.906-.356-.53-.087-1.255-.04l-2.15 2.84zM102.242 185.223q.38-.632.864-1.027.495-.388 1.012-.545.534-.16 1.04-.105.523.052.951.309.922.553 1.075 1.49.152.937-.53 2.073l-.116.193q-.057.096-.137.18l-3.709-2.225q-.278.489-.39.99-.105.491-.038.94.084.443.334.827.258.373.697.636.418.251.821.333.42.077.838.036l-.025.48q-.42-.004-.892-.068-.461-.058-1.03-.399-.492-.296-.822-.742-.32-.44-.436-.975-.109-.547-.006-1.156.12-.613.5-1.245zm3.95 1.946q.597-.997.486-1.734-.105-.748-.802-1.166-.332-.2-.716-.24-.384-.041-.785.068-.39.116-.776.395-.369.274-.688.71l3.28 1.967zM110.424 182.997l.49.248-3.721 7.377q-.09.178-.068.302.027.111.128.162l.067.034q.044.022.145.045l-.114.447q-.089-.017-.173-.045-.09-.018-.212-.08-.658-.332-.23-1.18l3.688-7.31zM112.344 185.621q-.194-.087-.275-.274-.07-.181.017-.375.098-.217.274-.275.193-.064.387.023t.263.268q.086.176-.01.392-.088.194-.28.259-.183.069-.376-.018zm-.855 1.206l.502.225-2.452 5.476-.502-.225 2.452-5.476zM113.691 187.814l.447.161-.267.887.035.013q.592-.278 1.153-.394.564-.129 1.152.084.882.319 1.102.996.22.678-.18 1.783l-1.308 3.62-.517-.186 1.283-3.55q.327-.906.175-1.44-.137-.54-.83-.791-.506-.183-1.015-.061-.505.11-1.214.452l-1.538 4.255-.517-.187 2.04-5.642zM118.194 192.575q.182-.715.533-1.232.364-.513.814-.811.465-.307.966-.399.516-.1 1 .023 1.042.266 1.456 1.12.414.854.086 2.138l-.055.218q-.028.109-.08.212l-4.19-1.07q-.128.548-.091 1.06.04.5.232.911.207.401.557.697.354.284.85.41.473.121.882.084.425-.047.814-.205l.112.467q-.403.116-.874.19-.458.076-1.1-.087-.557-.143-1-.475-.433-.33-.697-.81-.261-.493-.337-1.105-.06-.622.122-1.337zm4.34.734q.288-1.127-.03-1.801-.315-.687-1.102-.888-.375-.096-.755-.025-.38.07-.732.29-.34.223-.63.6-.275.369-.457.877l3.707.947zM126.108 195.873q.12-.98 1.113-1.388.994-.408 3.007-.391.053-.334.031-.676-.007-.354-.137-.634-.116-.291-.382-.487-.252-.207-.686-.26-.608-.073-1.133.102-.525.176-.85.363l-.199-.44q.175-.091.415-.2.252-.11.54-.187.298-.077.642-.111.346-.047.706-.003.533.065.87.294.34.218.525.555.186.337.222.77.05.421-.01.905l-.461 3.81-.46-.056.032-.777-.025-.003q-.503.305-1.07.525-.555.21-1.15.138-.36-.044-.659-.18-.298-.137-.522-.366-.212-.227-.31-.554-.1-.327-.049-.749zm.574.045q-.078.645.261.963.34.318.848.38.521.063 1.023-.128.502-.19 1.117-.595l.245-2.022q-.931 0-1.584.085-.64.086-1.052.262-.411.177-.62.442-.196.265-.238.613zM132.842 192.509l-.936-.042.019-.425.951-.007.153-1.732.475.02-.078 1.737 1.735.078-.021.474-1.736-.078-.176 3.909q-.013.287.014.526.04.227.145.407.105.167.287.275.196.097.509.11.174.009.376-.032.215-.053.381-.12l.13.456q-.267.088-.532.138-.265.051-.452.042-.437-.02-.718-.17-.282-.137-.446-.382-.164-.246-.224-.586-.047-.34-.03-.74l.174-3.858zM138.71 192.555l-.936.047-.021-.425.946-.097-.012-1.74.474-.023.088 1.735 1.735-.087.024.474-1.736.087.197 3.908q.014.287.064.522.061.223.182.392.12.156.313.247.204.077.516.061.175-.008.372-.068.21-.073.368-.156l.172.441q-.257.113-.516.19-.259.075-.446.084-.437.022-.731-.1-.294-.111-.48-.34-.187-.228-.279-.561-.08-.334-.1-.734l-.193-3.857zM141.76 194.944q-.092-.731.045-1.34.15-.612.46-1.054.32-.456.753-.725.443-.282.94-.345 1.066-.134 1.764.51.698.642.863 1.957l.029.223q.014.112.003.226l-4.291.54q.082.557.304 1.02.22.451.55.762.34.298.774.445.433.134.941.07.484-.06.851-.245.378-.199.682-.49l.276.394q-.333.256-.744.497-.398.24-1.055.322-.57.072-1.106-.075-.522-.149-.944-.499-.424-.362-.719-.905-.284-.556-.376-1.288zm4.308-.907q-.145-1.153-.688-1.665-.545-.523-1.351-.422-.385.049-.712.253-.327.205-.574.539-.236.332-.367.79-.12.443-.103.982l3.795-.477zM147.267 191.148l.464-.106.254.89.036-.007q.349-.554.757-.955.406-.413 1.016-.552.914-.208 1.465.243.552.452.813 1.597l.855 3.754-.536.122-.839-3.68q-.214-.939-.63-1.306-.408-.381-1.127-.217-.524.12-.887.497-.365.365-.777 1.036l1.006 4.412-.537.122-1.332-5.85zM153.098 189.731l.45-.154.348.858.035-.012q.287-.587.65-1.03.36-.454.951-.657.887-.304 1.483.085.597.39.979 1.502l1.25 3.64-.52.18-1.226-3.57q-.313-.911-.766-1.231-.446-.336-1.144-.096-.508.174-.828.589-.325.402-.662 1.112l1.47 4.28-.52.179-1.95-5.675zM159.567 190.625q-.312-.669-.368-1.29-.045-.628.115-1.144.165-.532.494-.92.336-.405.789-.617.974-.455 1.835-.057.862.398 1.422 1.599l.096.204q.047.102.072.214l-3.919 1.83q.25.504.603.877.348.362.756.557.415.18.873.186.453-.005.918-.221.442-.207.735-.495.299-.305.499-.675l.383.29q-.238.346-.555.701-.306.35-.907.63-.52.243-1.075.268-.543.018-1.052-.185-.514-.216-.961-.641-.441-.443-.753-1.111zm3.822-2.184q-.491-1.054-1.165-1.374-.679-.331-1.415.012-.351.164-.6.46-.248.295-.382.688-.122.388-.107.864.021.46.203.967l3.466-1.617zM165.773 189.73q.498.084.99.056.484-.039 1.044-.369.614-.361.738-.84.129-.497-.112-.906-.14-.237-.366-.35-.215-.12-.475-.142-.259-.021-.542.015-.273.03-.55.077-.354.064-.725.123-.36.052-.693.03-.338-.032-.622-.17-.28-.154-.477-.488-.164-.28-.203-.592-.044-.322.064-.631.1-.321.339-.606.249-.292.658-.533.41-.241.886-.319.487-.084.907-.011l-.062.486q-.373-.042-.74 0-.373.031-.771.266-.302.177-.467.39-.17.203-.245.42-.064.212-.038.43.037.21.138.382.133.226.325.33.197.088.439.105t.515-.013l.554-.094.742-.118q.372-.06.71-.026.35.026.652.196.297.159.519.536.171.29.211.63.045.322-.061.66-.112.327-.365.635-.254.31-.674.556-.582.343-1.187.424-.611.07-1.127-.018l.07-.52zM170.014 187.164q.505.039.991-.033.48-.082 1.008-.46.58-.415.66-.903.084-.506-.192-.892-.16-.224-.396-.317-.225-.1-.485-.098-.26.002-.54.063-.268.054-.54.126-.347.094-.711.186-.355.085-.688.093-.34-.003-.635-.114-.292-.13-.517-.445-.19-.264-.255-.57-.073-.317.006-.635.073-.329.284-.634.223-.313.609-.59.386-.276.854-.395.478-.127.902-.093l-.018.49q-.375-.009-.737.066-.369.064-.745.333-.285.204-.43.431-.152.217-.207.44-.045.217 0 .43.056.207.172.37.153.213.354.3.203.07.446.065.242-.005.511-.059l.543-.143.73-.184q.364-.091.704-.089.35-.005.668.138.31.131.564.487.196.275.266.609.073.316-.002.662-.082.336-.307.666-.225.33-.622.614-.548.393-1.144.527-.603.124-1.125.083l.025-.525zM172.784 182.796q-.466-.572-.672-1.162-.196-.597-.168-1.136.03-.557.255-1.014.226-.474.614-.79.834-.678 1.767-.503.932.176 1.769 1.203l.142.175q.07.087.123.19l-3.355 2.73q.365.429.799.704.426.266.87.356.446.072.892-.033.438-.115.835-.439.379-.307.592-.659.216-.368.32-.775l.442.187q-.147.394-.367.815-.212.414-.725.832-.446.363-.978.522-.522.151-1.065.078-.552-.084-1.089-.388-.536-.321-1.001-.893zm3.173-3.05q-.733-.902-1.465-1.049-.74-.155-1.37.358-.3.244-.469.591-.168.347-.202.761-.024.407.107.864.133.44.433.889l2.966-2.415zM177.224 179.154q-.519-.524-.78-1.09-.254-.577-.278-1.116-.024-.557.155-1.033.18-.494.535-.846.764-.757 1.71-.672.944.084 1.877 1.026l.158.16q.08.08.14.177l-3.073 3.043q.405.39.863.623.45.223.9.27.451.028.885-.12.425-.157.79-.517.346-.343.524-.714.179-.388.243-.803l.459.144q-.108.406-.287.847-.17.432-.641.898-.409.405-.923.615-.504.2-1.052.18-.557-.03-1.121-.28-.565-.268-1.084-.792zm2.863-3.344q-.818-.826-1.56-.9-.75-.084-1.328.488-.275.272-.41.634-.134.362-.127.777.015.407.19.85.174.425.517.842l2.718-2.691z" style="line-height:125%;-inkscape-font-specification:'Source Sans Pro, Light';text-align:start"/></g><g transform="matrix(.18654 0 0 .18654 74.92 31.9)" stroke="#fff" stroke-width="7.826"><ellipse ry="37.071" rx="169.013" cy="741.113" cx="323.218" fill="#1e97a8" stroke-linecap="round" stroke-linejoin="round"/><path d="M222.857 332.005c7.104 34.696 11.309 57.44 7.46 100.617-10.307 109.26-82.744 196.626-77.46 302.597-1.136 35.33 120.314 43.479 173.438 43.593 56.126.12 167.614-7.35 166.562-43.593 1.307-99.26-75.446-209.895-85-305.714-1.314-24.252 4.84-68.93 10.183-95.396-29.774 11.377-69.094 16.089-99.329 16.09-32.873 0-72.987-4.183-95.854-18.194z" fill="none"/><ellipse cx="320.817" cy="327.516" rx="99.433" ry="22.506" fill="none" stroke-linecap="round" stroke-linejoin="round"/><path d="M230.28 432.498c-10.306 109.26-84.006 196.121-78.722 302.092-1.136 35.33 120.314 43.478 173.438 43.592 56.126.121 167.614-7.349 166.562-43.592 1.307-99.26-75.446-209.895-85-305.714-33.06 33.797-131.994 31.33-176.278 3.622z" fill="#2197a9" fill-opacity=".737" fill-rule="evenodd"/><ellipse ry="28.722" rx="88.321" cy="424.047" cx="318.703" fill="#2197a9" stroke-linecap="round" stroke-linejoin="round"/></g><g style="line-height:125%;-inkscape-font-specification:'Source Sans Pro, Light';text-align:start" font-weight="300" font-size="17.5" font-family="Source Sans Pro" letter-spacing="0" word-spacing="0" fill="#fff" stroke="#fff"><path d="M128.225 157.68q-1.033 0-1.908-.42-.875-.437-1.505-1.225-.63-.787-.98-1.89-.35-1.12-.35-2.485 0-1.365.35-2.45.35-1.102.98-1.872.63-.788 1.505-1.19.875-.42 1.908-.42 1.05 0 1.925.42.875.402 1.505 1.19.63.77.98 1.872.35 1.085.35 2.45 0 1.365-.35 2.485-.35 1.103-.98 1.89-.63.788-1.505 1.225-.875.42-1.925.42zm0-.735q.875 0 1.592-.367.718-.385 1.225-1.068.525-.7.805-1.662.28-.98.28-2.188 0-1.19-.28-2.152-.28-.963-.805-1.628-.507-.682-1.225-1.05-.717-.367-1.592-.367-.875 0-1.61.367-.718.368-1.225 1.05-.508.665-.788 1.628-.28.962-.28 2.152 0 1.208.28 2.188.28.962.788 1.662.507.683 1.225 1.068.735.367 1.61.367zM135.633 145.938h.805v5.057h6.178v-5.057h.805v11.532h-.805v-5.775h-6.178v5.775h-.805v-11.532z"/><path style="line-height:125%;-inkscape-font-specification:'Source Sans Pro, Light';text-align:start" d="M145.812 145.763h3.85v.682h-3.85v-.682z" baseline-shift="super"/></g></svg>