<?xml version="1.0" encoding="UTF-8" standalone="no"?>
<svg
   xmlns:osb="http://www.openswatchbook.org/uri/2009/osb"
   xmlns:dc="http://purl.org/dc/elements/1.1/"
   xmlns:cc="http://creativecommons.org/ns#"
   xmlns:rdf="http://www.w3.org/1999/02/22-rdf-syntax-ns#"
   xmlns:svg="http://www.w3.org/2000/svg"
   xmlns="http://www.w3.org/2000/svg"
   xmlns:xlink="http://www.w3.org/1999/xlink"
   version="1.1"
   id="svg2"
   viewBox="0 0 180 180"
   height="2in"
   width="2in">
  <defs
     id="defs4">
    <linearGradient
       osb:paint="solid"
       id="linearGradient17107">
      <stop
         id="stop17109"
         offset="0"
         style="stop-color:#1e97a8;stop-opacity:1;" />
    </linearGradient>
  </defs>
  <metadata
     id="metadata7">
    <rdf:RDF>
      <cc:Work
         rdf:about="">
        <dc:format>image/svg+xml</dc:format>
        <dc:type
           rdf:resource="http://purl.org/dc/dcmitype/StillImage" />
        <dc:title></dc:title>
      </cc:Work>
    </rdf:RDF>
  </metadata>
  <g
     style="display:inline"
     id="layer2">
    <path
       id="path4136-4"
       d="M 155.08929,90 A 65.089287,65.089287 0 0 0 90,24.910713 65.089287,65.089287 0 0 0 24.910713,90 65.089287,65.089287 0 0 0 90,155.08929 65.089287,65.089287 0 0 0 155.08929,90 Z"
       style="opacity:0.98000004;fill:#754a7e;fill-opacity:1;stroke:#1e97a8;stroke-width:4.82142878;stroke-linejoin:miter;stroke-miterlimit:4;stroke-dasharray:none;stroke-opacity:1" />
    <path
       id="path4136-4-7"
       d="M 63.560864,43.958173 A 52.071429,52.071429 0 0 1 134.69176,63.017635 52.071429,52.071429 0 0 1 115.63229,134.14853 52.071429,52.071429 0 0 1 44.501402,115.08906 52.071429,52.071429 0 0 1 63.560864,43.958173 Z"
       style="display:inline;opacity:0.98000004;fill:#1e97a8;fill-opacity:1;stroke:#754a7e;stroke-width:3.85714293;stroke-linejoin:miter;stroke-miterlimit:4;stroke-dasharray:none" />
    <path
       d="m 89.210198,91.89641 c -0.263739,0.63387 -1.10538,0.675658 -1.62372,0.358527 -0.939117,-0.574574 -0.959186,-1.889442 -0.358819,-2.7137 0.933146,-1.28114 2.808027,-1.270648 3.975052,-0.330375 1.657119,1.33514 1.608161,3.842037 0.27994,5.385125 -1.776742,2.064168 -4.978711,1.969911 -6.928386,0.211408 -2.499909,-2.254785 -2.354336,-6.208734 -0.127328,-8.593297 2.766674,-2.962408 7.524921,-2.76011 10.370855,-0.02951 3.450061,3.310249 3.1861,8.9215 -0.0807,12.25377 -3.883691,3.961519 -10.393711,3.631329 -14.235987,-0.202253 -4.495624,-4.485448 -4.094937,-11.937536 0.334292,-16.312373 5.114174,-5.051369 13.549528,-4.576175 18.478499,0.476126 5.627869,5.76869 5.074379,15.226682 -0.627169,20.730499 -6.447955,6.22435 -16.966354,5.58893 -23.064958,-0.78692 -6.840083,-7.151042 -6.119301,-18.766193 0.954954,-25.47883 7.87711,-7.474453 20.624084,-6.664993 27.969372,1.130886 8.12688,8.625409 7.22556,22.538124 -1.31438,30.534114 -9.395254,8.79682 -24.506581,7.80057 -33.170795,-1.50516 -9.483806,-10.185996 -8.389654,-26.527852 1.702928,-35.877332 10.997083,-10.187383 28.600507,-8.992458 38.651847,1.907462 10.90714,11.827963 9.60865,30.72317 -2.11854,41.49257 C 95.599009,126.18983 75.382537,124.78506 63.879295,112.21119 51.48564,98.664026 52.999313,77.097518 66.438828,64.844985 80.873419,51.685262 103.81808,53.310419 116.83501,67.634082 c 13.94057,15.340024 12.20142,39.690358 -3.02449,53.486468 -16.263083,14.7359 -42.046018,12.8803 -56.635814,-3.26557 -15.545418,-17.20341 -13.570978,-44.445348 3.512201,-59.843035 18.16068,-16.368877 46.887503,-14.273247 63.107023,3.764252 17.20602,19.134561 14.9869,49.371673 -4.0216,66.426733 -11.09448,9.95434 -26.500858,14.25599 -41.162268,11.67746"
       id="path5226"
       style="fill:none;fill-rule:evenodd;stroke:#754a7e;stroke-width:1.55437112px;stroke-linecap:butt;stroke-linejoin:miter;stroke-opacity:1" />
    <g
       transform="matrix(0.96107528,0,0,0.96107528,1.9508874,3.8767849)"
       id="g5222">
      <path
         id="path4982-8-5-6-3-5-2-6-0"
         style="display:inline;fill:#754a7e;fill-rule:evenodd;stroke:#ffffff;stroke-width:1px;stroke-linecap:butt;stroke-linejoin:miter;stroke-opacity:1"
         d="m 45.787629,108.10539 c 5.954786,-2.75 7.287697,-18.35738 7.678994,-21.32752 0.368287,-2.795487 1.932398,-23.984974 6.664054,-23.984973 4.731657,10e-7 6.295767,21.189487 6.664054,23.984974 0.391297,2.97014 1.138622,21.327519 7.888626,21.327519 6.750004,0 7.497329,-18.357379 7.888626,-21.327519 0.368287,-2.795487 1.932398,-23.984974 6.664054,-23.984973 4.731657,10e-7 6.295767,21.189487 6.664054,23.984974 0.391297,2.97014 1.138623,21.327518 7.888629,21.327518 6.75001,0 7.49733,-18.35738 7.88862,-21.327519 0.36829,-2.795487 1.9324,-23.984974 6.66406,-23.984973 4.73165,10e-7 6.29576,21.189487 6.66405,23.984974 0.3913,2.970138 1.72421,18.577518 7.679,21.327518" />
      <path
         id="path4982-8-5-6-3-5-2-6-0-2"
         style="display:inline;fill:#1e97a8;fill-opacity:0.50196078;fill-rule:evenodd;stroke:#ffffff;stroke-width:1px;stroke-linecap:butt;stroke-linejoin:miter;stroke-opacity:1"
         d="m 49.301589,108.1325 c 5.954786,-2.75 7.287697,-18.357382 7.678994,-21.327522 0.368287,-2.795487 1.932398,-23.984974 6.664054,-23.984973 4.731657,10e-7 6.295767,21.189487 6.664054,23.984974 0.391297,2.97014 1.138622,21.327521 7.888626,21.327521 6.750004,0 7.497329,-18.357381 7.888626,-21.327521 0.368287,-2.795487 1.932398,-23.984974 6.664054,-23.984973 4.731657,10e-7 6.295767,21.189487 6.664054,23.984974 0.391297,2.97014 1.138619,21.32752 7.888629,21.32752 6.75001,0 7.49733,-18.357382 7.88862,-21.327521 0.36829,-2.795487 1.9324,-23.984974 6.66406,-23.984973 4.73165,10e-7 6.29576,21.189487 6.66405,23.984974 0.3913,2.970138 1.72421,18.57752 7.679,21.32752" />
    </g>
    <text
       transform="matrix(0.34202015,-0.93969262,0.93969262,0.34202015,-24.729704,143.25673)"
       id="text4222"
       style="font-style:italic;font-weight:normal;font-size:12.81375049px;line-height:125%;font-family:'Source Sans Pro';letter-spacing:0px;word-spacing:0px;fill:#ffffff;fill-opacity:1;stroke:none;stroke-width:1px;stroke-linecap:butt;stroke-linejoin:miter;stroke-opacity:1;-inkscape-font-specification:'Source Sans Pro, Italic';font-stretch:normal;font-variant:normal;text-anchor:start;text-align:start;writing-mode:lr;"
       xml:space="preserve"><textPath
         startOffset="-2"
         style="font-style:italic;font-variant:normal;font-weight:normal;font-stretch:normal;font-size:12.81375027px;line-height:125%;font-family:'Source Sans Pro';-inkscape-font-specification:'Source Sans Pro, Italic';text-align:start;writing-mode:lr-tb;text-anchor:start"
         id="textPath17136"
         xlink:href="#path4136-4-7">Women in STEM, it's not just a phase</textPath></text>
    <g
       id="text4825"
       style="font-style:normal;font-variant:normal;font-weight:300;font-stretch:normal;font-size:12.5px;line-height:125%;font-family:'Source Sans Pro';-inkscape-font-specification:'Source Sans Pro, Light';text-align:start;letter-spacing:0px;word-spacing:0px;writing-mode:lr-tb;text-anchor:start;display:inline;fill:#ffffff;fill-opacity:1;stroke:none;stroke-width:1px;stroke-linecap:butt;stroke-linejoin:miter;stroke-opacity:1"
       transform="matrix(-0.92718385,0.3746066,-0.3746066,-0.92718385,373.26525,756.30203)">
      <path
         id="path4307"
         style="font-style:normal;font-variant:normal;font-weight:300;font-stretch:normal;font-size:12.5px;line-height:125%;font-family:'Source Sans Pro';-inkscape-font-specification:'Source Sans Pro, Light';text-align:start;writing-mode:lr-tb;text-anchor:start;fill:#ffffff;fill-opacity:1"
         d="m 70.710782,705.78746 2.039029,-0.79216 0.199172,0.51267 -8.121162,3.15506 -0.172012,-0.44276 0.680989,-0.31821 -0.01358,-0.0349 q -0.484677,-0.28106 -0.926604,-0.65919 -0.446453,-0.38978 -0.650151,-0.9141 -0.434556,-1.11856 0.128823,-1.98112 0.551727,-0.85803 1.856706,-1.36501 0.710747,-0.27613 1.346976,-0.29533 0.636229,-0.0192 1.168182,0.17644 0.515775,0.18852 0.902042,0.56145 0.370089,0.36581 0.560207,0.85518 0.153905,0.39615 0.14209,0.88351 -0.02347,0.49188 -0.1777,1.06139 l 1.036992,-0.40287 z m -1.526359,0.59299 q 0.206036,-0.64327 0.2062,-1.1261 1.64e-4,-0.48284 -0.126582,-0.80908 -0.162958,-0.41946 -0.489709,-0.70823 -0.326751,-0.28877 -0.764233,-0.41384 -0.437482,-0.12506 -0.957865,-0.0838 -0.536562,0.0341 -1.10749,0.25592 -0.51267,0.19917 -0.914691,0.47605 -0.406548,0.26522 -0.639662,0.59717 -0.244765,0.33648 -0.288267,0.74227 -0.05515,0.41032 0.130438,0.88804 0.162959,0.41946 0.584181,0.77881 0.405043,0.35223 1.046976,0.69289 l 3.320704,-1.29009 z" />
      <path
         id="path4309"
         style="font-style:normal;font-variant:normal;font-weight:300;font-stretch:normal;font-size:12.5px;line-height:125%;font-family:'Source Sans Pro';-inkscape-font-specification:'Source Sans Pro, Light';text-align:start;writing-mode:lr-tb;text-anchor:start;fill:#ffffff;fill-opacity:1"
         d="m 60.968942,703.23301 q 0.09354,0.19081 0.0361,0.38602 -0.06294,0.18399 -0.253749,0.27752 -0.213256,0.10454 -0.386018,0.0361 -0.189488,-0.0742 -0.283022,-0.26498 -0.09354,-0.19081 -0.03059,-0.37479 0.04622,-0.18971 0.259471,-0.29425 0.190808,-0.0935 0.380296,-0.0194 0.183986,0.063 0.27752,0.25375 z m 1.428529,-0.38008 -0.242089,-0.49385 5.387512,-2.64097 0.242088,0.49385 -5.387511,2.64097 z" />
      <path
         id="path4311"
         style="font-style:normal;font-variant:normal;font-weight:300;font-stretch:normal;font-size:12.5px;line-height:125%;font-family:'Source Sans Pro';-inkscape-font-specification:'Source Sans Pro, Light';text-align:start;writing-mode:lr-tb;text-anchor:start;fill:#ffffff;fill-opacity:1"
         d="m 66.681734,696.91015 1.877393,-1.12274 0.28229,0.47203 -7.477389,4.47172 -0.243795,-0.40766 0.618014,-0.42785 -0.01925,-0.0322 q -0.524931,-0.19584 -1.023989,-0.49454 -0.505473,-0.30943 -0.794178,-0.79219 -0.615905,-1.02988 -0.205084,-1.97467 0.400093,-0.93838 1.601625,-1.65693 0.654405,-0.39136 1.278414,-0.51694 0.624008,-0.12557 1.181229,-0.0219 0.540077,0.0994 0.983392,0.4023 0.426171,0.2986 0.695629,0.74917 0.218133,0.36475 0.288178,0.8472 0.05932,0.48885 0.0027,1.07615 l 0.954789,-0.57099 z m -1.405363,0.84045 q 0.09529,-0.6687 0.01452,-1.14473 -0.08077,-0.47603 -0.260412,-0.77641 -0.230964,-0.38621 -0.601497,-0.61612 -0.370534,-0.22992 -0.822789,-0.27988 -0.452256,-0.05 -0.958362,0.0779 -0.523251,0.12358 -1.048921,0.43795 -0.47203,0.28229 -0.821951,0.62264 -0.356338,0.32962 -0.53051,0.69594 -0.184901,0.37274 -0.159766,0.78009 0.01441,0.41376 0.27745,0.85361 0.230964,0.3862 0.706462,0.66987 0.458355,0.27935 1.148307,0.50758 l 3.057469,-1.82847 z" />
      <path
         id="path4313"
         style="font-style:normal;font-variant:normal;font-weight:300;font-stretch:normal;font-size:12.5px;line-height:125%;font-family:'Source Sans Pro';-inkscape-font-specification:'Source Sans Pro, Light';text-align:start;writing-mode:lr-tb;text-anchor:start;fill:#ffffff;fill-opacity:1"
         d="m 60.808077,694.08175 q -0.588677,0.44426 -1.185631,0.62854 -0.604482,0.1743 -1.142129,0.1259 -0.555154,-0.0508 -1.003375,-0.29201 -0.465729,-0.24361 -0.76692,-0.64271 -0.647562,-0.85807 -0.437821,-1.7837 0.20974,-0.92563 1.267365,-1.72379 0.0898,-0.0678 0.179597,-0.13554 0.0898,-0.0678 0.194656,-0.11558 l 2.605306,3.45225 q 0.441462,-0.34882 0.732701,-0.77219 0.281261,-0.41584 0.387448,-0.85616 0.08868,-0.44277 -1.61e-4,-0.8925 -0.09882,-0.44221 -0.407541,-0.85129 -0.293661,-0.38913 -0.636838,-0.61561 -0.360684,-0.22892 -0.76354,-0.34772 l 0.203702,-0.43561 q 0.387982,0.16134 0.801189,0.39761 0.405676,0.22629 0.804755,0.75511 0.34637,0.45897 0.485472,0.99605 0.131573,0.52711 0.03818,1.06739 -0.103367,0.54782 -0.4268,1.07378 -0.340941,0.52352 -0.929619,0.96778 z m -2.932305,-3.28377 q -0.927916,0.70027 -1.100753,1.42579 -0.182815,0.73305 0.306621,1.38159 0.233424,0.3093 0.573966,0.49079 0.340543,0.18148 0.75319,0.23025 0.405118,0.0388 0.86728,-0.0751 0.444655,-0.11633 0.903811,-0.4002 l -2.304115,-3.05314 z" />
      <path
         id="path4315"
         style="font-style:normal;font-variant:normal;font-weight:300;font-stretch:normal;font-size:12.5px;line-height:125%;font-family:'Source Sans Pro';-inkscape-font-specification:'Source Sans Pro, Light';text-align:start;writing-mode:lr-tb;text-anchor:start;fill:#ffffff;fill-opacity:1"
         d="m 52.388673,693.08046 -0.362478,-0.41365 6.214214,-5.44541 q 0.15042,-0.13181 0.176201,-0.25412 0.01638,-0.11408 -0.05776,-0.19869 -0.02472,-0.0282 -0.04943,-0.0564 -0.03295,-0.0376 -0.11766,-0.0963 l 0.272539,-0.37179 q 0.07647,0.0493 0.143538,0.10691 0.07647,0.0493 0.167089,0.15274 0.486049,0.55467 -0.228444,1.18077 l -6.157807,5.39598 z" />
      <path
         id="path4317"
         style="font-style:normal;font-variant:normal;font-weight:300;font-stretch:normal;font-size:12.5px;line-height:125%;font-family:'Source Sans Pro';-inkscape-font-specification:'Source Sans Pro, Light';text-align:start;writing-mode:lr-tb;text-anchor:start;fill:#ffffff;fill-opacity:1"
         d="m 51.591388,689.92859 q 0.147291,0.15317 0.15215,0.3566 -0.0038,0.19442 -0.156977,0.34171 -0.171192,0.16462 -0.356599,0.15215 -0.203082,-0.0128 -0.350373,-0.16599 -0.147291,-0.15317 -0.143486,-0.34759 -0.01387,-0.19476 0.157323,-0.35938 0.153172,-0.14729 0.356253,-0.13447 0.194418,0.004 0.341709,0.15697 z m 1.244448,-0.79781 -0.381224,-0.39644 4.32485,-4.15881 0.381224,0.39644 -4.32485,4.15881 z" />
      <path
         id="path4319"
         style="font-style:normal;font-variant:normal;font-weight:300;font-stretch:normal;font-size:12.5px;line-height:125%;font-family:'Source Sans Pro';-inkscape-font-specification:'Source Sans Pro, Light';text-align:start;writing-mode:lr-tb;text-anchor:start;fill:#ffffff;fill-opacity:1"
         d="m 51.163095,687.39079 -0.353696,-0.31705 0.580195,-0.72215 -0.02792,-0.025 q -0.6531,0.0357 -1.216349,-0.0663 -0.571593,-0.0927 -1.036981,-0.50989 -0.698083,-0.62576 -0.648394,-1.33664 0.04969,-0.71087 0.833987,-1.5858 l 2.569823,-2.8668 0.409542,0.36712 -2.519762,2.81095 q -0.642456,0.71669 -0.700823,1.26871 -0.07602,0.55297 0.47314,1.04525 0.400234,0.35877 0.917909,0.43672 0.509331,0.0872 1.294334,0.0355 l 3.020377,-3.36941 0.409542,0.36711 -4.00492,4.46773 z" />
      <path
         id="path4321"
         style="font-style:normal;font-variant:normal;font-weight:300;font-stretch:normal;font-size:12.5px;line-height:125%;font-family:'Source Sans Pro';-inkscape-font-specification:'Source Sans Pro, Light';text-align:start;writing-mode:lr-tb;text-anchor:start;fill:#ffffff;fill-opacity:1"
         d="m 48.772065,681.28987 q -0.43683,0.59421 -0.956026,0.9417 -0.529268,0.34009 -1.058262,0.44766 -0.546469,0.11023 -1.044976,0.008 -0.515982,-0.10006 -0.918836,-0.39622 -0.866137,-0.63673 -0.930208,-1.58366 -0.06407,-0.94693 0.720743,-2.01449 0.06663,-0.0906 0.13327,-0.18129 0.06663,-0.0906 0.153413,-0.16648 l 3.484691,2.56175 q 0.323104,-0.46061 0.480928,-0.94965 0.15042,-0.47896 0.126088,-0.93125 -0.04181,-0.44962 -0.2557,-0.85509 -0.221296,-0.3954 -0.634222,-0.69896 -0.392783,-0.28875 -0.786438,-0.40748 -0.41113,-0.11607 -0.831135,-0.11455 l 0.07045,-0.4757 q 0.417936,0.0435 0.881492,0.15157 0.453485,0.10066 0.987267,0.49307 0.463282,0.34058 0.750342,0.81535 0.276988,0.46737 0.342204,1.01177 0.05781,0.55447 -0.101483,1.15102 -0.17677,0.59922 -0.6136,1.19343 z m -3.74976,-2.30669 q -0.688563,0.93663 -0.64643,1.68126 0.03473,0.75471 0.689367,1.23596 0.312212,0.22952 0.690461,0.3059 0.378248,0.0764 0.787583,0.005 0.399264,-0.0788 0.80947,-0.32027 0.392732,-0.23877 0.751385,-0.64222 l -3.081836,-2.26559 z" />
      <path
         id="path4323"
         style="font-style:normal;font-variant:normal;font-weight:300;font-stretch:normal;font-size:12.5px;line-height:125%;font-family:'Source Sans Pro';-inkscape-font-specification:'Source Sans Pro, Light';text-align:start;writing-mode:lr-tb;text-anchor:start;fill:#ffffff;fill-opacity:1"
         d="m 42.669491,675.26633 q -0.4774,0.86444 -1.551873,0.87078 -1.074472,0.006 -2.933998,-0.76358 -0.174104,0.28939 -0.282556,0.61505 -0.125436,0.33055 -0.110092,0.6389 -0.0016,0.31324 0.17147,0.59448 0.156126,0.28614 0.539102,0.49764 0.536168,0.29611 1.088673,0.32993 0.552506,0.0338 0.923893,-0.0181 l 0.01942,0.48195 q -0.196636,0.0199 -0.460069,0.0315 -0.274376,0.006 -0.569491,-0.0289 -0.306058,-0.0405 -0.637755,-0.13802 -0.337741,-0.0866 -0.655065,-0.26182 -0.470514,-0.25985 -0.697192,-0.59923 -0.23272,-0.32844 -0.278604,-0.71077 -0.04588,-0.38233 0.08299,-0.79666 0.111884,-0.40944 0.347562,-0.83619 l 1.855217,-3.35925 0.404861,0.22359 -0.319958,0.70864 0.02188,0.0121 q 0.580109,-0.0937 1.189614,-0.0856 0.592519,0.0131 1.117744,0.30315 0.317324,0.17525 0.542534,0.41386 0.22521,0.23861 0.347366,0.53455 0.111212,0.28989 0.0805,0.62992 -0.03071,0.34003 -0.236176,0.71206 z m -0.515426,-0.25609 q 0.314238,-0.569 0.118919,-0.99102 -0.195318,-0.42202 -0.643948,-0.66978 -0.459572,-0.25381 -0.996236,-0.2646 -0.536665,-0.0108 -1.258699,0.13307 l -0.985017,1.78358 q 0.864109,0.34871 1.500721,0.51465 0.625669,0.15991 1.073652,0.15028 0.447983,-0.01 0.740164,-0.17669 0.281238,-0.17311 0.450444,-0.47949 z" />
      <path
         id="path4325"
         style="font-style:normal;font-variant:normal;font-weight:300;font-stretch:normal;font-size:12.5px;line-height:125%;font-family:'Source Sans Pro';-inkscape-font-specification:'Source Sans Pro, Light';text-align:start;writing-mode:lr-tb;text-anchor:start;fill:#ffffff;fill-opacity:1"
         d="m 35.165526,675.86338 0.852568,0.38991 -0.176761,0.3865 -0.884732,-0.34964 -0.790846,1.5489 -0.431968,-0.19756 0.722641,-1.58009 -1.580094,-0.72264 0.197557,-0.43197 1.580093,0.72264 1.627243,-3.55805 q 0.119573,-0.26146 0.184249,-0.49304 0.04811,-0.22541 0.01858,-0.43135 -0.03472,-0.19456 -0.163646,-0.36349 -0.145489,-0.16275 -0.429679,-0.29272 -0.159146,-0.0728 -0.361823,-0.1105 -0.219243,-0.0315 -0.398215,-0.0309 l 0.05075,-0.47162 q 0.28031,0.0182 0.545024,0.0706 0.264713,0.0523 0.435227,0.13032 0.397865,0.18196 0.602132,0.42658 0.209466,0.23325 0.269834,0.52202 0.06037,0.28877 -0.0118,0.62688 -0.08353,0.33292 -0.249895,0.69669 l -1.606446,3.51258 z" />
      <path
         id="path4327"
         style="font-style:normal;font-variant:normal;font-weight:300;font-stretch:normal;font-size:12.5px;line-height:125%;font-family:'Source Sans Pro';-inkscape-font-specification:'Source Sans Pro, Light';text-align:start;writing-mode:lr-tb;text-anchor:start;fill:#ffffff;fill-opacity:1"
         d="m 29.741628,673.62266 0.885778,0.30709 -0.139215,0.40156 -0.913966,-0.26395 -0.640003,1.61708 -0.448794,-0.1556 0.569141,-1.64164 -1.64164,-0.56914 0.155592,-0.44879 1.641641,0.56914 1.281591,-3.69665 q 0.09417,-0.27163 0.13654,-0.50832 0.02646,-0.22896 -0.02251,-0.43116 -0.05307,-0.19038 -0.197464,-0.34628 -0.160304,-0.14819 -0.455563,-0.25055 -0.165345,-0.0573 -0.370689,-0.0756 -0.221249,-0.0106 -0.399351,0.007 l 0.0057,-0.47431 q 0.280774,-0.008 0.549264,0.0184 0.268491,0.0269 0.445646,0.0883 0.413363,0.14331 0.639962,0.3674 0.230693,0.21228 0.318241,0.494 0.08755,0.28172 0.04786,0.62517 -0.0515,0.33935 -0.182526,0.71728 l -1.265214,3.6494 z" />
      <path
         id="path4329"
         style="font-style:normal;font-variant:normal;font-weight:300;font-stretch:normal;font-size:12.5px;line-height:125%;font-family:'Source Sans Pro';-inkscape-font-specification:'Source Sans Pro, Light';text-align:start;writing-mode:lr-tb;text-anchor:start;fill:#ffffff;fill-opacity:1"
         d="m 27.809777,670.26466 q -0.188759,0.71293 -0.544548,1.22648 -0.367873,0.51034 -0.820676,0.80424 -0.468086,0.30278 -0.969569,0.38983 -0.516766,0.0959 -1.000112,-0.032 -1.039193,-0.27514 -1.445733,-1.13276 -0.406539,-0.85762 -0.06741,-2.13848 0.02879,-0.10876 0.05759,-0.21751 0.02879,-0.10875 0.08176,-0.21111 l 4.180941,1.10696 q 0.131885,-0.54696 0.09957,-1.05982 -0.03551,-0.50077 -0.223857,-0.91269 -0.203627,-0.40304 -0.551198,-0.70196 -0.350771,-0.28683 -0.8462,-0.418 -0.471263,-0.12477 -0.881048,-0.091 -0.425068,0.0426 -0.815313,0.19792 l -0.108729,-0.46843 q 0.404814,-0.11265 0.875731,-0.18193 0.458833,-0.0725 1.099267,0.0971 0.555847,0.14717 0.996889,0.48376 0.428957,0.33339 0.689089,0.81605 0.256933,0.49474 0.32727,1.10817 0.05505,0.62232 -0.133703,1.33526 z m -4.334139,-0.77253 q -0.297535,1.12378 0.01448,1.8012 0.308811,0.6895 1.094248,0.89746 0.374593,0.0992 0.754526,0.0317 0.379933,-0.0675 0.73464,-0.28393 0.342623,-0.21962 0.635853,-0.59456 0.277948,-0.36606 0.463852,-0.87286 l -3.697595,-0.97898 z" />
      <path
         id="path4331"
         style="font-style:normal;font-variant:normal;font-weight:300;font-stretch:normal;font-size:12.5px;line-height:125%;font-family:'Source Sans Pro';-inkscape-font-specification:'Source Sans Pro, Light';text-align:start;writing-mode:lr-tb;text-anchor:start;fill:#ffffff;fill-opacity:1"
         d="m 21.280802,671.72183 -0.468935,-0.0757 0.09798,-0.92115 -0.03702,-0.006 q -0.530267,0.38292 -1.059329,0.60144 -0.531054,0.23086 -1.148074,0.1313 -0.92553,-0.14934 -1.267842,-0.77435 -0.342313,-0.625 -0.155145,-1.785 l 0.613272,-3.80084 0.542977,0.0876 -0.601325,3.7268 q -0.153318,0.95021 0.09585,1.44623 0.234838,0.50637 0.962921,0.62385 0.530637,0.0856 1.008347,-0.12852 0.475719,-0.2018 1.108298,-0.6695 l 0.720793,-4.46723 0.542978,0.0876 -0.955748,5.92339 z" />
      <path
         id="path4333"
         style="font-style:normal;font-variant:normal;font-weight:300;font-stretch:normal;font-size:12.5px;line-height:125%;font-family:'Source Sans Pro';-inkscape-font-specification:'Source Sans Pro, Light';text-align:start;writing-mode:lr-tb;text-anchor:start;fill:#ffffff;fill-opacity:1"
         d="m 15.343835,670.8507 -0.474334,-0.0252 -9.32e-4,-0.92635 -0.03745,-0.002 q -0.48635,0.43735 -0.989056,0.7111 -0.503369,0.28624 -1.127492,0.25314 -0.936184,-0.0497 -1.343273,-0.63455 -0.40709,-0.58488 -0.34485,-1.75823 l 0.203937,-3.8446 0.549228,0.0291 -0.199964,3.7697 q -0.05098,0.96115 0.249723,1.42774 0.287562,0.4784 1.024027,0.51747 0.536745,0.0285 0.98886,-0.23545 0.451452,-0.25144 1.030476,-0.78402 l 0.239692,-4.51865 0.549228,0.0291 -0.317823,5.99157 z" />
      <path
         id="path4335"
         style="font-style:normal;font-variant:normal;font-weight:300;font-stretch:normal;font-size:12.5px;line-height:125%;font-family:'Source Sans Pro';-inkscape-font-specification:'Source Sans Pro, Light';text-align:start;writing-mode:lr-tb;text-anchor:start;fill:#ffffff;fill-opacity:1"
         d="m 9.6811448,667.59909 q 0.038867,0.73647 -0.1423758,1.33435 -0.1937254,0.59854 -0.5346413,1.01709 -0.3527397,0.43169 -0.803398,0.66827 -0.4624821,0.24972 -0.9617873,0.27607 -1.0735061,0.0567 -1.7233632,-0.63506 -0.6498571,-0.69171 -0.719686,-2.01487 -0.00593,-0.11234 -0.011858,-0.22469 -0.00593,-0.11234 0.013108,-0.226 l 4.3189897,-0.22793 Q 9.0740059,667.00526 8.88604,666.527 q -0.1873072,-0.46578 -0.492853,-0.80014 -0.3173697,-0.32122 -0.7398367,-0.4992 -0.4218082,-0.1655 -0.933596,-0.13849 -0.4868225,0.0257 -0.8665376,0.18342 -0.391539,0.17087 -0.7153947,0.43831 l -0.2470853,-0.41255 q 0.3507973,-0.23131 0.7778079,-0.44161 0.4145279,-0.20963 1.0761073,-0.24455 0.5742009,-0.0303 1.0971877,0.15489 0.5105041,0.18586 0.9060634,0.56554 0.396218,0.39216 0.6512085,0.95451 0.2431665,0.57548 0.2820335,1.31196 z m -4.3622987,0.59322 q 0.061265,1.16088 0.565908,1.71005 0.5053018,0.56165 1.3166727,0.51883 0.3869615,-0.0204 0.7279112,-0.20114 0.3409497,-0.18072 0.6122398,-0.49545 0.2588076,-0.31408 0.4229903,-0.76085 0.1523588,-0.43364 0.1739626,-0.97302 l -3.8196846,0.20158 z" />
      <path
         id="path4337"
         style="font-style:normal;font-variant:normal;font-weight:300;font-stretch:normal;font-size:12.5px;line-height:125%;font-family:'Source Sans Pro';-inkscape-font-specification:'Source Sans Pro, Light';text-align:start;writing-mode:lr-tb;text-anchor:start;fill:#ffffff;fill-opacity:1"
         d="m 3.5923717,666.10362 q -0.4312283,-0.26424 -0.8971479,-0.42219 -0.4640744,-0.1456 -1.1069542,-0.0496 -0.70469509,0.10517 -0.99919787,0.503 -0.30502074,0.41204 -0.23490635,0.88183 0.0405925,0.27199 0.2079533,0.46187 0.15499768,0.19172 0.38731129,0.30871 0.23231363,0.11699 0.50854413,0.18951 0.2638675,0.0744 0.5382529,0.13452 0.3522541,0.0738 0.7187164,0.15815 0.3540992,0.0862 0.6537636,0.23102 0.3015094,0.15722 0.5133398,0.39101 0.2013125,0.248 0.2585111,0.63126 0.047973,0.32144 -0.03322,0.62424 -0.079348,0.31517 -0.2952424,0.56224 -0.2140494,0.25944 -0.5417642,0.43473 -0.340078,0.17714 -0.8098747,0.24726 -0.4697967,0.0701 -0.9406989,-0.0365 -0.4832653,-0.10481 -0.84529773,-0.32883 l 0.23951515,-0.42753 q 0.32992578,0.17825 0.68587018,0.27679 0.3577894,0.1109 0.8152231,0.0426 0.346166,-0.0517 0.5786665,-0.18747 0.2343456,-0.12344 0.3852872,-0.29763 0.1385786,-0.17235 0.1955983,-0.38307 0.044657,-0.20888 0.015135,-0.40669 -0.038747,-0.25963 -0.1776918,-0.42847 -0.1494624,-0.15463 -0.3675678,-0.2611 -0.2181054,-0.10647 -0.4819729,-0.18084 -0.2743854,-0.0602 -0.5487708,-0.12031 -0.3664623,-0.0843 -0.7329246,-0.16866 -0.3664623,-0.0843 -0.66797174,-0.24155 -0.3138725,-0.15537 -0.53123828,-0.42625 -0.21552066,-0.25852 -0.28009971,-0.69123 -0.0498181,-0.3338 0.0400478,-0.66317 0.07934795,-0.31517 0.30391526,-0.58882 0.22641244,-0.26128 0.57700833,-0.45263 0.35059584,-0.19134 0.83275564,-0.2633 0.6676059,-0.0996 1.2590014,0.0522 0.5932405,0.16423 1.0386769,0.43899 l -0.260551,0.45595 z" />
      <path
         id="path4339"
         style="font-style:normal;font-variant:normal;font-weight:300;font-stretch:normal;font-size:12.5px;line-height:125%;font-family:'Source Sans Pro';-inkscape-font-specification:'Source Sans Pro, Light';text-align:start;writing-mode:lr-tb;text-anchor:start;fill:#ffffff;fill-opacity:1"
         d="m -1.3020769,666.89402 q -0.45304,-0.2248 -0.9311717,-0.34065 -0.4751932,-0.10371 -1.1069788,0.0491 -0.6925342,0.16749 -0.9504509,0.58996 -0.2671281,0.43755 -0.1554686,0.89924 0.064645,0.2673 0.2482449,0.44152 0.1714502,0.17716 0.4132564,0.27301 0.2418062,0.0958 0.5233961,0.14348 0.2694401,0.0506 0.5480915,0.0861 0.3574266,0.0422 0.7299413,0.0935 0.360365,0.0543 0.6717351,0.17191 0.3143084,0.12975 0.54611111,0.34376 0.22259139,0.22909 0.31368207,0.60574 0.0763986,0.31589 0.0224848,0.62472 -0.0509754,0.32097 -0.24401689,0.58629 -0.19010308,0.27746 -0.50091119,0.48123 -0.3229579,0.20671 -0.7846473,0.31837 -0.4616895,0.11166 -0.9402172,0.0473 -0.4906774,-0.0614 -0.8712152,-0.25227 l 0.2005026,-0.44716 q 0.3444847,0.14817 0.7077881,0.21463 0.3662419,0.0786 0.8157816,-0.0301 0.3401922,-0.0823 0.5596794,-0.23824 0.2224256,-0.14382 0.3572608,-0.33075 0.1226855,-0.184 0.16071894,-0.39896 0.0258838,-0.21203 -0.0211308,-0.40643 -0.0617066,-0.25514 -0.21513024,-0.41094 -0.162635,-0.14071 -0.389353,-0.22734 -0.2267181,-0.0866 -0.4961582,-0.13722 -0.2786515,-0.0355 -0.5573029,-0.071 -0.3725147,-0.0514 -0.7450294,-0.10274 -0.3725148,-0.0514 -0.6868232,-0.18112 -0.3264582,-0.12682 -0.5670761,-0.37727 -0.2376795,-0.23831 -0.3405238,-0.66355 -0.079337,-0.32804 -0.01915,-0.66411 0.050975,-0.32097 0.2502898,-0.61352 0.2022528,-0.28041 0.534422,-0.50221 0.3321692,-0.22179 0.8060083,-0.33639 0.656085,-0.15868 1.2586523,-0.0601 0.6055057,0.11077 1.0736339,0.34478 l -0.2189253,0.47734 z" />
      <path
         id="path4341"
         style="font-style:normal;font-variant:normal;font-weight:300;font-stretch:normal;font-size:12.5px;line-height:125%;font-family:'Source Sans Pro';-inkscape-font-specification:'Source Sans Pro, Light';text-align:start;writing-mode:lr-tb;text-anchor:start;fill:#ffffff;fill-opacity:1"
         d="m -5.5059346,669.90657 q 0.2174369,0.70472 0.1875949,1.32876 -0.041786,0.62772 -0.2702412,1.11682 -0.236714,0.50472 -0.6160045,0.84414 -0.3875495,0.35504 -0.8653244,0.50245 -1.0272161,0.31694 -1.8262419,-0.19525 -0.7990257,-0.51219 -1.1896753,-1.77829 -0.03317,-0.1075 -0.06634,-0.215 -0.03317,-0.1075 -0.04245,-0.22237 l 4.1327528,-1.27514 q -0.1777861,-0.53381 -0.4767924,-0.95173 -0.2953209,-0.40597 -0.6732318,-0.65565 -0.38617,-0.23405 -0.8393002,-0.30355 -0.4494449,-0.0575 -0.9391642,0.0936 -0.4658305,0.14373 -0.795567,0.38936 -0.3379952,0.26126 -0.5867862,0.59966 l -0.340301,-0.33978 q 0.283735,-0.30993 0.646508,-0.61808 0.3508279,-0.30447 0.9838796,-0.49979 0.5494412,-0.16953 1.1018118,-0.11757 0.5404262,0.0556 1.0166892,0.32729 0.4799485,0.28361 0.8644742,0.76671 0.3762668,0.49874 0.5937036,1.20345 z m -4.0855992,1.63996 q 0.3427395,1.11082 0.9661527,1.52022 0.6270986,0.42134 1.4034828,0.18179 0.3702756,-0.11424 0.6568082,-0.37271 0.2865326,-0.25847 0.4728043,-0.6299 0.1743273,-0.36774 0.224505,-0.84107 0.041919,-0.45771 -0.068775,-0.98606 l -3.6549782,1.12773 z" />
      <path
         id="path4343"
         style="font-style:normal;font-variant:normal;font-weight:300;font-stretch:normal;font-size:12.5px;line-height:125%;font-family:'Source Sans Pro';-inkscape-font-specification:'Source Sans Pro, Light';text-align:start;writing-mode:lr-tb;text-anchor:start;fill:#ffffff;fill-opacity:1"
         d="m -10.987445,671.61977 q 0.284765,0.6803 0.315593,1.30429 0.0193,0.62882 -0.160642,1.13777 -0.186642,0.5253 -0.531223,0.8999 -0.351284,0.39096 -0.812508,0.58402 -0.991631,0.41509 -1.836569,-0.0172 -0.844938,-0.43227 -1.356551,-1.65452 -0.04344,-0.10377 -0.08688,-0.20755 -0.04344,-0.10377 -0.06382,-0.2172 l 3.989584,-1.66998 q -0.228724,-0.51405 -0.566857,-0.901 -0.333306,-0.37542 -0.733653,-0.58726 -0.407051,-0.19549 -0.864785,-0.22071 -0.452907,-0.0137 -0.925662,0.18421 -0.449693,0.18823 -0.754049,0.46469 -0.31106,0.29282 -0.525856,0.65375 l -0.371653,-0.30516 q 0.252336,-0.33599 0.583509,-0.67788 0.319642,-0.33706 0.930763,-0.59287 0.530408,-0.22202 1.085213,-0.22389 0.543275,0.003 1.043642,0.22714 0.505193,0.23572 0.934765,0.67925 0.422867,0.45988 0.707633,1.14019 z m -3.907268,2.0285 q 0.448868,1.07234 1.109051,1.41934 0.66501,0.35853 1.414498,0.0448 0.357448,-0.14963 0.61756,-0.43467 0.260111,-0.28504 0.409478,-0.67278 0.137836,-0.38292 0.141866,-0.85889 -0.0027,-0.45961 -0.164092,-0.97473 l -3.528361,1.47692 z" />
    </g>
    <path
       id="path4136-4-7-7"
       d="M 65.584719,47.542712 A 48.214636,48.214636 0 0 1 131.44713,65.190491 48.214636,48.214636 0 0 1 113.79934,131.05291 48.214636,48.214636 0 0 1 47.936942,113.40512 48.214636,48.214636 0 0 1 65.584719,47.542712 Z"
       style="display:inline;opacity:0.98000004;fill:none;fill-opacity:1;stroke:#ffffff;stroke-width:3.7;stroke-linejoin:miter;stroke-miterlimit:4;stroke-dasharray:none" />
  </g>
</svg>
