<svg xmlns="http://www.w3.org/2000/svg" viewBox="0 0 180 180" height="2in" width="2in"><path d="M155.09 90A65.09 65.09 0 0 0 90 24.91 65.09 65.09 0 0 0 24.91 90 65.09 65.09 0 0 0 90 155.09 65.09 65.09 0 0 0 155.09 90z" opacity=".98" fill="#754a7e" stroke="#1e97a8" stroke-width="4.821"/><path d="M63.56 43.958a52.071 52.071 0 0 1 71.132 19.06 52.071 52.071 0 0 1-19.06 71.13 52.071 52.071 0 0 1-71.13-19.059A52.071 52.071 0 0 1 63.56 43.96z" opacity=".98" fill="#1e97a8" stroke="#754a7e" stroke-width="3.857"/><path d="M89.21 91.896c-.264.634-1.105.676-1.624.359-.939-.575-.959-1.89-.358-2.714.933-1.28 2.808-1.27 3.975-.33 1.657 1.335 1.608 3.842.28 5.385-1.777 2.064-4.98 1.97-6.929.211-2.5-2.254-2.354-6.208-.127-8.593 2.767-2.962 7.525-2.76 10.37-.03 3.45 3.31 3.187 8.922-.08 12.254-3.884 3.962-10.394 3.632-14.236-.202-4.496-4.485-4.095-11.937.334-16.312 5.115-5.052 13.55-4.576 18.479.476 5.628 5.769 5.074 15.227-.627 20.73-6.448 6.225-16.967 5.59-23.065-.787-6.84-7.15-6.12-18.766.955-25.478 7.877-7.475 20.624-6.665 27.97 1.13 8.126 8.626 7.225 22.539-1.315 30.535-9.396 8.796-24.507 7.8-33.171-1.506-9.484-10.186-8.39-26.527 1.703-35.877 10.997-10.187 28.6-8.992 38.652 1.908 10.907 11.828 9.608 30.723-2.119 41.492-12.678 11.643-32.894 10.238-44.398-2.336C51.486 98.664 53 77.098 66.44 64.845c14.434-13.16 37.38-11.535 50.396 2.79 13.94 15.34 12.201 39.69-3.024 53.486-16.264 14.735-42.046 12.88-56.636-3.266-15.546-17.203-13.571-44.445 3.512-59.843 18.16-16.369 46.887-14.273 63.107 3.764 17.206 19.135 14.987 49.372-4.022 66.427-11.094 9.954-26.5 14.256-41.162 11.677" fill="none" stroke="#754a7e" stroke-width="1.554"/><g fill-rule="evenodd" stroke="#fff"><path d="M45.956 107.774c5.723-2.643 7.004-17.643 7.38-20.497.354-2.687 1.858-23.052 6.405-23.052 4.547 0 6.05 20.365 6.405 23.052.376 2.854 1.094 20.497 7.581 20.497s7.206-17.643 7.582-20.497c.354-2.687 1.857-23.052 6.404-23.052 4.548 0 6.051 20.365 6.405 23.052.376 2.854 1.094 20.497 7.582 20.497 6.487 0 7.205-17.643 7.581-20.497.354-2.687 1.857-23.052 6.405-23.052 4.547 0 6.05 20.365 6.405 23.052.376 2.854 1.657 17.854 7.38 20.497" fill="#754a7e" stroke-width=".96108"/><path d="M49.333 107.8c5.723-2.643 7.004-17.643 7.38-20.497.354-2.687 1.858-23.051 6.405-23.051 4.548 0 6.05 20.364 6.405 23.05.376 2.855 1.094 20.498 7.581 20.498 6.488 0 7.206-17.643 7.582-20.497.354-2.687 1.857-23.051 6.405-23.051 4.547 0 6.05 20.364 6.404 23.05.376 2.855 1.095 20.498 7.582 20.498s7.205-17.643 7.581-20.497c.354-2.687 1.858-23.051 6.405-23.051 4.548 0 6.05 20.364 6.405 23.05.376 2.855 1.657 17.855 7.38 20.498" fill="#1e97a8" fill-opacity=".502" stroke-width=".96108"/></g><g style="line-height:125%;-inkscape-font-specification:'Source Sans Pro, Italic';text-align:start" font-style="italic" font-weight="400" font-size="12.814" font-family="Source Sans Pro" letter-spacing="0" word-spacing="0" fill="#fff"><path style="line-height:125%;-inkscape-font-specification:'Source Sans Pro, Italic';text-align:start" d="M29.98 100.257l-.124-1.017 4.607-.435q.68-.044 1.356-.101.676-.07 1.37-.103l-.007-.051q-.723-.209-1.434-.431-.712-.223-1.42-.42l-4.847-1.525-.11-.903 4.577-.676q.66-.094 1.347-.178l1.36-.166-.005-.051q-.718-.17-1.425-.355-.708-.197-1.414-.37L29 92.233l-.12-.98 8.764 2.413.154 1.26-5.09.713-.953.116q-.51.05-1.01.085l.006.051q.518.117 1.028.274.508.145 1.03.3l5.38 1.653.15 1.234-8.357.906zM37.68 88.313q-.034 1.012-.72 1.592-.686.58-1.852.54-.883-.03-1.617-.336-.733-.307-1.242-.799-.522-.491-.797-1.103-.287-.613-.265-1.253.034-1.012.72-1.591.687-.592 1.852-.553.884.03 1.617.349.733.307 1.255.799.51.478.796 1.103.274.612.253 1.252zm-5.69-1.23q-.014.423.228.842.23.418.655.753.411.334.981.545.57.212 1.223.234.846.028 1.305-.29.46-.33.482-.984.014-.435-.216-.84-.242-.419-.654-.753-.412-.334-.982-.546-.57-.211-1.222-.233-.846-.029-1.306.302-.472.318-.494.97zM31.722 81.573l.158-.792.9.27.01-.05q-.358-.567-.554-1.155-.21-.59-.114-1.068.072-.364.223-.596.138-.234.334-.364.183-.134.427-.177.23-.045.49-.033-.448-.703-.655-1.306-.204-.615-.109-1.093.153-.767.622-1.026.47-.26 1.186-.117.214.043.398.106.183.062.424.162l3.741 1.555-.192.968-3.618-1.517q-.241-.1-.387-.156-.146-.055-.31-.087-.942-.188-1.12.704-.052.264.122.77.174.504.642 1.172l4.15 1.728-.19.955-3.62-1.505q-.241-.1-.387-.155-.146-.055-.31-.088-.942-.187-1.117.692-.055.277.119.782t.644 1.16l4.151 1.728-.19.955-5.868-2.422zM37.54 73.079q-.829-.307-1.4-.833-.582-.53-.903-1.14-.328-.627-.388-1.278-.055-.662.159-1.24.182-.492.475-.766.285-.29.654-.4.356-.114.788-.064.42.047.865.211.348.13.634.317.286.188.432.31l-1.406 3.797q.534.294.978.349.432.05.777-.068.348-.13.589-.41.24-.28.382-.665.13-.349.11-.738-.027-.407-.13-.759l.747-.133q.123.442.138.993.002.548-.212 1.125-.387 1.045-1.243 1.439-.868.389-2.046-.047zm.455-4.477q-.135-.078-.275-.143-.135-.078-.303-.14-.253-.093-.503-.118-.263-.029-.492.037-.23.065-.417.242-.189.176-.304.488-.12.325-.104.686.021.35.176.707.154.358.422.703.273.334.666.602l1.134-3.064zM37.015 64.275l.372-.717.789.51.023-.045q-.162-.69-.193-1.298-.043-.614.229-1.138.365-.705.882-.812.524-.119 1.172.217.194.1.352.212.165.1.363.274l3.162 2.533-.448.865-3.06-2.451q-.204-.164-.328-.257-.125-.094-.273-.17-.421-.218-.737-.137-.317.081-.54.514-.172.33-.145.863.032.522.285 1.317l3.507 2.813-.449.864-4.963-3.957zM42.16 55.631l.572-.804 4.348 4.632-.565.794-4.355-4.622zm-.572-1.429q-.148.21-.374.284-.23.057-.46-.106-.26-.186-.301-.482-.044-.314.127-.555.148-.208.378-.266.236-.067.466.096.261.186.294.493.041.296-.13.536zM44.32 52.754l.526-.611.65.679.034-.04q.002-.708.112-1.307.1-.607.485-1.053.519-.602 1.047-.587.536.006 1.09.483.164.142.293.287.138.135.29.35l2.49 3.196-.636.738-2.41-3.092q-.16-.207-.26-.326-.1-.12-.226-.229-.359-.31-.686-.303-.326.006-.644.375-.243.281-.34.806-.09.515-.027 1.347l2.761 3.547-.635.738-3.915-4.998zM53.633 49.232q.646.198 1.265.103.62-.113 1.164-.561.297-.245.48-.546.185-.3.232-.605.058-.314-.021-.63-.079-.318-.307-.594-.294-.356-.717-.406-.42-.068-.974.006l-1.126.165q-.628.085-1.218-.027-.58-.12-1.036-.673-.302-.366-.423-.814-.11-.457-.047-.924t.315-.907q.253-.458.688-.817.584-.48 1.27-.615.687-.134 1.32.009l-.13.87q-.502-.085-1.01.003-.508.07-.963.444-.277.229-.42.497-.145.268-.181.547-.026.27.05.524.075.253.238.45.31.376.743.418.435.023.97-.053l1.118-.174q.703-.114 1.244.038.542.134.99.678.359.435.492.94.134.504.057 1.015-.084.502-.377.992t-.788.898q-.672.555-1.454.734-.78.162-1.657-.096l.213-.89zM57.86 39.034l-2.053 1.31-.32-.814 4.959-3.162.32.813-2.063 1.316 2.793 7.17-.843.537-2.793-7.17zM62.704 35.326l4.193-1.984.206.825-3.301 1.561.68 2.698 2.792-1.321.2.841-2.769 1.31.757 3.129 3.406-1.611.2.84-4.286 2.028-2.078-8.316zM69.804 32.317l1.14-.344 2.009 4.133.772 1.587.05-.015.356-1.927 1.083-5.064 1.141-.344.818 8.533-.92.277-.435-4.82q-.056-.586-.089-1.272-.036-.698-.048-1.27l-.05.015-.429 2.083-1.081 4.983-.54.163-2.035-4.044-.81-1.71-.049.015.2 1.238q.102.651.17 1.233l.46 4.813-.895.27-.818-8.533zM78.765 40.097q.552-.333.838-.774.287-.43.305-.914l-.026.004q-.29.052-.506-.065-.206-.132-.258-.423-.056-.315.115-.593.182-.293.548-.358.328-.059.545.136.217.196.285.574.167.934-.276 1.729-.441.808-1.327 1.24l-.243-.555zM85.565 31.358l.984-.072-.802 6.302-.97.07.788-6.3zm.737-1.351q-.255.018-.457-.108-.19-.14-.21-.422-.024-.32.179-.54.214-.234.508-.255.255-.018.445.122.203.14.224.42.023.32-.192.541-.203.22-.497.242zM89.061 32.01l-.91.003.139-.73.973-.068.456-1.719.833-.003-.34 1.719 1.576-.006-.151.795-1.602.006-.718 3.564q-.038.231-.037.462.001.384.168.576.18.191.629.19.18 0 .346-.065.166-.065.307-.13l.22.704q-.217.104-.512.194-.294.091-.666.092-.41.002-.692-.112-.282-.102-.462-.28-.18-.192-.258-.436-.078-.256-.079-.55 0-.193.012-.346l.05-.346.718-3.514zM93.963 30.177l.267-1.164.96.061-.32 1.161-.662 1.922-.665-.043.42-1.937zM95.182 36.178q.233.448.603.76.372.298.854.367.266.038.505-.006.254-.054.452-.168.21-.113.337-.276.128-.176.159-.391.023-.165-.02-.314-.03-.146-.14-.291-.107-.158-.315-.33-.196-.17-.488-.393-.667-.497-.955-.926-.288-.43-.212-.962.058-.406.272-.725.226-.317.54-.519.326-.199.724-.272.414-.083.845-.021.57.081.982.373.424.293.714.71l-.636.466q-.217-.29-.496-.511-.28-.221-.698-.28-.495-.071-.879.171-.37.232-.426.626-.027.19.04.355.067.165.202.313.134.149.308.29.186.143.386.288.386.288.621.542.25.243.385.482.148.228.18.453.046.226.01.48-.061.431-.29.761-.215.332-.569.54-.338.198-.788.263-.438.08-.933.01-.305-.044-.609-.178-.292-.132-.562-.326-.255-.205-.466-.455-.197-.248-.315-.51l.678-.396zM105.346 33.35l.77.242-.365.866.049.016q.651-.28 1.245-.416.597-.148 1.16.028.757.238.952.729.208.495-.01 1.192-.066.207-.148.383-.07.18-.207.405l-1.947 3.553-.93-.292 1.885-3.438q.125-.229.196-.368.07-.139.12-.298.142-.452.007-.75-.135-.297-.6-.443-.354-.111-.875.007-.509.123-1.247.51l-2.163 3.94-.93-.29 3.038-5.575zM110.763 42.105q-.92-.424-1.187-1.281-.268-.857.22-1.916.37-.803.937-1.36.568-.557 1.218-.835.656-.29 1.326-.306.676-.027 1.258.24.92.425 1.187 1.282.28.863-.209 1.922-.37.803-.949 1.354-.567.557-1.223.847-.639.284-1.326.306-.67.015-1.252-.253zm3.34-4.767q-.383-.177-.863-.116-.474.05-.948.311-.467.25-.883.693-.416.443-.69 1.037-.354.768-.24 1.314.127.553.72.826.396.183.859.128.48-.061.947-.311.468-.25.884-.693.416-.443.69-1.037.354-.768.228-1.32-.11-.558-.703-.832zM118.55 39.834l-.784-.463.494-.557.87.441 1.273-1.242.716.425-1.173 1.3 1.356.804-.537.605-1.378-.816-2.444 2.692q-.151.179-.269.377-.196.331-.15.581.056.257.442.486.154.091.33.121.176.03.33.047l-.172.717q-.24-.023-.539-.096-.299-.073-.619-.263-.352-.209-.536-.452-.19-.231-.253-.477-.057-.257.001-.506.065-.26.215-.513.098-.165.187-.291.107-.13.22-.271l2.42-2.649zM120.423 48.528q-.686.605-1.366.78-.67.182-1.313-.307-.234-.178-.369-.361-.144-.191-.248-.415l.697-.387q.056.139.135.247.07.118.234.243.285.217.645.104.35-.12.793-.492l5.384-4.726.785.598-5.377 4.716zm6.028-5.847q-.193-.147-.261-.376-.05-.231.121-.455.194-.255.492-.286.305-.042.55.144.193.148.243.379.06.239-.11.463-.195.255-.503.278-.297.031-.532-.147zM126.168 52.408l-.594-.547.718-.628-.038-.034q-.68-.018-1.302-.137-.604-.12-1.028-.511-.584-.538-.561-1.074.041-.537.527-1.065.148-.16.288-.293.149-.124.37-.269l3.275-2.384.725.669-3.179 2.298q-.211.154-.334.25-.123.095-.236.218-.321.349-.326.675-.004.327.354.657.273.251.785.357.512.106 1.336.063l3.636-2.643.717.66-5.133 3.738zM128.872 53.006q-.118.49-.044.969.084.47.402.838.176.203.385.328.227.125.45.169.233.053.436.014.212-.048.377-.19.126-.11.19-.25.074-.131.087-.312.023-.189-.02-.456-.037-.257-.11-.616-.177-.813-.112-1.326.065-.513.472-.865.31-.268.681-.368.38-.09.748-.036.377.064.725.271.366.209.65.539.378.436.496.926.127.5.072 1.005l-.785-.067q.026-.361-.04-.711-.064-.35-.34-.67-.327-.379-.777-.448-.43-.068-.731.192-.146.126-.204.294-.058.168-.054.369.004.2.042.42.047.231.102.471.102.471.113.817.029.347-.027.616-.038.27-.161.46-.115.201-.309.369-.33.284-.718.383-.38.108-.784.034-.386-.074-.767-.32-.383-.228-.71-.606-.2-.233-.342-.534-.134-.291-.21-.615-.058-.322-.052-.649.014-.317.098-.592l.77.147zM136.105 55.68l-.53-.739.675-.312.62.754 1.664-.627.486.677-1.597.72.92 1.28-.736.34-.934-1.302-3.32 1.484q-.21.104-.396.238-.313.225-.372.472-.051.258.21.622.105.146.254.244.15.098.284.175l-.446.588q-.21-.117-.455-.304-.245-.188-.461-.49-.24-.332-.31-.629-.081-.288-.04-.539.051-.258.204-.462.164-.212.403-.384.156-.112.288-.191l.311-.16 3.278-1.455zM136.604 62.406q.8-.406 1.625-.507.825-.102 1.553.06.729.164 1.298.55.57.387.865.97.225.446.17.905-.049.47-.328.855l.023.046.808-.136.359.709-6.118 1.704-.364-.72.869-.326-.023-.045q-.637-.18-1.155-.55-.517-.37-.784-.896-.37-.732-.076-1.427.295-.695 1.278-1.192zm-.308 2.568q.22.435.697.753.495.325 1.252.458l2.735-.753q.313-.46.363-.844.05-.384-.113-.704-.208-.412-.656-.673-.437-.267-1-.356-.561-.09-1.191 0-.613.095-1.184.384-.72.365-.936.818-.204.448.033.917zM138.311 72.703l-2.066.2-.278-.934 8.992-.827.23.774-.808.16.01.036q.516.342.94.777.44.444.607 1.01.234.786-.192 1.42-.414.631-1.459.941-.86.256-1.689.208-.83-.047-1.517-.337-.684-.278-1.179-.773-.49-.482-.673-1.097-.139-.466-.015-.904.136-.442.447-.788l-.007-.025-1.343.159zm6.739 1.085q-.124-.418-.532-.844-.404-.415-.998-.706l-3.018.281q-.393.385-.499.75-.105.366 0 .722.132.442.514.783.395.337.928.513.537.188 1.157.204.636.025 1.262-.16.762-.227 1.042-.631.297-.396.144-.912zM149.83 78.658l.158.974-3.071-.126-.805-.077.009.05q.528.46.901.919.386.457.478 1.026.127.784-.225 1.179-.35.407-1.07.523-.215.035-.41.04-.191.019-.454-.004l-4.048-.15-.156-.96 3.918.144q.26.01.417.01.155.001.32-.025.468-.076.673-.33.206-.254.128-.735-.06-.366-.398-.779-.338-.4-1.014-.887l-4.492-.169-.156-.961 9.297.338zM143.66 84.941q.896-.028 1.686.23.79.257 1.381.712.591.456.943 1.048.352.591.373 1.244.016.5-.229.892-.243.405-.659.636l.002.051.788.22.025.793-6.263-1.047-.025-.806.925.073-.002-.051q-.5-.433-.813-.987-.312-.555-.33-1.144-.026-.82.535-1.324.56-.505 1.662-.54zm-1.368 2.197q.016.487.313.977.31.503.94.945l2.797.476q.478-.284.686-.61.208-.328.196-.687-.014-.46-.31-.887-.282-.427-.754-.746-.471-.318-1.08-.504-.595-.174-1.235-.154-.807.026-1.194.346-.375.319-.358.844zM143.169 92.082q-.434.259-.724.646-.277.388-.318.873-.023.268.034.504.069.25.194.441.124.204.294.321.183.118.4.137.166.014.312-.038.145-.039.283-.156.152-.116.311-.333.16-.206.365-.51.458-.694.87-1.006.412-.312.949-.267.408.035.739.23.33.208.548.51.218.314.313.708.107.408.07.842-.049.574-.317 1.002-.268.44-.668.753l-.501-.608q.277-.234.481-.525.205-.291.241-.713.042-.498-.222-.867-.253-.356-.649-.39-.191-.016-.352.06-.16.077-.301.219-.141.142-.272.324-.132.195-.266.402-.265.402-.505.651-.228.264-.46.412-.219.161-.441.206-.224.059-.48.037-.433-.037-.776-.246-.343-.196-.571-.537-.217-.327-.308-.772-.105-.434-.062-.931.026-.307.142-.619.115-.298.294-.579.19-.267.427-.491.237-.211.492-.344l.433.654zM143.61 97.476q.867.17 1.515.598.66.43 1.073.982.424.566.587 1.2.16.644.042 1.248-.101.515-.347.833-.235.332-.58.5-.335.169-.77.188-.421.021-.887-.07-.364-.072-.676-.212-.312-.14-.476-.237l.781-3.973q-.573-.204-1.02-.187-.435.019-.757.19-.323.185-.516.5-.192.314-.271.717-.072.364.01.746.092.397.248.728l-.715.251q-.192-.416-.295-.959-.09-.54.03-1.143.214-1.094.997-1.62.795-.522 2.027-.28zm.266 4.492q.146.055.294.097.146.055.322.09.264.052.515.036.264-.014.48-.115.216-.101.373-.305.158-.204.222-.531.067-.34-.007-.694-.076-.341-.286-.67-.21-.328-.53-.626-.323-.286-.753-.488l-.63 3.206z"/></g><g style="line-height:125%;-inkscape-font-specification:'Source Sans Pro, Light';text-align:start" font-weight="300" font-size="12.5" font-family="Source Sans Pro" letter-spacing="0" word-spacing="0" fill="#fff"><path style="line-height:125%;-inkscape-font-specification:'Source Sans Pro, Light';text-align:start" d="M43.31 128.396l-1.593 1.498-.377-.4 6.348-5.968.325.346-.512.55.026.028q.555.079 1.106.264.56.194.945.604.822.874.623 1.885-.19 1.002-1.21 1.96-.556.523-1.139.78-.582.255-1.149.273-.549.019-1.046-.182-.48-.2-.84-.583-.291-.31-.463-.766-.162-.465-.233-1.051l-.81.762zm1.194-1.122q.05.674.23 1.122.181.448.42.703.31.327.72.473.411.145.864.097.452-.048.92-.281.484-.233.93-.652.401-.377.67-.784.278-.398.37-.793.1-.404-.011-.797-.103-.4-.454-.774-.308-.328-.833-.503-.508-.175-1.23-.25l-2.596 2.44zM53.3 127.115q-.158-.142-.178-.344-.01-.194.131-.353.159-.176.345-.178.203-.002.361.14.159.142.17.336.027.193-.131.37-.142.158-.346.16-.194.011-.352-.13zm-1.182.888l.41.367-4.006 4.467-.41-.367 4.006-4.467zM50.372 135.118l-1.32 1.744-.439-.332 5.258-6.947.379.286-.413.629.03.022q.56-.015 1.135.075.584.098 1.033.437.957.724.93 1.754-.02 1.02-.865 2.137-.46.608-.991.958-.532.35-1.087.463-.538.11-1.063-.005-.507-.117-.926-.434-.338-.257-.584-.678-.238-.43-.406-.996l-.671.887zm.988-1.306q.162.656.415 1.067.254.41.533.622.359.272.788.346.43.074.868-.049t.86-.431q.438-.31.808-.799.332-.439.529-.885.207-.44.23-.844.033-.415-.143-.783-.169-.379-.577-.688-.36-.271-.906-.356-.53-.088-1.255-.04l-2.15 2.84zM56.877 135.54q.38-.633.864-1.027.495-.388 1.012-.545.534-.16 1.04-.105.523.052.952.309.921.553 1.074 1.49.152.936-.53 2.073l-.115.193q-.058.096-.138.18l-3.708-2.225q-.28.489-.39.99-.105.491-.039.94.084.443.334.827.258.373.697.636.418.251.821.332.42.078.839.037l-.026.48q-.42-.004-.892-.069-.46-.057-1.029-.398-.493-.296-.823-.742-.32-.44-.435-.975-.11-.547-.007-1.156.12-.613.5-1.245zm3.95 1.946q.597-.997.486-1.734-.105-.749-.802-1.166-.332-.2-.716-.24-.384-.041-.785.068-.39.116-.776.395-.368.274-.688.71l3.28 1.967zM65.059 133.314l.49.248-3.721 7.377q-.09.178-.068.301.027.112.128.163l.067.034q.044.022.145.045l-.113.447q-.09-.017-.174-.046-.089-.017-.212-.079-.658-.332-.23-1.18l3.688-7.31zM66.979 135.938q-.194-.087-.275-.274-.07-.181.018-.375.097-.217.273-.275.193-.064.387.023.194.086.264.268.085.175-.012.392-.087.194-.28.258-.181.07-.375-.017zm-.855 1.206l.502.225-2.452 5.476-.502-.225 2.452-5.476zM68.327 138.13l.446.162-.267.887.035.013q.592-.278 1.153-.395.564-.128 1.152.085.882.318 1.102.996.22.678-.18 1.783l-1.308 3.62-.517-.186 1.283-3.55q.327-.906.175-1.44-.137-.54-.83-.791-.506-.183-1.015-.061-.505.11-1.214.452l-1.538 4.255-.517-.187 2.04-5.643zM72.829 142.891q.182-.714.534-1.23.363-.514.813-.812.465-.307.966-.4.516-.1 1 .024 1.042.266 1.456 1.12.414.854.086 2.138l-.055.218q-.028.109-.08.211l-4.19-1.07q-.128.549-.09 1.061.04.5.231.911.207.401.557.697.354.284.85.41.473.121.882.084.425-.047.814-.205l.113.467q-.404.116-.875.19-.458.076-1.1-.088-.557-.142-1-.475-.433-.33-.697-.81-.261-.492-.337-1.105-.06-.621.122-1.336zm4.34.734q.288-1.126-.03-1.8-.315-.687-1.102-.888-.375-.096-.755-.025-.379.07-.732.29-.34.223-.63.6-.275.369-.456.877l3.706.946zM80.744 146.19q.118-.98 1.112-1.388.994-.409 3.007-.392.053-.333.031-.676-.007-.353-.137-.633-.116-.291-.382-.487-.252-.207-.686-.26-.608-.073-1.133.102-.525.176-.85.363l-.198-.44q.174-.092.414-.201.253-.108.54-.187.298-.077.642-.11.346-.047.706-.003.533.065.87.294.34.218.525.555.186.337.222.77.05.421-.01.905l-.461 3.81-.46-.056.032-.777-.025-.003q-.503.304-1.07.525-.555.21-1.15.138-.36-.044-.659-.18-.298-.138-.522-.366-.212-.227-.31-.554-.1-.327-.048-.749zm.573.045q-.078.645.261.963.34.318.848.38.522.063 1.023-.128.502-.191 1.117-.595l.245-2.023q-.931 0-1.584.085-.64.086-1.052.263-.411.177-.62.441-.195.266-.238.614zM87.477 142.826l-.936-.042.019-.425.951-.007.153-1.733.475.022-.078 1.735 1.735.079-.02.474-1.737-.078-.175 3.908q-.013.288.013.527.04.227.145.407.105.167.288.275.195.097.508.11.175.009.377-.032.215-.053.38-.12l.13.455q-.267.089-.532.14-.265.05-.452.041-.437-.02-.718-.17-.282-.137-.446-.383-.164-.245-.224-.585-.047-.34-.03-.74l.174-3.858zM93.346 142.871l-.937.047-.02-.424.945-.098-.012-1.739.474-.024.088 1.736 1.735-.088.024.475-1.735.087.196 3.908q.015.287.064.522.061.222.182.391.12.157.313.248.204.077.516.061.175-.009.372-.069.21-.073.368-.156l.172.442q-.257.113-.516.189t-.446.085q-.437.022-.731-.1-.293-.111-.48-.34-.187-.228-.279-.561-.08-.334-.1-.734l-.193-3.857zM96.395 145.261q-.092-.732.045-1.341.15-.611.46-1.053.32-.456.753-.725.443-.282.94-.345 1.066-.134 1.764.509t.864 1.957l.028.224q.014.111.003.226l-4.291.54q.082.556.304 1.02.221.45.55.762.34.298.774.445.433.134.941.07.484-.06.851-.245.378-.2.682-.49l.276.394q-.333.256-.744.497-.398.239-1.055.322-.57.071-1.106-.075-.522-.149-.944-.499-.424-.362-.719-.905-.284-.556-.376-1.288zm4.308-.907q-.145-1.154-.688-1.665-.545-.523-1.351-.422-.385.048-.712.253-.327.205-.574.539-.236.332-.367.79-.12.443-.103.982l3.795-.477zM101.903 141.464l.463-.105.254.89.037-.008q.348-.553.756-.954.406-.413 1.016-.552.914-.208 1.465.243.552.451.813 1.597l.855 3.754-.536.122-.839-3.68q-.214-.94-.63-1.306-.408-.381-1.127-.217-.524.119-.887.496-.365.366-.776 1.036l1.005 4.412-.537.123-1.332-5.85zM107.734 140.048l.449-.154.348.858.035-.012q.287-.588.65-1.03.36-.454.951-.657.887-.304 1.484.085.596.39.978 1.501l1.251 3.641-.52.18-1.227-3.571q-.313-.91-.766-1.23-.446-.336-1.143-.096-.509.174-.83.588-.324.403-.66 1.113l1.47 4.28-.52.178-1.95-5.674zM114.202 140.942q-.312-.669-.368-1.291-.044-.627.115-1.143.165-.533.494-.92.336-.406.789-.617.974-.455 1.836-.057.861.398 1.422 1.599l.095.204q.047.102.072.214l-3.919 1.83q.25.504.603.877.348.361.757.557.414.179.873.186.453-.005.917-.222.442-.206.735-.494.299-.305.499-.675l.383.29q-.238.346-.555.701-.306.35-.906.63-.521.243-1.076.267-.543.02-1.052-.185-.514-.215-.961-.64-.441-.443-.753-1.111zm3.822-2.185q-.491-1.053-1.165-1.373-.679-.332-1.415.012-.351.164-.6.46-.248.294-.382.688-.122.388-.107.864.021.459.203.967l3.466-1.618zM120.408 140.047q.498.084.99.056.484-.04 1.045-.37.614-.36.738-.84.128-.496-.113-.905-.14-.237-.366-.35-.215-.12-.475-.142-.259-.021-.542.015-.273.03-.55.077-.354.063-.725.122-.36.053-.693.031-.338-.033-.622-.17-.28-.155-.476-.489-.165-.28-.203-.59-.045-.323.063-.633.1-.32.34-.606.248-.291.657-.532.41-.241.886-.319.488-.084.907-.012l-.062.486q-.372-.041-.74 0-.373.032-.771.267-.302.177-.466.39-.172.202-.246.42-.064.212-.038.429.037.21.138.383.133.226.326.33.196.088.438.105t.515-.013l.554-.094.742-.118q.372-.06.71-.027.35.027.652.197.297.159.52.536.17.29.21.63.045.321-.06.66-.113.326-.366.635-.254.309-.674.556-.581.343-1.187.423-.611.07-1.127-.017l.07-.52zM124.65 137.48q.504.04.99-.032.48-.082 1.009-.46.579-.415.66-.903.084-.506-.193-.892-.16-.224-.395-.317-.226-.1-.486-.098-.26.002-.539.063-.269.054-.54.125-.348.095-.712.187-.355.085-.687.092-.34-.002-.636-.114-.292-.129-.517-.444-.19-.264-.255-.57-.073-.317.006-.636.073-.328.285-.633.222-.313.608-.59.386-.276.854-.396.478-.127.902-.092l-.018.49q-.375-.009-.737.066-.369.064-.745.333-.285.204-.43.43-.152.217-.207.441-.045.217 0 .43.056.207.172.37.153.213.354.3.203.07.446.065.243-.005.511-.059l.544-.143.729-.184q.365-.092.705-.09.35-.004.667.138.31.132.564.488.196.274.266.609.073.316-.002.662-.082.336-.307.666-.225.33-.621.614-.55.393-1.145.527-.603.124-1.125.083l.025-.525zM127.419 133.113q-.466-.572-.672-1.162-.196-.597-.168-1.137.03-.556.255-1.013.227-.474.614-.79.834-.679 1.767-.503.932.175 1.769 1.203l.142.175q.071.087.123.19l-3.354 2.73q.364.429.798.704.426.266.87.356.446.072.892-.033.438-.115.836-.439.378-.308.591-.659.216-.369.32-.776l.443.188q-.147.394-.368.815-.212.414-.725.832-.446.363-.978.522-.522.15-1.065.077-.551-.083-1.089-.387-.536-.321-1.001-.893zm3.174-3.051q-.734-.902-1.466-1.048-.739-.155-1.37.357-.3.245-.468.592-.17.347-.203.761-.024.407.107.864.133.44.433.889l2.967-2.415zM131.86 129.471q-.52-.524-.782-1.091-.253-.576-.277-1.115-.024-.557.155-1.034.18-.494.535-.845.764-.757 1.71-.672.945.084 1.877 1.025l.158.16q.08.08.14.178l-3.073 3.043q.405.39.863.623.45.223.9.27.451.028.885-.12.425-.157.79-.517.346-.343.524-.714.179-.388.243-.803l.459.144q-.108.406-.287.847-.17.432-.641.898-.409.405-.922.614-.505.201-1.053.18-.557-.029-1.121-.279-.565-.268-1.084-.792zm2.862-3.344q-.818-.827-1.56-.901-.75-.083-1.328.488-.275.273-.41.635-.134.361-.127.777.015.407.19.85.175.425.517.842l2.718-2.691z"/></g><path d="M65.585 47.543a48.215 48.215 0 0 1 65.862 17.647 48.215 48.215 0 0 1-17.648 65.863 48.215 48.215 0 0 1-65.862-17.648 48.215 48.215 0 0 1 17.648-65.862z" opacity=".98" fill="none" stroke="#fff" stroke-width="3.7"/></svg>