<?xml version="1.0" encoding="UTF-8" standalone="no"?>
<svg
   xmlns:osb="http://www.openswatchbook.org/uri/2009/osb"
   xmlns:dc="http://purl.org/dc/elements/1.1/"
   xmlns:cc="http://creativecommons.org/ns#"
   xmlns:rdf="http://www.w3.org/1999/02/22-rdf-syntax-ns#"
   xmlns:svg="http://www.w3.org/2000/svg"
   xmlns="http://www.w3.org/2000/svg"
   version="1.1"
   id="svg2"
   viewBox="0 0 180 180"
   height="2in"
   width="2in">
  <defs
     id="defs4">
    <linearGradient
       osb:paint="solid"
       id="linearGradient17107">
      <stop
         id="stop17109"
         offset="0"
         style="stop-color:#1e97a8;stop-opacity:1;" />
    </linearGradient>
  </defs>
  <metadata
     id="metadata7">
    <rdf:RDF>
      <cc:Work
         rdf:about="">
        <dc:format>image/svg+xml</dc:format>
        <dc:type
           rdf:resource="http://purl.org/dc/dcmitype/StillImage" />
        <dc:title></dc:title>
      </cc:Work>
    </rdf:RDF>
  </metadata>
  <g
     style="display:inline"
     id="layer2">
    <path
       id="path4136-4"
       d="M 155.08929,90 A 65.089287,65.089287 0 0 0 90,24.910713 65.089287,65.089287 0 0 0 24.910713,90 65.089287,65.089287 0 0 0 90,155.08929 65.089287,65.089287 0 0 0 155.08929,90 Z"
       style="opacity:0.98000004;fill:#754a7e;fill-opacity:1;stroke:#1e97a8;stroke-width:4.82142878;stroke-linejoin:miter;stroke-miterlimit:4;stroke-dasharray:none;stroke-opacity:1" />
    <path
       id="path4136-4-7"
       d="M 63.560864,43.958173 A 52.071429,52.071429 0 0 1 134.69176,63.017635 52.071429,52.071429 0 0 1 115.63229,134.14853 52.071429,52.071429 0 0 1 44.501402,115.08906 52.071429,52.071429 0 0 1 63.560864,43.958173 Z"
       style="display:inline;opacity:0.98000004;fill:#1e97a8;fill-opacity:1;stroke:#754a7e;stroke-width:3.85714293;stroke-linejoin:miter;stroke-miterlimit:4;stroke-dasharray:none" />
    <path
       d="m 89.210198,91.89641 c -0.263739,0.63387 -1.10538,0.675658 -1.62372,0.358527 -0.939117,-0.574574 -0.959186,-1.889442 -0.358819,-2.7137 0.933146,-1.28114 2.808027,-1.270648 3.975052,-0.330375 1.657119,1.33514 1.608161,3.842037 0.27994,5.385125 -1.776742,2.064168 -4.978711,1.969911 -6.928386,0.211408 -2.499909,-2.254785 -2.354336,-6.208734 -0.127328,-8.593297 2.766674,-2.962408 7.524921,-2.76011 10.370855,-0.02951 3.450061,3.310249 3.1861,8.9215 -0.0807,12.25377 -3.883691,3.961519 -10.393711,3.631329 -14.235987,-0.202253 -4.495624,-4.485448 -4.094937,-11.937536 0.334292,-16.312373 5.114174,-5.051369 13.549528,-4.576175 18.478499,0.476126 5.627869,5.76869 5.074379,15.226682 -0.627169,20.730499 -6.447955,6.22435 -16.966354,5.58893 -23.064958,-0.78692 -6.840083,-7.151042 -6.119301,-18.766193 0.954954,-25.47883 7.87711,-7.474453 20.624084,-6.664993 27.969372,1.130886 8.12688,8.625409 7.22556,22.538124 -1.31438,30.534114 -9.395254,8.79682 -24.506581,7.80057 -33.170795,-1.50516 -9.483806,-10.185996 -8.389654,-26.527852 1.702928,-35.877332 10.997083,-10.187383 28.600507,-8.992458 38.651847,1.907462 10.90714,11.827963 9.60865,30.72317 -2.11854,41.49257 C 95.599009,126.18983 75.382537,124.78506 63.879295,112.21119 51.48564,98.664026 52.999313,77.097518 66.438828,64.844985 80.873419,51.685262 103.81808,53.310419 116.83501,67.634082 c 13.94057,15.340024 12.20142,39.690358 -3.02449,53.486468 -16.263083,14.7359 -42.046018,12.8803 -56.635814,-3.26557 -15.545418,-17.20341 -13.570978,-44.445348 3.512201,-59.843035 18.16068,-16.368877 46.887503,-14.273247 63.107023,3.764252 17.20602,19.134561 14.9869,49.371673 -4.0216,66.426733 -11.09448,9.95434 -26.500858,14.25599 -41.162268,11.67746"
       id="path5226"
       style="fill:none;fill-rule:evenodd;stroke:#754a7e;stroke-width:1.55437112px;stroke-linecap:butt;stroke-linejoin:miter;stroke-opacity:1" />
    <g
       transform="matrix(0.96107528,0,0,0.96107528,1.9508874,3.8767849)"
       id="g5222">
      <path
         id="path4982-8-5-6-3-5-2-6-0"
         style="display:inline;fill:#754a7e;fill-rule:evenodd;stroke:#ffffff;stroke-width:1px;stroke-linecap:butt;stroke-linejoin:miter;stroke-opacity:1"
         d="m 45.787629,108.10539 c 5.954786,-2.75 7.287697,-18.35738 7.678994,-21.32752 0.368287,-2.795487 1.932398,-23.984974 6.664054,-23.984973 4.731657,10e-7 6.295767,21.189487 6.664054,23.984974 0.391297,2.97014 1.138622,21.327519 7.888626,21.327519 6.750004,0 7.497329,-18.357379 7.888626,-21.327519 0.368287,-2.795487 1.932398,-23.984974 6.664054,-23.984973 4.731657,10e-7 6.295767,21.189487 6.664054,23.984974 0.391297,2.97014 1.138623,21.327518 7.888629,21.327518 6.75001,0 7.49733,-18.35738 7.88862,-21.327519 0.36829,-2.795487 1.9324,-23.984974 6.66406,-23.984973 4.73165,10e-7 6.29576,21.189487 6.66405,23.984974 0.3913,2.970138 1.72421,18.577518 7.679,21.327518" />
      <path
         id="path4982-8-5-6-3-5-2-6-0-2"
         style="display:inline;fill:#1e97a8;fill-opacity:0.50196078;fill-rule:evenodd;stroke:#ffffff;stroke-width:1px;stroke-linecap:butt;stroke-linejoin:miter;stroke-opacity:1"
         d="m 49.301589,108.1325 c 5.954786,-2.75 7.287697,-18.357382 7.678994,-21.327522 0.368287,-2.795487 1.932398,-23.984974 6.664054,-23.984973 4.731657,10e-7 6.295767,21.189487 6.664054,23.984974 0.391297,2.97014 1.138622,21.327521 7.888626,21.327521 6.750004,0 7.497329,-18.357381 7.888626,-21.327521 0.368287,-2.795487 1.932398,-23.984974 6.664054,-23.984973 4.731657,10e-7 6.295767,21.189487 6.664054,23.984974 0.391297,2.97014 1.138619,21.32752 7.888629,21.32752 6.75001,0 7.49733,-18.357382 7.88862,-21.327521 0.36829,-2.795487 1.9324,-23.984974 6.66406,-23.984973 4.73165,10e-7 6.29576,21.189487 6.66405,23.984974 0.3913,2.970138 1.72421,18.57752 7.679,21.32752" />
    </g>
    <g
       id="text4222"
       style="font-style:italic;font-variant:normal;font-weight:normal;font-stretch:normal;font-size:12.81375027px;line-height:125%;font-family:'Source Sans Pro';-inkscape-font-specification:'Source Sans Pro, Italic';text-align:start;letter-spacing:0px;word-spacing:0px;writing-mode:lr-tb;text-anchor:start;fill:#ffffff;fill-opacity:1;stroke:none;stroke-width:1px;stroke-linecap:butt;stroke-linejoin:miter;stroke-opacity:1"
       transform="matrix(0.34202015,-0.93969262,0.93969262,0.34202015,-24.729704,143.25673)">
      <path
         id="path5244"
         style="font-style:italic;font-variant:normal;font-weight:normal;font-stretch:normal;font-size:12.81375027px;line-height:125%;font-family:'Source Sans Pro';-inkscape-font-specification:'Source Sans Pro, Italic';text-align:start;writing-mode:lr-tb;text-anchor:start"
         d="m 59.118537,36.704432 0.913564,-0.465007 1.984148,4.180582 q 0.273809,0.622674 0.559037,1.239535 0.296647,0.611048 0.564849,1.250954 l 0.04568,-0.02325 q -0.05123,-0.750345 -0.08523,-1.495083 -0.034,-0.744738 -0.09084,-1.477851 l -0.225538,-5.07572 0.810787,-0.412694 2.20112,4.070143 q 0.313674,0.588004 0.627554,1.204659 0.308067,0.605236 0.621947,1.221892 l 0.04568,-0.02325 q -0.08549,-0.732907 -0.153746,-1.460207 -0.05684,-0.733113 -0.136513,-1.454601 l -0.476768,-4.947843 0.879305,-0.447569 0.729779,9.06062 -1.130535,0.575446 -2.410784,-4.538549 Q 64.182783,37.275534 63.956092,36.830172 63.735008,36.367577 63.531157,35.91059 l -0.04568,0.02325 q 0.06682,0.526739 0.09356,1.059495 0.03816,0.526944 0.07072,1.071121 l 0.286748,5.619691 -1.107696,0.563821 -3.710281,-7.543536 z" />
      <path
         id="path5246"
         style="font-style:italic;font-variant:normal;font-weight:normal;font-stretch:normal;font-size:12.81375027px;line-height:125%;font-family:'Source Sans Pro';-inkscape-font-specification:'Source Sans Pro, Italic';text-align:start;writing-mode:lr-tb;text-anchor:start"
         d="m 72.975128,39.854147 q -0.962331,0.314075 -1.74159,-0.132503 -0.779259,-0.446578 -1.141041,-1.555086 -0.274319,-0.840517 -0.236915,-1.634502 0.0374,-0.793985 0.325115,-1.440521 0.283735,-0.658717 0.764821,-1.125744 0.477111,-0.479209 1.086181,-0.67799 0.962331,-0.314076 1.741589,0.132503 0.791441,0.442602 1.153223,1.551109 0.274319,0.840517 0.224734,1.638478 -0.0374,0.793985 -0.32114,1.452702 -0.275529,0.642561 -0.764821,1.125745 -0.481086,0.467027 -1.090156,0.665809 z m -0.790415,-5.767113 q -0.401987,0.131196 -0.712279,0.502044 -0.314267,0.358667 -0.483631,0.872226 -0.173339,0.501377 -0.177157,1.109174 -0.0038,0.607798 0.19894,1.229049 0.262392,0.803973 0.718256,1.126955 0.468045,0.319007 1.089296,0.11625 0.414168,-0.135172 0.716254,-0.489863 0.310292,-0.370848 0.483632,-0.872225 0.173339,-0.501378 0.177156,-1.109175 0.0038,-0.607798 -0.19894,-1.229049 -0.262392,-0.803973 -0.730437,-1.122979 -0.459839,-0.335164 -1.08109,-0.132407 z" />
      <path
         id="path5248"
         style="font-style:italic;font-variant:normal;font-weight:normal;font-stretch:normal;font-size:12.81375027px;line-height:125%;font-family:'Source Sans Pro';-inkscape-font-specification:'Source Sans Pro, Italic';text-align:start;writing-mode:lr-tb;text-anchor:start"
         d="m 77.271576,31.950401 0.797885,-0.122717 0.05354,0.938167 0.05066,-0.0078 q 0.41114,-0.529954 0.896313,-0.915721 0.483226,-0.398432 0.964489,-0.472452 0.36728,-0.05649 0.63616,0.0059 0.266932,0.0497 0.456897,0.189016 0.188018,0.126656 0.311734,0.340987 0.121768,0.201667 0.19872,0.44912 0.507592,-0.661468 1.003482,-1.061848 0.508556,-0.402328 0.989819,-0.476348 0.772555,-0.118821 1.176838,0.23386 0.404283,0.352682 0.515312,1.074577 0.03311,0.215302 0.037,0.409171 0.0039,0.193868 -0.0078,0.454956 l -0.181373,4.046866 -0.975192,0.149988 0.188187,-3.91827 q 0.0117,-0.261088 0.01366,-0.416962 0.002,-0.155874 -0.02337,-0.320517 -0.146091,-0.949862 -1.045294,-0.811562 -0.265962,0.04091 -0.68099,0.376991 -0.415028,0.336086 -0.882678,1.004375 l -0.203799,4.491106 -0.962527,0.14804 0.175523,-3.916323 q 0.0117,-0.261088 0.01366,-0.416962 0.002,-0.155873 -0.02337,-0.320516 -0.146092,-0.949862 -1.03263,-0.81351 -0.278626,0.04285 -0.693655,0.378939 -0.415028,0.336085 -0.870013,1.002427 l -0.203799,4.491106 -0.962527,0.148039 0.269149,-6.342104 z" />
      <path
         id="path5250"
         style="font-style:italic;font-variant:normal;font-weight:normal;font-stretch:normal;font-size:12.81375027px;line-height:125%;font-family:'Source Sans Pro';-inkscape-font-specification:'Source Sans Pro, Italic';text-align:start;writing-mode:lr-tb;text-anchor:start"
         d="m 87.243272,34.512374 q 0.0048,-0.884136 0.303478,-1.600082 0.298709,-0.72876 0.762802,-1.238778 0.476977,-0.522761 1.067944,-0.801433 0.60378,-0.278602 1.218831,-0.275236 0.525355,0.0029 0.883153,0.184229 0.370682,0.16861 0.599643,0.477397 0.229031,0.295974 0.329225,0.719383 0.100264,0.410595 0.09767,0.884697 -0.002,0.371593 -0.08074,0.704324 -0.0787,0.332732 -0.143754,0.511771 l -4.049085,-0.02216 q -0.09299,0.601746 0.0071,1.037968 0.100194,0.423408 0.329295,0.706569 0.241915,0.283231 0.587179,0.41326 0.345265,0.130029 0.755299,0.132273 0.371593,0.002 0.731215,-0.149765 0.372504,-0.164543 0.668408,-0.38076 l 0.380831,0.655595 q -0.373066,0.267051 -0.886731,0.469263 -0.513594,0.189398 -1.128645,0.186032 -1.114779,-0.0061 -1.777438,-0.676053 -0.662588,-0.682766 -0.655715,-1.938494 z m 4.362781,-1.10375 q 0.02647,-0.153622 0.04012,-0.307315 0.02647,-0.153622 0.02745,-0.333012 0.0015,-0.269085 -0.06126,-0.512893 -0.06267,-0.256622 -0.202563,-0.449596 -0.139897,-0.192975 -0.36991,-0.30956 -0.230013,-0.116584 -0.563165,-0.118407 -0.345966,-0.0019 -0.67989,0.137232 -0.321111,0.139196 -0.604482,0.406738 -0.283371,0.267542 -0.516048,0.637873 -0.219865,0.370401 -0.337711,0.831058 l 3.267457,0.01788 z" />
      <path
         id="path5252"
         style="font-style:italic;font-variant:normal;font-weight:normal;font-stretch:normal;font-size:12.81375027px;line-height:125%;font-family:'Source Sans Pro';-inkscape-font-specification:'Source Sans Pro, Italic';text-align:start;writing-mode:lr-tb;text-anchor:start"
         d="m 95.336692,31.007822 0.800556,0.103864 -0.209301,0.916089 0.05083,0.0066 q 0.593055,-0.388218 1.15362,-0.625597 0.562213,-0.250087 1.146747,-0.17425 0.787849,0.102216 1.065481,0.551713 0.290339,0.451145 0.196367,1.175458 -0.02803,0.216024 -0.07817,0.403335 -0.03744,0.18896 -0.133946,0.434862 l -1.298929,3.837031 -0.965751,-0.125297 1.257028,-3.713256 q 0.0838,-0.24755 0.129,-0.39674 0.0452,-0.14919 0.06663,-0.314384 0.061,-0.470168 -0.123699,-0.739633 -0.184699,-0.269464 -0.667574,-0.332113 -0.368511,-0.04781 -0.860593,0.159691 -0.479375,0.209149 -1.139746,0.717845 l -1.443934,4.257538 -0.96575,-0.125297 2.021136,-6.017453 z" />
      <path
         id="path5254"
         style="font-style:italic;font-variant:normal;font-weight:normal;font-stretch:normal;font-size:12.81375027px;line-height:125%;font-family:'Source Sans Pro';-inkscape-font-specification:'Source Sans Pro, Italic';text-align:start;writing-mode:lr-tb;text-anchor:start"
         d="m 105.21901,32.886455 0.95115,0.262301 -2.86612,5.669548 -0.9388,-0.258894 2.85377,-5.672955 z m 1.14698,-1.026195 q -0.24705,-0.06813 -0.39487,-0.255106 -0.13206,-0.195923 -0.0571,-0.467682 0.0852,-0.308816 0.34966,-0.448547 0.28026,-0.148678 0.56437,-0.07033 0.24706,0.06813 0.37912,0.264054 0.14441,0.199329 0.0695,0.471087 -0.0852,0.308816 -0.36201,0.445142 -0.2645,0.139731 -0.54861,0.06138 z" />
      <path
         id="path5256"
         style="font-style:italic;font-variant:normal;font-weight:normal;font-stretch:normal;font-size:12.81375027px;line-height:125%;font-family:'Source Sans Pro';-inkscape-font-specification:'Source Sans Pro, Italic';text-align:start;writing-mode:lr-tb;text-anchor:start"
         d="m 108.66055,33.931351 0.75487,0.286101 -0.41539,0.842899 0.0479,0.01817 q 0.66673,-0.240619 1.26699,-0.341995 0.60479,-0.113357 1.15596,0.09554 0.74289,0.281559 0.9091,0.783058 0.17819,0.506039 -0.0807,1.189015 -0.0772,0.203694 -0.16928,0.374342 -0.0801,0.175189 -0.23084,0.392123 l -2.15069,3.432868 -0.91063,-0.345138 2.08131,-3.32213 q 0.13875,-0.221475 0.21721,-0.356177 0.0785,-0.134702 0.1375,-0.290468 0.16802,-0.443335 0.0506,-0.748195 -0.11741,-0.304861 -0.57272,-0.47743 -0.34748,-0.131697 -0.8742,-0.04356 -0.51474,0.09268 -1.27481,0.434952 l -2.38896,3.808467 -0.91064,-0.345137 3.35734,-5.387301 z" />
      <path
         id="path5258"
         style="font-style:italic;font-variant:normal;font-weight:normal;font-stretch:normal;font-size:12.81375027px;line-height:125%;font-family:'Source Sans Pro';-inkscape-font-specification:'Source Sans Pro, Italic';text-align:start;writing-mode:lr-tb;text-anchor:start"
         d="m 115.1564,41.478866 q 0.034,0.674391 0.33516,1.223553 0.31867,0.544624 0.92591,0.902312 0.33122,0.195103 0.67681,0.264825 0.34559,0.06972 0.64838,0.01013 0.31383,-0.05309 0.58485,-0.235487 0.27103,-0.182399 0.45313,-0.491539 0.23412,-0.397467 0.13626,-0.812023 -0.0803,-0.419093 -0.33923,-0.913657 l -0.53994,-1.002133 q -0.29463,-0.560202 -0.39172,-1.152771 -0.0861,-0.586066 0.27813,-1.204347 0.24062,-0.408507 0.62085,-0.6753 0.39126,-0.260289 0.85195,-0.360716 0.46068,-0.100426 0.96024,-0.01437 0.5171,0.08152 1.00289,0.367669 0.6514,0.383702 1.01227,0.982925 0.36087,0.599223 0.44299,1.242458 l -0.86223,0.176199 q -0.092,-0.50031 -0.34832,-0.948745 -0.23881,-0.452971 -0.74668,-0.752128 -0.30914,-0.182096 -0.61057,-0.225804 -0.30143,-0.04371 -0.57563,0.01785 -0.26316,0.06806 -0.47505,0.225806 -0.21189,0.157747 -0.34196,0.378561 -0.24713,0.419548 -0.13824,0.840608 0.12644,0.416522 0.38083,0.893541 l 0.54645,0.991093 q 0.34786,0.621304 0.38975,1.181356 0.0594,0.555514 -0.29825,1.162755 -0.28615,0.485792 -0.71447,0.783741 -0.42831,0.297949 -0.93513,0.400946 -0.50031,0.09196 -1.06157,-0.01557 -0.56126,-0.107533 -1.1133,-0.432703 -0.75077,-0.442233 -1.18696,-1.115564 -0.41864,-0.677869 -0.47657,-1.589409 l 0.90897,-0.104057 z" />
      <path
         id="path5260"
         style="font-style:italic;font-variant:normal;font-weight:normal;font-stretch:normal;font-size:12.81375027px;line-height:125%;font-family:'Source Sans Pro';-inkscape-font-specification:'Source Sans Pro, Italic';text-align:start;writing-mode:lr-tb;text-anchor:start"
         d="m 126.18438,41.963074 -1.932,-1.481465 0.6546,-0.579919 4.66729,3.578908 -0.6546,0.579919 -1.94216,-1.489263 -5.78224,5.07691 -0.79314,-0.60818 5.78225,-5.07691 z" />
      <path
         id="path5262"
         style="font-style:italic;font-variant:normal;font-weight:normal;font-stretch:normal;font-size:12.81375027px;line-height:125%;font-family:'Source Sans Pro';-inkscape-font-specification:'Source Sans Pro, Italic';text-align:start;writing-mode:lr-tb;text-anchor:start"
         d="m 131.32562,45.246397 3.29825,3.261584 -0.70409,0.475099 -2.59669,-2.567821 -2.30178,1.562269 2.1958,2.171386 -0.72221,0.4752 -2.17758,-2.153366 -2.6811,1.78185 2.67869,2.64891 -0.72221,0.4752 -3.37114,-3.333662 7.10406,-4.796649 z" />
      <path
         id="path5264"
         style="font-style:italic;font-variant:normal;font-weight:normal;font-stretch:normal;font-size:12.81375027px;line-height:125%;font-family:'Source Sans Pro';-inkscape-font-specification:'Source Sans Pro, Italic';text-align:start;writing-mode:lr-tb;text-anchor:start"
         d="m 136.58142,50.888876 0.71332,0.954607 -3.19647,3.300296 -1.22724,1.268954 0.0307,0.04106 1.93289,-0.324611 5.12934,-0.713619 0.71331,0.954607 -7.73835,3.686922 -0.57526,-0.769845 4.38083,-2.057826 q 0.53094,-0.252773 1.16441,-0.518179 0.64373,-0.273075 1.17715,-0.479714 l -0.0307,-0.04106 -2.10457,0.308932 -5.0524,0.688127 -0.33749,-0.451642 3.1042,-3.295333 1.32989,-1.345655 -0.0307,-0.04106 q -0.50793,0.283567 -1.09538,0.61056 -0.57718,0.319323 -1.10045,0.58236 l -4.36548,2.078356 -0.55992,-0.749315 7.73835,-3.686922 z" />
      <path
         id="path5266"
         style="font-style:italic;font-variant:normal;font-weight:normal;font-stretch:normal;font-size:12.81375027px;line-height:125%;font-family:'Source Sans Pro';-inkscape-font-specification:'Source Sans Pro, Italic';text-align:start;writing-mode:lr-tb;text-anchor:start"
         d="m 132.33528,61.970769 q 0.50194,0.404915 1.01456,0.522074 0.50153,0.123595 0.96298,-0.0259 l -0.0129,-0.02216 q -0.14803,-0.254843 -0.11161,-0.498277 0.0539,-0.238791 0.30878,-0.386822 0.277,-0.160903 0.59694,-0.09483 0.33745,0.07072 0.5241,0.392042 0.16733,0.288083 0.058,0.559054 -0.10934,0.270972 -0.44174,0.464055 -0.81993,0.476273 -1.71896,0.331654 -0.91011,-0.138182 -1.61906,-0.822951 l 0.43888,-0.417942 z" />
      <path
         id="path5268"
         style="font-style:italic;font-variant:normal;font-weight:normal;font-stretch:normal;font-size:12.81375027px;line-height:125%;font-family:'Source Sans Pro';-inkscape-font-specification:'Source Sans Pro, Italic';text-align:start;writing-mode:lr-tb;text-anchor:start"
         d="m 142.87364,65.371604 0.40367,0.900304 -6.1962,1.401985 -0.39842,-0.888612 6.19095,-1.413677 z m 1.52168,0.23051 q -0.10485,-0.233845 -0.0549,-0.466896 0.0669,-0.226601 0.32414,-0.341935 0.29231,-0.131061 0.56851,-0.01617 0.29313,0.121339 0.41371,0.390261 0.10485,0.233845 0.0379,0.460446 -0.0617,0.238293 -0.3189,0.353627 -0.2923,0.131061 -0.57374,0.0045 -0.2762,-0.11489 -0.39678,-0.383812 z" />
      <path
         id="path5270"
         style="font-style:italic;font-variant:normal;font-weight:normal;font-stretch:normal;font-size:12.81375027px;line-height:125%;font-family:'Source Sans Pro';-inkscape-font-specification:'Source Sans Pro, Italic';text-align:start;writing-mode:lr-tb;text-anchor:start"
         d="m 143.45637,68.879687 -0.3141,-0.853834 0.73414,-0.119882 0.39635,0.891843 1.77072,-0.159883 0.28756,0.781679 -1.73091,0.268115 0.54415,1.479178 -0.79869,0.129976 -0.553,-1.503229 -3.59534,0.544393 q -0.22974,0.04355 -0.44621,0.123186 -0.36077,0.132719 -0.48365,0.355415 -0.11845,0.234721 0.0364,0.655625 0.0619,0.168362 0.17958,0.302578 0.11764,0.134216 0.22643,0.24438 l -0.58621,0.447758 q -0.17142,-0.169048 -0.35735,-0.414674 -0.18593,-0.245626 -0.31423,-0.594375 -0.14156,-0.384827 -0.13066,-0.689211 -0.001,-0.29996 0.10531,-0.530258 0.11845,-0.234721 0.3204,-0.390931 0.21397,-0.160635 0.49056,-0.262386 0.18039,-0.06636 0.32912,-0.107422 0.16519,-0.03346 0.3424,-0.07134 l 3.54724,-0.526697 z" />
      <path
         id="path5272"
         style="font-style:italic;font-variant:normal;font-weight:normal;font-stretch:normal;font-size:12.81375027px;line-height:125%;font-family:'Source Sans Pro';-inkscape-font-specification:'Source Sans Pro, Italic';text-align:start;writing-mode:lr-tb;text-anchor:start"
         d="m 146.85574,72.858976 1.18537,-0.146836 0.27008,0.922301 -1.19978,0.09765 -2.03274,0.03447 -0.18725,-0.639462 1.96432,-0.268121 z" />
      <path
         id="path5274"
         style="font-style:italic;font-variant:normal;font-weight:normal;font-stretch:normal;font-size:12.81375027px;line-height:125%;font-family:'Source Sans Pro';-inkscape-font-specification:'Source Sans Pro, Italic';text-align:start;writing-mode:lr-tb;text-anchor:start"
         d="m 141.63309,76.056708 q -0.34057,0.372826 -0.50693,0.826847 -0.15382,0.451381 -0.0536,0.927871 0.0554,0.263324 0.17812,0.4732 0.13791,0.219777 0.31277,0.366304 0.17751,0.159068 0.37416,0.222445 0.2092,0.06074 0.42236,0.01589 0.16301,-0.0343 0.28775,-0.126015 0.12738,-0.07918 0.22639,-0.230952 0.11155,-0.154413 0.20199,-0.40914 0.0931,-0.242188 0.20267,-0.592604 0.23834,-0.796521 0.54328,-1.214228 0.30494,-0.417707 0.83159,-0.528514 0.40125,-0.08443 0.77411,0.0074 0.37549,0.104315 0.67178,0.330051 0.29893,0.238274 0.50347,0.588068 0.21972,0.359694 0.30942,0.786027 0.11872,0.564264 -0.0147,1.050625 -0.13072,0.498901 -0.42313,0.913969 l -0.65527,-0.438279 q 0.19802,-0.303549 0.31025,-0.641426 0.11223,-0.337877 0.0252,-0.751671 -0.10289,-0.489029 -0.46253,-0.766907 -0.34446,-0.267977 -0.73317,-0.186191 -0.18809,0.03957 -0.32009,0.159008 -0.13201,0.119434 -0.22574,0.296287 -0.0937,0.176853 -0.16701,0.388686 -0.0706,0.224372 -0.13864,0.461283 -0.13865,0.461282 -0.29641,0.769457 -0.14258,0.318074 -0.32145,0.525935 -0.16369,0.217761 -0.36367,0.325308 -0.19734,0.120086 -0.44812,0.172851 -0.42633,0.0897 -0.81437,-0.01198 -0.38539,-0.08914 -0.70213,-0.349853 -0.30157,-0.250814 -0.51666,-0.650764 -0.22499,-0.384773 -0.32789,-0.873802 -0.0633,-0.300941 -0.0415,-0.632889 0.0245,-0.319409 0.11425,-0.63947 0.10497,-0.31016 0.268,-0.593255 0.16568,-0.270557 0.37227,-0.471155 l 0.60312,0.501628 z" />
      <path
         id="path5276"
         style="font-style:italic;font-variant:normal;font-weight:normal;font-stretch:normal;font-size:12.81375027px;line-height:125%;font-family:'Source Sans Pro';-inkscape-font-specification:'Source Sans Pro, Italic';text-align:start;writing-mode:lr-tb;text-anchor:start"
         d="m 147.76637,84.641237 0.0365,0.806442 -0.9385,-0.04736 0.002,0.0512 q 0.48513,0.516795 0.81608,1.027733 0.34374,0.510359 0.37036,1.09919 0.0359,0.793642 -0.35869,1.144979 -0.394,0.364137 -1.12363,0.397125 -0.21762,0.0098 -0.41078,-0.0071 -0.19259,-0.0041 -0.4515,-0.05655 l -4.00409,-0.614236 -0.044,-0.972851 3.87492,0.594421 q 0.25833,0.03963 0.4131,0.05828 0.15476,0.01866 0.32117,0.01113 0.47363,-0.02141 0.707,-0.25002 0.23338,-0.228608 0.21138,-0.715033 -0.0168,-0.37122 -0.30643,-0.819891 -0.28907,-0.43587 -0.90452,-0.99808 l -4.44337,-0.684163 -0.044,-0.972851 6.27669,0.947602 z" />
      <path
         id="path5278"
         style="font-style:italic;font-variant:normal;font-weight:normal;font-stretch:normal;font-size:12.81375027px;line-height:125%;font-family:'Source Sans Pro';-inkscape-font-specification:'Source Sans Pro, Italic';text-align:start;writing-mode:lr-tb;text-anchor:start"
         d="m 141.39273,92.725617 q 0.0839,-1.008806 0.79778,-1.553777 0.71393,-0.544971 1.87597,-0.448363 0.88111,0.07325 1.59839,0.415759 0.71729,0.342508 1.20157,0.858513 0.49704,0.517067 0.74085,1.141661 0.25658,0.625654 0.2035,1.264139 -0.0839,1.008806 -0.79779,1.553777 -0.71498,0.557741 -1.87703,0.461133 -0.88111,-0.07325 -1.59733,-0.428529 -0.71729,-0.342507 -1.21433,-0.859574 -0.48534,-0.503236 -0.74086,-1.141661 -0.24381,-0.624593 -0.19072,-1.263078 z m 5.62206,1.508892 q 0.035,-0.4214 -0.18639,-0.851263 -0.20865,-0.428801 -0.61628,-0.784138 -0.39486,-0.354276 -0.95357,-0.593595 -0.55871,-0.239319 -1.20997,-0.293461 -0.8428,-0.07007 -1.31734,0.224788 -0.4756,0.307625 -0.52975,0.958879 -0.0361,0.43417 0.17362,0.850201 0.22142,0.429863 0.61628,0.784139 0.39486,0.354276 0.95357,0.593595 0.55872,0.239318 1.20997,0.293461 0.8428,0.07007 1.3184,-0.237558 0.48732,-0.293793 0.54146,-0.945048 z" />
      <path
         id="path5280"
         style="font-style:italic;font-variant:normal;font-weight:normal;font-stretch:normal;font-size:12.81375027px;line-height:125%;font-family:'Source Sans Pro';-inkscape-font-specification:'Source Sans Pro, Italic';text-align:start;writing-mode:lr-tb;text-anchor:start"
         d="m 146.18949,99.26555 0.16813,-0.894106 0.69175,0.2735 -0.117,0.968911 1.60222,0.770665 -0.15392,0.81855 -1.62353,-0.65733 -0.29127,1.54894 -0.75235,-0.29793 0.296,-1.57413 -3.36589,-1.37611 q -0.21957,-0.0804 -0.44625,-0.123027 -0.37779,-0.07104 -0.59747,0.05715 -0.22204,0.140782 -0.30492,0.581538 -0.0332,0.176303 -9.8e-4,0.351853 0.0322,0.175549 0.0691,0.325917 l -0.73287,0.0838 q -0.0605,-0.233029 -0.0942,-0.539245 -0.0337,-0.306216 0.035,-0.671414 0.0758,-0.402978 0.24121,-0.658712 0.15284,-0.258103 0.36229,-0.401254 0.22205,-0.140782 0.47553,-0.171348 0.26607,-0.0282 0.55571,0.02627 0.18889,0.03552 0.33764,0.07653 0.15897,0.05597 0.33054,0.114309 l 3.31552,1.366639 z" />
      <path
         id="path5282"
         style="font-style:italic;font-variant:normal;font-weight:normal;font-stretch:normal;font-size:12.81375027px;line-height:125%;font-family:'Source Sans Pro';-inkscape-font-specification:'Source Sans Pro, Italic';text-align:start;writing-mode:lr-tb;text-anchor:start"
         d="m 138.66135,104.00011 q -0.80324,-0.43765 -1.20001,-1.01728 -0.40058,-0.56739 -0.16088,-1.33824 0.0875,-0.28143 0.21338,-0.47041 0.12967,-0.20122 0.30447,-0.37499 l 0.60232,0.52278 q -0.11146,0.0995 -0.18622,0.21047 -0.087,0.10714 -0.14787,0.30291 -0.10654,0.3426 0.12244,0.64193 0.23278,0.28709 0.73311,0.57686 l 6.28288,3.44326 -0.29298,0.94215 -6.27064,-3.43944 z m 7.55592,3.66467 q 0.0723,-0.23248 0.26396,-0.37416 0.2001,-0.12565 0.46929,-0.0419 0.30589,0.0951 0.43698,0.36401 0.14333,0.27269 0.052,0.56635 -0.0723,0.23248 -0.27239,0.35813 -0.2039,0.13787 -0.47309,0.0542 -0.30589,-0.0951 -0.43318,-0.37625 -0.13109,-0.26889 -0.0436,-0.55031 z" />
      <path
         id="path5284"
         style="font-style:italic;font-variant:normal;font-weight:normal;font-stretch:normal;font-size:12.81375027px;line-height:125%;font-family:'Source Sans Pro';-inkscape-font-specification:'Source Sans Pro, Italic';text-align:start;writing-mode:lr-tb;text-anchor:start"
         d="m 136.97952,110.72517 0.3108,-0.74504 0.83566,0.45968 0.0197,-0.0473 q -0.21657,-0.6457 -0.31684,-1.27066 -0.0934,-0.6082 0.12862,-1.14037 0.30587,-0.73321 0.8175,-0.89465 0.51853,-0.14467 1.18078,0.1316 0.20104,0.0839 0.3735,0.16969 0.16752,0.0977 0.37938,0.25545 l 3.36018,2.26256 -0.37987,0.91061 -3.24686,-2.20141 q -0.21679,-0.14597 -0.34883,-0.22882 -0.13205,-0.0828 -0.28578,-0.14699 -0.43756,-0.18253 -0.74613,-0.0752 -0.30856,0.1073 -0.49603,0.55669 -0.14306,0.34295 -0.0674,0.86046 0.0757,0.51752 0.39767,1.27662 l 3.72774,2.51308 -0.37494,0.89877 -5.26889,-3.54474 z" />
      <path
         id="path5286"
         style="font-style:italic;font-variant:normal;font-weight:normal;font-stretch:normal;font-size:12.81375027px;line-height:125%;font-family:'Source Sans Pro';-inkscape-font-specification:'Source Sans Pro, Italic';text-align:start;writing-mode:lr-tb;text-anchor:start"
         d="m 137.34296,113.47035 q -0.5017,0.0573 -0.92539,0.29037 -0.4125,0.23926 -0.64994,0.66437 -0.13122,0.23493 -0.17657,0.47378 -0.0404,0.25629 -0.005,0.48165 0.0293,0.23653 0.13596,0.41351 0.11782,0.18322 0.30799,0.28944 0.14544,0.0812 0.29974,0.094 0.14805,0.024 0.3224,-0.0254 0.18554,-0.0431 0.42107,-0.17577 0.22928,-0.12145 0.54211,-0.31364 0.70296,-0.44396 1.20728,-0.55856 0.50432,-0.1146 0.97417,0.14784 0.35798,0.19995 0.5788,0.51409 0.21458,0.32532 0.28966,0.69016 0.0688,0.37602 -0.007,0.77411 -0.0707,0.41553 -0.28309,0.79589 -0.28118,0.50342 -0.70124,0.78249 -0.42631,0.29026 -0.91944,0.41111 l -0.20611,-0.76091 q 0.3487,-0.0988 0.65529,-0.27979 0.30658,-0.18101 0.51277,-0.55018 0.24369,-0.43629 0.1551,-0.88205 -0.0837,-0.42833 -0.43045,-0.62203 -0.16781,-0.0937 -0.34579,-0.0904 -0.17798,0.003 -0.36484,0.0751 -0.18685,0.0718 -0.38126,0.18332 -0.20065,0.12276 -0.40756,0.2567 -0.40757,0.2567 -0.72896,0.38541 -0.31646,0.14614 -0.58787,0.18535 -0.26647,0.0566 -0.48789,0.006 -0.22767,-0.0391 -0.45141,-0.16407 -0.38036,-0.21245 -0.60612,-0.54402 -0.232,-0.32039 -0.29953,-0.72503 -0.0626,-0.38721 0.038,-0.83005 0.0831,-0.43791 0.32683,-0.8742 0.14996,-0.26849 0.38448,-0.50443 0.22828,-0.22475 0.50623,-0.40707 0.2829,-0.16488 0.5918,-0.27121 0.30265,-0.0951 0.59019,-0.11067 l 0.12518,0.77442 z" />
      <path
         id="path5288"
         style="font-style:italic;font-variant:normal;font-weight:normal;font-stretch:normal;font-size:12.81375027px;line-height:125%;font-family:'Source Sans Pro';-inkscape-font-specification:'Source Sans Pro, Italic';text-align:start;writing-mode:lr-tb;text-anchor:start"
         d="m 137.30402,121.18238 0.51293,-0.75139 0.52376,0.52821 -0.49614,0.84043 1.15803,1.34906 -0.46959,0.68789 -1.22305,-1.25382 -0.88861,1.30171 -0.56945,-0.57491 0.90306,-1.32287 -2.53027,-2.61164 q -0.16882,-0.16179 -0.35932,-0.29183 -0.31749,-0.21673 -0.57015,-0.18752 -0.25989,0.0398 -0.51274,0.4102 -0.10115,0.14816 -0.14215,0.32186 -0.041,0.1737 -0.0676,0.32624 l -0.70488,-0.21744 q 0.0382,-0.23771 0.13024,-0.53169 0.0921,-0.29398 0.30159,-0.60088 0.23118,-0.33866 0.48537,-0.50646 0.2436,-0.17503 0.49291,-0.22205 0.25988,-0.0398 0.50431,0.034 0.255,0.081 0.49841,0.24716 0.15874,0.10837 0.27852,0.20564 0.12313,0.11509 0.25684,0.23739 l 2.48794,2.58274 z" />
      <path
         id="path5290"
         style="font-style:italic;font-variant:normal;font-weight:normal;font-stretch:normal;font-size:12.81375027px;line-height:125%;font-family:'Source Sans Pro';-inkscape-font-specification:'Source Sans Pro, Italic';text-align:start;writing-mode:lr-tb;text-anchor:start"
         d="m 131.15466,123.95153 q 0.65441,0.61343 1.03188,1.35366 0.37748,0.74023 0.47393,1.48048 0.0964,0.74025 -0.0724,1.40748 -0.16881,0.66723 -0.61574,1.14401 -0.34176,0.3646 -0.79163,0.46979 -0.45864,0.11454 -0.91612,-0.0157 l -0.0351,0.0374 0.40376,0.71218 -0.54332,0.57962 -3.6934,-5.16578 0.55209,-0.58896 0.60299,0.70574 0.035,-0.0374 q -0.0485,-0.66021 0.12204,-1.2731 0.17056,-0.6129 0.57367,-1.04294 0.56086,-0.59831 1.31455,-0.55921 0.75369,0.0391 1.55767,0.79274 z m -2.51927,0.58909 q -0.33301,0.35524 -0.46911,0.91263 -0.13551,0.5755 -0.002,1.33269 l 1.64306,2.31298 q 0.53928,0.13668 0.91729,0.0519 0.37801,-0.0847 0.62338,-0.3465 0.31548,-0.33655 0.40776,-0.8472 0.10163,-0.50188 -0.007,-1.06042 -0.10871,-0.55855 -0.40788,-1.12 -0.29859,-0.54334 -0.76602,-0.98151 -0.58897,-0.55208 -1.08909,-0.59938 -0.49078,-0.0385 -0.85007,0.34477 z" />
      <path
         id="path5292"
         style="font-style:italic;font-variant:normal;font-weight:normal;font-stretch:normal;font-size:12.81375027px;line-height:125%;font-family:'Source Sans Pro';-inkscape-font-specification:'Source Sans Pro, Italic';text-align:start;writing-mode:lr-tb;text-anchor:start"
         d="m 122.06229,129.07727 -0.8942,-1.87327 0.78233,-0.57994 3.85239,8.16607 -0.64851,0.48074 -0.42662,-0.70459 -0.0309,0.0229 q -0.14431,0.60145 -0.40877,1.14841 -0.26712,0.56489 -0.74064,0.91591 -0.6588,0.48837 -1.40098,0.30483 -0.73456,-0.17325 -1.38318,-1.04822 -0.53416,-0.72056 -0.77318,-1.51636 -0.23902,-0.7958 -0.20154,-1.54137 0.0272,-0.73793 0.32289,-1.37185 0.2854,-0.62629 0.80009,-1.00783 0.39117,-0.28997 0.84497,-0.32332 0.46143,-0.0231 0.89357,0.15107 l 0.0206,-0.0153 -0.60833,-1.20791 z m 1.28495,6.70375 q 0.34999,-0.25945 0.61179,-0.78848 0.2515,-0.52141 0.32181,-1.17965 l -1.29684,-2.73918 q -0.49585,-0.23855 -0.87529,-0.21248 -0.37944,0.0261 -0.67796,0.24737 -0.37058,0.27471 -0.56032,0.75033 -0.18211,0.48591 -0.16474,1.04726 0.007,0.56898 0.20369,1.15696 0.19395,0.6059 0.58312,1.13088 0.47311,0.63822 0.94909,0.76389 0.47331,0.1436 0.90565,-0.1769 z" />
      <path
         id="path5294"
         style="font-style:italic;font-variant:normal;font-weight:normal;font-stretch:normal;font-size:12.81375027px;line-height:125%;font-family:'Source Sans Pro';-inkscape-font-specification:'Source Sans Pro, Italic';text-align:start;writing-mode:lr-tb;text-anchor:start"
         d="m 120.40554,141.93848 -0.86134,0.48125 -0.93181,-2.92874 -0.20227,-0.78236 -0.0448,0.025 q -0.25106,0.65402 -0.55476,1.1613 -0.29745,0.51847 -0.80082,0.79972 -0.69354,0.3875 -1.18438,0.19204 -0.50203,-0.18921 -0.85828,-0.82682 -0.10625,-0.19016 -0.17763,-0.37046 -0.0826,-0.17404 -0.15163,-0.42901 l -1.24395,-3.8552 0.85014,-0.475 1.20383,3.73084 q 0.0803,0.24872 0.13288,0.39546 0.0526,0.14673 0.13388,0.29215 0.23125,0.41389 0.54017,0.52017 0.30891,0.10629 0.73398,-0.13121 0.3244,-0.18125 0.59585,-0.64116 0.26027,-0.45366 0.48733,-1.25572 l -1.37815,-4.27928 0.85015,-0.475 2.86156,8.85203 z" />
      <path
         id="path5296"
         style="font-style:italic;font-variant:normal;font-weight:normal;font-stretch:normal;font-size:12.81375027px;line-height:125%;font-family:'Source Sans Pro';-inkscape-font-specification:'Source Sans Pro, Italic';text-align:start;writing-mode:lr-tb;text-anchor:start"
         d="m 112.39099,138.28887 q 0.3331,0.83282 0.36163,1.66325 0.0285,0.83043 -0.19753,1.54188 -0.22607,0.71145 -0.66152,1.24444 -0.43545,0.53298 -1.04222,0.77567 -0.464,0.18559 -0.91609,0.0904 -0.46399,-0.0904 -0.82328,-0.40215 l -0.0476,0.019 0.0642,0.81615 -0.73764,0.29503 -1.15863,-6.24371 0.74954,-0.2998 0.24744,0.89469 0.0476,-0.019 q 0.23558,-0.61865 0.64961,-1.10167 0.41404,-0.48302 0.96132,-0.70191 0.76143,-0.30455 1.42767,0.05 0.66624,0.35456 1.07548,1.37773 z m -2.53172,-0.53306 q -0.45211,0.18083 -0.81141,0.62816 -0.36645,0.46398 -0.56635,1.20636 l 0.50914,2.79112 q 0.43067,0.35217 0.809,0.43546 0.37833,0.0833 0.71146,-0.0499 0.4283,-0.17131 0.72813,-0.59485 0.30458,-0.41164 0.4426,-0.96367 0.13802,-0.55203 0.10472,-1.18734 -0.0404,-0.61866 -0.27836,-1.21353 -0.29979,-0.74953 -0.73285,-1.00415 -0.42829,-0.24271 -0.91608,-0.0476 z" />
      <path
         id="path5298"
         style="font-style:italic;font-variant:normal;font-weight:normal;font-stretch:normal;font-size:12.81375027px;line-height:125%;font-family:'Source Sans Pro';-inkscape-font-specification:'Source Sans Pro, Italic';text-align:start;writing-mode:lr-tb;text-anchor:start"
         d="m 105.51315,140.27002 q -0.39162,-0.31878 -0.85438,-0.45901 -0.45941,-0.12786 -0.92941,-6.3e-4 -0.25974,0.0703 -0.46229,0.20479 -0.21157,0.1502 -0.34789,0.33313 -0.1487,0.18628 -0.20078,0.38622 -0.0487,0.21232 0.008,0.42258 0.0435,0.16079 0.1422,0.28011 0.0863,0.12266 0.24347,0.21286 0.16052,0.10257 0.41998,0.17836 0.2471,0.0791 0.60319,0.16859 0.8088,0.19258 1.2432,0.47323 0.4344,0.28066 0.57502,0.80014 0.10715,0.39579 0.0368,0.77327 -0.0828,0.38083 -0.29125,0.68949 -0.22086,0.31201 -0.55844,0.53614 -0.34659,0.23985 -0.76712,0.35369 -0.55659,0.15067 -1.04976,0.0452 -0.50554,-0.1021 -0.93659,-0.37039 l 0.40025,-0.67917 q 0.31433,0.18041 0.65805,0.27321 0.34373,0.0928 0.75189,-0.0177 0.48237,-0.13058 0.73932,-0.50546 0.24792,-0.35916 0.14412,-0.74259 -0.0502,-0.18552 -0.17698,-0.31051 -0.12676,-0.12499 -0.30866,-0.20849 -0.18191,-0.0835 -0.39757,-0.1446 -0.22803,-0.0577 -0.46843,-0.11215 -0.46843,-0.11214 -0.78509,-0.25209 -0.32568,-0.12424 -0.54339,-0.29098 -0.22674,-0.15102 -0.3455,-0.34454 -0.13113,-0.19018 -0.19809,-0.43755 -0.11384,-0.42053 -0.0344,-0.81373 0.067,-0.38984 0.30929,-0.72092 0.23323,-0.31536 0.62027,-0.55289 0.37134,-0.24654 0.85371,-0.37712 0.29685,-0.0804 0.6295,-0.0775 0.32028,0.006 0.64494,0.0776 0.31563,0.0871 0.60756,0.23378 0.27955,0.15 0.49159,0.34482 l -0.46646,0.63072 z" />
      <path
         id="path5300"
         style="font-style:italic;font-variant:normal;font-weight:normal;font-stretch:normal;font-size:12.81375027px;line-height:125%;font-family:'Source Sans Pro';-inkscape-font-specification:'Source Sans Pro, Italic';text-align:start;writing-mode:lr-tb;text-anchor:start"
         d="m 100.59525,142.52953 q 0.13643,0.87355 -0.044,1.62801 -0.17848,0.76711 -0.55516,1.3447 -0.387363,0.59223 -0.926236,0.96171 -0.551534,0.37146 -1.159227,0.46637 -0.519071,0.0811 -0.901241,-0.0408 -0.392852,-0.10724 -0.668191,-0.3755 -0.273362,-0.25559 -0.439894,-0.65756 -0.164554,-0.38931 -0.237712,-0.85774 -0.05734,-0.36715 -0.03279,-0.70818 0.02455,-0.34103 0.06017,-0.52816 l 4.000648,-0.62482 q -0.0043,-0.60887 -0.172817,-1.0235 -0.166532,-0.40197 -0.437917,-0.64491 -0.284045,-0.24096 -0.645645,-0.31417 -0.3616,-0.0732 -0.766729,-0.01 -0.367148,0.0573 -0.697909,0.26463 -0.341443,0.22192 -0.599016,0.48262 l -0.480649,-0.58635 q 0.325626,-0.32321 0.800401,-0.60486 0.476752,-0.269 1.084446,-0.36391 1.101444,-0.17202 1.862596,0.3835 0.763127,0.56818 0.956897,1.80889 z m -4.130494,1.78637 q -0.0016,0.15587 0.0095,0.30977 -0.0016,0.15588 0.02609,0.33313 0.04152,0.26586 0.142392,0.49652 0.102847,0.24332 0.271768,0.41148 0.168922,0.16815 0.414603,0.2465 0.24568,0.0784 0.574847,0.0269 0.341828,-0.0534 0.649245,-0.24405 0.294757,-0.1887 0.531761,-0.49806 0.237004,-0.30937 0.407549,-0.71211 0.157884,-0.40076 0.200645,-0.87432 l -3.228371,0.5042 z" />
    </g>
    <g
       id="text4825"
       style="font-style:normal;font-variant:normal;font-weight:300;font-stretch:normal;font-size:12.5px;line-height:125%;font-family:'Source Sans Pro';-inkscape-font-specification:'Source Sans Pro, Light';text-align:start;letter-spacing:0px;word-spacing:0px;writing-mode:lr-tb;text-anchor:start;display:inline;fill:#ffffff;fill-opacity:1;stroke:none;stroke-width:1px;stroke-linecap:butt;stroke-linejoin:miter;stroke-opacity:1"
       transform="matrix(-0.92718385,0.3746066,-0.3746066,-0.92718385,373.26525,756.30203)">
      <path
         id="path4307"
         style="font-style:normal;font-variant:normal;font-weight:300;font-stretch:normal;font-size:12.5px;line-height:125%;font-family:'Source Sans Pro';-inkscape-font-specification:'Source Sans Pro, Light';text-align:start;writing-mode:lr-tb;text-anchor:start;fill:#ffffff;fill-opacity:1"
         d="m 70.710782,705.78746 2.039029,-0.79216 0.199172,0.51267 -8.121162,3.15506 -0.172012,-0.44276 0.680989,-0.31821 -0.01358,-0.0349 q -0.484677,-0.28106 -0.926604,-0.65919 -0.446453,-0.38978 -0.650151,-0.9141 -0.434556,-1.11856 0.128823,-1.98112 0.551727,-0.85803 1.856706,-1.36501 0.710747,-0.27613 1.346976,-0.29533 0.636229,-0.0192 1.168182,0.17644 0.515775,0.18852 0.902042,0.56145 0.370089,0.36581 0.560207,0.85518 0.153905,0.39615 0.14209,0.88351 -0.02347,0.49188 -0.1777,1.06139 l 1.036992,-0.40287 z m -1.526359,0.59299 q 0.206036,-0.64327 0.2062,-1.1261 1.64e-4,-0.48284 -0.126582,-0.80908 -0.162958,-0.41946 -0.489709,-0.70823 -0.326751,-0.28877 -0.764233,-0.41384 -0.437482,-0.12506 -0.957865,-0.0838 -0.536562,0.0341 -1.10749,0.25592 -0.51267,0.19917 -0.914691,0.47605 -0.406548,0.26522 -0.639662,0.59717 -0.244765,0.33648 -0.288267,0.74227 -0.05515,0.41032 0.130438,0.88804 0.162959,0.41946 0.584181,0.77881 0.405043,0.35223 1.046976,0.69289 l 3.320704,-1.29009 z" />
      <path
         id="path4309"
         style="font-style:normal;font-variant:normal;font-weight:300;font-stretch:normal;font-size:12.5px;line-height:125%;font-family:'Source Sans Pro';-inkscape-font-specification:'Source Sans Pro, Light';text-align:start;writing-mode:lr-tb;text-anchor:start;fill:#ffffff;fill-opacity:1"
         d="m 60.968942,703.23301 q 0.09354,0.19081 0.0361,0.38602 -0.06294,0.18399 -0.253749,0.27752 -0.213256,0.10454 -0.386018,0.0361 -0.189488,-0.0742 -0.283022,-0.26498 -0.09354,-0.19081 -0.03059,-0.37479 0.04622,-0.18971 0.259471,-0.29425 0.190808,-0.0935 0.380296,-0.0194 0.183986,0.063 0.27752,0.25375 z m 1.428529,-0.38008 -0.242089,-0.49385 5.387512,-2.64097 0.242088,0.49385 -5.387511,2.64097 z" />
      <path
         id="path4311"
         style="font-style:normal;font-variant:normal;font-weight:300;font-stretch:normal;font-size:12.5px;line-height:125%;font-family:'Source Sans Pro';-inkscape-font-specification:'Source Sans Pro, Light';text-align:start;writing-mode:lr-tb;text-anchor:start;fill:#ffffff;fill-opacity:1"
         d="m 66.681734,696.91015 1.877393,-1.12274 0.28229,0.47203 -7.477389,4.47172 -0.243795,-0.40766 0.618014,-0.42785 -0.01925,-0.0322 q -0.524931,-0.19584 -1.023989,-0.49454 -0.505473,-0.30943 -0.794178,-0.79219 -0.615905,-1.02988 -0.205084,-1.97467 0.400093,-0.93838 1.601625,-1.65693 0.654405,-0.39136 1.278414,-0.51694 0.624008,-0.12557 1.181229,-0.0219 0.540077,0.0994 0.983392,0.4023 0.426171,0.2986 0.695629,0.74917 0.218133,0.36475 0.288178,0.8472 0.05932,0.48885 0.0027,1.07615 l 0.954789,-0.57099 z m -1.405363,0.84045 q 0.09529,-0.6687 0.01452,-1.14473 -0.08077,-0.47603 -0.260412,-0.77641 -0.230964,-0.38621 -0.601497,-0.61612 -0.370534,-0.22992 -0.822789,-0.27988 -0.452256,-0.05 -0.958362,0.0779 -0.523251,0.12358 -1.048921,0.43795 -0.47203,0.28229 -0.821951,0.62264 -0.356338,0.32962 -0.53051,0.69594 -0.184901,0.37274 -0.159766,0.78009 0.01441,0.41376 0.27745,0.85361 0.230964,0.3862 0.706462,0.66987 0.458355,0.27935 1.148307,0.50758 l 3.057469,-1.82847 z" />
      <path
         id="path4313"
         style="font-style:normal;font-variant:normal;font-weight:300;font-stretch:normal;font-size:12.5px;line-height:125%;font-family:'Source Sans Pro';-inkscape-font-specification:'Source Sans Pro, Light';text-align:start;writing-mode:lr-tb;text-anchor:start;fill:#ffffff;fill-opacity:1"
         d="m 60.808077,694.08175 q -0.588677,0.44426 -1.185631,0.62854 -0.604482,0.1743 -1.142129,0.1259 -0.555154,-0.0508 -1.003375,-0.29201 -0.465729,-0.24361 -0.76692,-0.64271 -0.647562,-0.85807 -0.437821,-1.7837 0.20974,-0.92563 1.267365,-1.72379 0.0898,-0.0678 0.179597,-0.13554 0.0898,-0.0678 0.194656,-0.11558 l 2.605306,3.45225 q 0.441462,-0.34882 0.732701,-0.77219 0.281261,-0.41584 0.387448,-0.85616 0.08868,-0.44277 -1.61e-4,-0.8925 -0.09882,-0.44221 -0.407541,-0.85129 -0.293661,-0.38913 -0.636838,-0.61561 -0.360684,-0.22892 -0.76354,-0.34772 l 0.203702,-0.43561 q 0.387982,0.16134 0.801189,0.39761 0.405676,0.22629 0.804755,0.75511 0.34637,0.45897 0.485472,0.99605 0.131573,0.52711 0.03818,1.06739 -0.103367,0.54782 -0.4268,1.07378 -0.340941,0.52352 -0.929619,0.96778 z m -2.932305,-3.28377 q -0.927916,0.70027 -1.100753,1.42579 -0.182815,0.73305 0.306621,1.38159 0.233424,0.3093 0.573966,0.49079 0.340543,0.18148 0.75319,0.23025 0.405118,0.0388 0.86728,-0.0751 0.444655,-0.11633 0.903811,-0.4002 l -2.304115,-3.05314 z" />
      <path
         id="path4315"
         style="font-style:normal;font-variant:normal;font-weight:300;font-stretch:normal;font-size:12.5px;line-height:125%;font-family:'Source Sans Pro';-inkscape-font-specification:'Source Sans Pro, Light';text-align:start;writing-mode:lr-tb;text-anchor:start;fill:#ffffff;fill-opacity:1"
         d="m 52.388673,693.08046 -0.362478,-0.41365 6.214214,-5.44541 q 0.15042,-0.13181 0.176201,-0.25412 0.01638,-0.11408 -0.05776,-0.19869 -0.02472,-0.0282 -0.04943,-0.0564 -0.03295,-0.0376 -0.11766,-0.0963 l 0.272539,-0.37179 q 0.07647,0.0493 0.143538,0.10691 0.07647,0.0493 0.167089,0.15274 0.486049,0.55467 -0.228444,1.18077 l -6.157807,5.39598 z" />
      <path
         id="path4317"
         style="font-style:normal;font-variant:normal;font-weight:300;font-stretch:normal;font-size:12.5px;line-height:125%;font-family:'Source Sans Pro';-inkscape-font-specification:'Source Sans Pro, Light';text-align:start;writing-mode:lr-tb;text-anchor:start;fill:#ffffff;fill-opacity:1"
         d="m 51.591388,689.92859 q 0.147291,0.15317 0.15215,0.3566 -0.0038,0.19442 -0.156977,0.34171 -0.171192,0.16462 -0.356599,0.15215 -0.203082,-0.0128 -0.350373,-0.16599 -0.147291,-0.15317 -0.143486,-0.34759 -0.01387,-0.19476 0.157323,-0.35938 0.153172,-0.14729 0.356253,-0.13447 0.194418,0.004 0.341709,0.15697 z m 1.244448,-0.79781 -0.381224,-0.39644 4.32485,-4.15881 0.381224,0.39644 -4.32485,4.15881 z" />
      <path
         id="path4319"
         style="font-style:normal;font-variant:normal;font-weight:300;font-stretch:normal;font-size:12.5px;line-height:125%;font-family:'Source Sans Pro';-inkscape-font-specification:'Source Sans Pro, Light';text-align:start;writing-mode:lr-tb;text-anchor:start;fill:#ffffff;fill-opacity:1"
         d="m 51.163095,687.39079 -0.353696,-0.31705 0.580195,-0.72215 -0.02792,-0.025 q -0.6531,0.0357 -1.216349,-0.0663 -0.571593,-0.0927 -1.036981,-0.50989 -0.698083,-0.62576 -0.648394,-1.33664 0.04969,-0.71087 0.833987,-1.5858 l 2.569823,-2.8668 0.409542,0.36712 -2.519762,2.81095 q -0.642456,0.71669 -0.700823,1.26871 -0.07602,0.55297 0.47314,1.04525 0.400234,0.35877 0.917909,0.43672 0.509331,0.0872 1.294334,0.0355 l 3.020377,-3.36941 0.409542,0.36711 -4.00492,4.46773 z" />
      <path
         id="path4321"
         style="font-style:normal;font-variant:normal;font-weight:300;font-stretch:normal;font-size:12.5px;line-height:125%;font-family:'Source Sans Pro';-inkscape-font-specification:'Source Sans Pro, Light';text-align:start;writing-mode:lr-tb;text-anchor:start;fill:#ffffff;fill-opacity:1"
         d="m 48.772065,681.28987 q -0.43683,0.59421 -0.956026,0.9417 -0.529268,0.34009 -1.058262,0.44766 -0.546469,0.11023 -1.044976,0.008 -0.515982,-0.10006 -0.918836,-0.39622 -0.866137,-0.63673 -0.930208,-1.58366 -0.06407,-0.94693 0.720743,-2.01449 0.06663,-0.0906 0.13327,-0.18129 0.06663,-0.0906 0.153413,-0.16648 l 3.484691,2.56175 q 0.323104,-0.46061 0.480928,-0.94965 0.15042,-0.47896 0.126088,-0.93125 -0.04181,-0.44962 -0.2557,-0.85509 -0.221296,-0.3954 -0.634222,-0.69896 -0.392783,-0.28875 -0.786438,-0.40748 -0.41113,-0.11607 -0.831135,-0.11455 l 0.07045,-0.4757 q 0.417936,0.0435 0.881492,0.15157 0.453485,0.10066 0.987267,0.49307 0.463282,0.34058 0.750342,0.81535 0.276988,0.46737 0.342204,1.01177 0.05781,0.55447 -0.101483,1.15102 -0.17677,0.59922 -0.6136,1.19343 z m -3.74976,-2.30669 q -0.688563,0.93663 -0.64643,1.68126 0.03473,0.75471 0.689367,1.23596 0.312212,0.22952 0.690461,0.3059 0.378248,0.0764 0.787583,0.005 0.399264,-0.0788 0.80947,-0.32027 0.392732,-0.23877 0.751385,-0.64222 l -3.081836,-2.26559 z" />
      <path
         id="path4323"
         style="font-style:normal;font-variant:normal;font-weight:300;font-stretch:normal;font-size:12.5px;line-height:125%;font-family:'Source Sans Pro';-inkscape-font-specification:'Source Sans Pro, Light';text-align:start;writing-mode:lr-tb;text-anchor:start;fill:#ffffff;fill-opacity:1"
         d="m 42.669491,675.26633 q -0.4774,0.86444 -1.551873,0.87078 -1.074472,0.006 -2.933998,-0.76358 -0.174104,0.28939 -0.282556,0.61505 -0.125436,0.33055 -0.110092,0.6389 -0.0016,0.31324 0.17147,0.59448 0.156126,0.28614 0.539102,0.49764 0.536168,0.29611 1.088673,0.32993 0.552506,0.0338 0.923893,-0.0181 l 0.01942,0.48195 q -0.196636,0.0199 -0.460069,0.0315 -0.274376,0.006 -0.569491,-0.0289 -0.306058,-0.0405 -0.637755,-0.13802 -0.337741,-0.0866 -0.655065,-0.26182 -0.470514,-0.25985 -0.697192,-0.59923 -0.23272,-0.32844 -0.278604,-0.71077 -0.04588,-0.38233 0.08299,-0.79666 0.111884,-0.40944 0.347562,-0.83619 l 1.855217,-3.35925 0.404861,0.22359 -0.319958,0.70864 0.02188,0.0121 q 0.580109,-0.0937 1.189614,-0.0856 0.592519,0.0131 1.117744,0.30315 0.317324,0.17525 0.542534,0.41386 0.22521,0.23861 0.347366,0.53455 0.111212,0.28989 0.0805,0.62992 -0.03071,0.34003 -0.236176,0.71206 z m -0.515426,-0.25609 q 0.314238,-0.569 0.118919,-0.99102 -0.195318,-0.42202 -0.643948,-0.66978 -0.459572,-0.25381 -0.996236,-0.2646 -0.536665,-0.0108 -1.258699,0.13307 l -0.985017,1.78358 q 0.864109,0.34871 1.500721,0.51465 0.625669,0.15991 1.073652,0.15028 0.447983,-0.01 0.740164,-0.17669 0.281238,-0.17311 0.450444,-0.47949 z" />
      <path
         id="path4325"
         style="font-style:normal;font-variant:normal;font-weight:300;font-stretch:normal;font-size:12.5px;line-height:125%;font-family:'Source Sans Pro';-inkscape-font-specification:'Source Sans Pro, Light';text-align:start;writing-mode:lr-tb;text-anchor:start;fill:#ffffff;fill-opacity:1"
         d="m 35.165526,675.86338 0.852568,0.38991 -0.176761,0.3865 -0.884732,-0.34964 -0.790846,1.5489 -0.431968,-0.19756 0.722641,-1.58009 -1.580094,-0.72264 0.197557,-0.43197 1.580093,0.72264 1.627243,-3.55805 q 0.119573,-0.26146 0.184249,-0.49304 0.04811,-0.22541 0.01858,-0.43135 -0.03472,-0.19456 -0.163646,-0.36349 -0.145489,-0.16275 -0.429679,-0.29272 -0.159146,-0.0728 -0.361823,-0.1105 -0.219243,-0.0315 -0.398215,-0.0309 l 0.05075,-0.47162 q 0.28031,0.0182 0.545024,0.0706 0.264713,0.0523 0.435227,0.13032 0.397865,0.18196 0.602132,0.42658 0.209466,0.23325 0.269834,0.52202 0.06037,0.28877 -0.0118,0.62688 -0.08353,0.33292 -0.249895,0.69669 l -1.606446,3.51258 z" />
      <path
         id="path4327"
         style="font-style:normal;font-variant:normal;font-weight:300;font-stretch:normal;font-size:12.5px;line-height:125%;font-family:'Source Sans Pro';-inkscape-font-specification:'Source Sans Pro, Light';text-align:start;writing-mode:lr-tb;text-anchor:start;fill:#ffffff;fill-opacity:1"
         d="m 29.741628,673.62266 0.885778,0.30709 -0.139215,0.40156 -0.913966,-0.26395 -0.640003,1.61708 -0.448794,-0.1556 0.569141,-1.64164 -1.64164,-0.56914 0.155592,-0.44879 1.641641,0.56914 1.281591,-3.69665 q 0.09417,-0.27163 0.13654,-0.50832 0.02646,-0.22896 -0.02251,-0.43116 -0.05307,-0.19038 -0.197464,-0.34628 -0.160304,-0.14819 -0.455563,-0.25055 -0.165345,-0.0573 -0.370689,-0.0756 -0.221249,-0.0106 -0.399351,0.007 l 0.0057,-0.47431 q 0.280774,-0.008 0.549264,0.0184 0.268491,0.0269 0.445646,0.0883 0.413363,0.14331 0.639962,0.3674 0.230693,0.21228 0.318241,0.494 0.08755,0.28172 0.04786,0.62517 -0.0515,0.33935 -0.182526,0.71728 l -1.265214,3.6494 z" />
      <path
         id="path4329"
         style="font-style:normal;font-variant:normal;font-weight:300;font-stretch:normal;font-size:12.5px;line-height:125%;font-family:'Source Sans Pro';-inkscape-font-specification:'Source Sans Pro, Light';text-align:start;writing-mode:lr-tb;text-anchor:start;fill:#ffffff;fill-opacity:1"
         d="m 27.809777,670.26466 q -0.188759,0.71293 -0.544548,1.22648 -0.367873,0.51034 -0.820676,0.80424 -0.468086,0.30278 -0.969569,0.38983 -0.516766,0.0959 -1.000112,-0.032 -1.039193,-0.27514 -1.445733,-1.13276 -0.406539,-0.85762 -0.06741,-2.13848 0.02879,-0.10876 0.05759,-0.21751 0.02879,-0.10875 0.08176,-0.21111 l 4.180941,1.10696 q 0.131885,-0.54696 0.09957,-1.05982 -0.03551,-0.50077 -0.223857,-0.91269 -0.203627,-0.40304 -0.551198,-0.70196 -0.350771,-0.28683 -0.8462,-0.418 -0.471263,-0.12477 -0.881048,-0.091 -0.425068,0.0426 -0.815313,0.19792 l -0.108729,-0.46843 q 0.404814,-0.11265 0.875731,-0.18193 0.458833,-0.0725 1.099267,0.0971 0.555847,0.14717 0.996889,0.48376 0.428957,0.33339 0.689089,0.81605 0.256933,0.49474 0.32727,1.10817 0.05505,0.62232 -0.133703,1.33526 z m -4.334139,-0.77253 q -0.297535,1.12378 0.01448,1.8012 0.308811,0.6895 1.094248,0.89746 0.374593,0.0992 0.754526,0.0317 0.379933,-0.0675 0.73464,-0.28393 0.342623,-0.21962 0.635853,-0.59456 0.277948,-0.36606 0.463852,-0.87286 l -3.697595,-0.97898 z" />
      <path
         id="path4331"
         style="font-style:normal;font-variant:normal;font-weight:300;font-stretch:normal;font-size:12.5px;line-height:125%;font-family:'Source Sans Pro';-inkscape-font-specification:'Source Sans Pro, Light';text-align:start;writing-mode:lr-tb;text-anchor:start;fill:#ffffff;fill-opacity:1"
         d="m 21.280802,671.72183 -0.468935,-0.0757 0.09798,-0.92115 -0.03702,-0.006 q -0.530267,0.38292 -1.059329,0.60144 -0.531054,0.23086 -1.148074,0.1313 -0.92553,-0.14934 -1.267842,-0.77435 -0.342313,-0.625 -0.155145,-1.785 l 0.613272,-3.80084 0.542977,0.0876 -0.601325,3.7268 q -0.153318,0.95021 0.09585,1.44623 0.234838,0.50637 0.962921,0.62385 0.530637,0.0856 1.008347,-0.12852 0.475719,-0.2018 1.108298,-0.6695 l 0.720793,-4.46723 0.542978,0.0876 -0.955748,5.92339 z" />
      <path
         id="path4333"
         style="font-style:normal;font-variant:normal;font-weight:300;font-stretch:normal;font-size:12.5px;line-height:125%;font-family:'Source Sans Pro';-inkscape-font-specification:'Source Sans Pro, Light';text-align:start;writing-mode:lr-tb;text-anchor:start;fill:#ffffff;fill-opacity:1"
         d="m 15.343835,670.8507 -0.474334,-0.0252 -9.32e-4,-0.92635 -0.03745,-0.002 q -0.48635,0.43735 -0.989056,0.7111 -0.503369,0.28624 -1.127492,0.25314 -0.936184,-0.0497 -1.343273,-0.63455 -0.40709,-0.58488 -0.34485,-1.75823 l 0.203937,-3.8446 0.549228,0.0291 -0.199964,3.7697 q -0.05098,0.96115 0.249723,1.42774 0.287562,0.4784 1.024027,0.51747 0.536745,0.0285 0.98886,-0.23545 0.451452,-0.25144 1.030476,-0.78402 l 0.239692,-4.51865 0.549228,0.0291 -0.317823,5.99157 z" />
      <path
         id="path4335"
         style="font-style:normal;font-variant:normal;font-weight:300;font-stretch:normal;font-size:12.5px;line-height:125%;font-family:'Source Sans Pro';-inkscape-font-specification:'Source Sans Pro, Light';text-align:start;writing-mode:lr-tb;text-anchor:start;fill:#ffffff;fill-opacity:1"
         d="m 9.6811448,667.59909 q 0.038867,0.73647 -0.1423758,1.33435 -0.1937254,0.59854 -0.5346413,1.01709 -0.3527397,0.43169 -0.803398,0.66827 -0.4624821,0.24972 -0.9617873,0.27607 -1.0735061,0.0567 -1.7233632,-0.63506 -0.6498571,-0.69171 -0.719686,-2.01487 -0.00593,-0.11234 -0.011858,-0.22469 -0.00593,-0.11234 0.013108,-0.226 l 4.3189897,-0.22793 Q 9.0740059,667.00526 8.88604,666.527 q -0.1873072,-0.46578 -0.492853,-0.80014 -0.3173697,-0.32122 -0.7398367,-0.4992 -0.4218082,-0.1655 -0.933596,-0.13849 -0.4868225,0.0257 -0.8665376,0.18342 -0.391539,0.17087 -0.7153947,0.43831 l -0.2470853,-0.41255 q 0.3507973,-0.23131 0.7778079,-0.44161 0.4145279,-0.20963 1.0761073,-0.24455 0.5742009,-0.0303 1.0971877,0.15489 0.5105041,0.18586 0.9060634,0.56554 0.396218,0.39216 0.6512085,0.95451 0.2431665,0.57548 0.2820335,1.31196 z m -4.3622987,0.59322 q 0.061265,1.16088 0.565908,1.71005 0.5053018,0.56165 1.3166727,0.51883 0.3869615,-0.0204 0.7279112,-0.20114 0.3409497,-0.18072 0.6122398,-0.49545 0.2588076,-0.31408 0.4229903,-0.76085 0.1523588,-0.43364 0.1739626,-0.97302 l -3.8196846,0.20158 z" />
      <path
         id="path4337"
         style="font-style:normal;font-variant:normal;font-weight:300;font-stretch:normal;font-size:12.5px;line-height:125%;font-family:'Source Sans Pro';-inkscape-font-specification:'Source Sans Pro, Light';text-align:start;writing-mode:lr-tb;text-anchor:start;fill:#ffffff;fill-opacity:1"
         d="m 3.5923717,666.10362 q -0.4312283,-0.26424 -0.8971479,-0.42219 -0.4640744,-0.1456 -1.1069542,-0.0496 -0.70469509,0.10517 -0.99919787,0.503 -0.30502074,0.41204 -0.23490635,0.88183 0.0405925,0.27199 0.2079533,0.46187 0.15499768,0.19172 0.38731129,0.30871 0.23231363,0.11699 0.50854413,0.18951 0.2638675,0.0744 0.5382529,0.13452 0.3522541,0.0738 0.7187164,0.15815 0.3540992,0.0862 0.6537636,0.23102 0.3015094,0.15722 0.5133398,0.39101 0.2013125,0.248 0.2585111,0.63126 0.047973,0.32144 -0.03322,0.62424 -0.079348,0.31517 -0.2952424,0.56224 -0.2140494,0.25944 -0.5417642,0.43473 -0.340078,0.17714 -0.8098747,0.24726 -0.4697967,0.0701 -0.9406989,-0.0365 -0.4832653,-0.10481 -0.84529773,-0.32883 l 0.23951515,-0.42753 q 0.32992578,0.17825 0.68587018,0.27679 0.3577894,0.1109 0.8152231,0.0426 0.346166,-0.0517 0.5786665,-0.18747 0.2343456,-0.12344 0.3852872,-0.29763 0.1385786,-0.17235 0.1955983,-0.38307 0.044657,-0.20888 0.015135,-0.40669 -0.038747,-0.25963 -0.1776918,-0.42847 -0.1494624,-0.15463 -0.3675678,-0.2611 -0.2181054,-0.10647 -0.4819729,-0.18084 -0.2743854,-0.0602 -0.5487708,-0.12031 -0.3664623,-0.0843 -0.7329246,-0.16866 -0.3664623,-0.0843 -0.66797174,-0.24155 -0.3138725,-0.15537 -0.53123828,-0.42625 -0.21552066,-0.25852 -0.28009971,-0.69123 -0.0498181,-0.3338 0.0400478,-0.66317 0.07934795,-0.31517 0.30391526,-0.58882 0.22641244,-0.26128 0.57700833,-0.45263 0.35059584,-0.19134 0.83275564,-0.2633 0.6676059,-0.0996 1.2590014,0.0522 0.5932405,0.16423 1.0386769,0.43899 l -0.260551,0.45595 z" />
      <path
         id="path4339"
         style="font-style:normal;font-variant:normal;font-weight:300;font-stretch:normal;font-size:12.5px;line-height:125%;font-family:'Source Sans Pro';-inkscape-font-specification:'Source Sans Pro, Light';text-align:start;writing-mode:lr-tb;text-anchor:start;fill:#ffffff;fill-opacity:1"
         d="m -1.3020769,666.89402 q -0.45304,-0.2248 -0.9311717,-0.34065 -0.4751932,-0.10371 -1.1069788,0.0491 -0.6925342,0.16749 -0.9504509,0.58996 -0.2671281,0.43755 -0.1554686,0.89924 0.064645,0.2673 0.2482449,0.44152 0.1714502,0.17716 0.4132564,0.27301 0.2418062,0.0958 0.5233961,0.14348 0.2694401,0.0506 0.5480915,0.0861 0.3574266,0.0422 0.7299413,0.0935 0.360365,0.0543 0.6717351,0.17191 0.3143084,0.12975 0.54611111,0.34376 0.22259139,0.22909 0.31368207,0.60574 0.0763986,0.31589 0.0224848,0.62472 -0.0509754,0.32097 -0.24401689,0.58629 -0.19010308,0.27746 -0.50091119,0.48123 -0.3229579,0.20671 -0.7846473,0.31837 -0.4616895,0.11166 -0.9402172,0.0473 -0.4906774,-0.0614 -0.8712152,-0.25227 l 0.2005026,-0.44716 q 0.3444847,0.14817 0.7077881,0.21463 0.3662419,0.0786 0.8157816,-0.0301 0.3401922,-0.0823 0.5596794,-0.23824 0.2224256,-0.14382 0.3572608,-0.33075 0.1226855,-0.184 0.16071894,-0.39896 0.0258838,-0.21203 -0.0211308,-0.40643 -0.0617066,-0.25514 -0.21513024,-0.41094 -0.162635,-0.14071 -0.389353,-0.22734 -0.2267181,-0.0866 -0.4961582,-0.13722 -0.2786515,-0.0355 -0.5573029,-0.071 -0.3725147,-0.0514 -0.7450294,-0.10274 -0.3725148,-0.0514 -0.6868232,-0.18112 -0.3264582,-0.12682 -0.5670761,-0.37727 -0.2376795,-0.23831 -0.3405238,-0.66355 -0.079337,-0.32804 -0.01915,-0.66411 0.050975,-0.32097 0.2502898,-0.61352 0.2022528,-0.28041 0.534422,-0.50221 0.3321692,-0.22179 0.8060083,-0.33639 0.656085,-0.15868 1.2586523,-0.0601 0.6055057,0.11077 1.0736339,0.34478 l -0.2189253,0.47734 z" />
      <path
         id="path4341"
         style="font-style:normal;font-variant:normal;font-weight:300;font-stretch:normal;font-size:12.5px;line-height:125%;font-family:'Source Sans Pro';-inkscape-font-specification:'Source Sans Pro, Light';text-align:start;writing-mode:lr-tb;text-anchor:start;fill:#ffffff;fill-opacity:1"
         d="m -5.5059346,669.90657 q 0.2174369,0.70472 0.1875949,1.32876 -0.041786,0.62772 -0.2702412,1.11682 -0.236714,0.50472 -0.6160045,0.84414 -0.3875495,0.35504 -0.8653244,0.50245 -1.0272161,0.31694 -1.8262419,-0.19525 -0.7990257,-0.51219 -1.1896753,-1.77829 -0.03317,-0.1075 -0.06634,-0.215 -0.03317,-0.1075 -0.04245,-0.22237 l 4.1327528,-1.27514 q -0.1777861,-0.53381 -0.4767924,-0.95173 -0.2953209,-0.40597 -0.6732318,-0.65565 -0.38617,-0.23405 -0.8393002,-0.30355 -0.4494449,-0.0575 -0.9391642,0.0936 -0.4658305,0.14373 -0.795567,0.38936 -0.3379952,0.26126 -0.5867862,0.59966 l -0.340301,-0.33978 q 0.283735,-0.30993 0.646508,-0.61808 0.3508279,-0.30447 0.9838796,-0.49979 0.5494412,-0.16953 1.1018118,-0.11757 0.5404262,0.0556 1.0166892,0.32729 0.4799485,0.28361 0.8644742,0.76671 0.3762668,0.49874 0.5937036,1.20345 z m -4.0855992,1.63996 q 0.3427395,1.11082 0.9661527,1.52022 0.6270986,0.42134 1.4034828,0.18179 0.3702756,-0.11424 0.6568082,-0.37271 0.2865326,-0.25847 0.4728043,-0.6299 0.1743273,-0.36774 0.224505,-0.84107 0.041919,-0.45771 -0.068775,-0.98606 l -3.6549782,1.12773 z" />
      <path
         id="path4343"
         style="font-style:normal;font-variant:normal;font-weight:300;font-stretch:normal;font-size:12.5px;line-height:125%;font-family:'Source Sans Pro';-inkscape-font-specification:'Source Sans Pro, Light';text-align:start;writing-mode:lr-tb;text-anchor:start;fill:#ffffff;fill-opacity:1"
         d="m -10.987445,671.61977 q 0.284765,0.6803 0.315593,1.30429 0.0193,0.62882 -0.160642,1.13777 -0.186642,0.5253 -0.531223,0.8999 -0.351284,0.39096 -0.812508,0.58402 -0.991631,0.41509 -1.836569,-0.0172 -0.844938,-0.43227 -1.356551,-1.65452 -0.04344,-0.10377 -0.08688,-0.20755 -0.04344,-0.10377 -0.06382,-0.2172 l 3.989584,-1.66998 q -0.228724,-0.51405 -0.566857,-0.901 -0.333306,-0.37542 -0.733653,-0.58726 -0.407051,-0.19549 -0.864785,-0.22071 -0.452907,-0.0137 -0.925662,0.18421 -0.449693,0.18823 -0.754049,0.46469 -0.31106,0.29282 -0.525856,0.65375 l -0.371653,-0.30516 q 0.252336,-0.33599 0.583509,-0.67788 0.319642,-0.33706 0.930763,-0.59287 0.530408,-0.22202 1.085213,-0.22389 0.543275,0.003 1.043642,0.22714 0.505193,0.23572 0.934765,0.67925 0.422867,0.45988 0.707633,1.14019 z m -3.907268,2.0285 q 0.448868,1.07234 1.109051,1.41934 0.66501,0.35853 1.414498,0.0448 0.357448,-0.14963 0.61756,-0.43467 0.260111,-0.28504 0.409478,-0.67278 0.137836,-0.38292 0.141866,-0.85889 -0.0027,-0.45961 -0.164092,-0.97473 l -3.528361,1.47692 z" />
    </g>
    <path
       id="path4136-4-7-7"
       d="M 65.584719,47.542712 A 48.214636,48.214636 0 0 1 131.44713,65.190491 48.214636,48.214636 0 0 1 113.79934,131.05291 48.214636,48.214636 0 0 1 47.936942,113.40512 48.214636,48.214636 0 0 1 65.584719,47.542712 Z"
       style="display:inline;opacity:0.98000004;fill:none;fill-opacity:1;stroke:#ffffff;stroke-width:3.7;stroke-linejoin:miter;stroke-miterlimit:4;stroke-dasharray:none" />
  </g>
</svg>
